{"glyphs":{"0":{"ha":647,"x_min":0,"x_max":0,"o":"m 233 1086 b 85 1006 188 1086 125 1085 b 58 832 60 956 58 888 l 58 233 b 113 42 58 178 60 94 b 226 0 150 3 188 1 l 421 0 b 568 85 469 1 526 4 b 594 271 593 138 594 192 l 594 843 b 532 1056 594 897 594 999 b 417 1086 494 1086 454 1086 z m 396 869 l 396 218 l 264 218 l 264 869 z "},"1":{"ha":647,"x_min":0,"x_max":0,"o":"m 101 868 b 124 813 110 850 117 832 b 210 800 138 779 188 771 l 244 847 l 244 218 l 210 218 b 160 168 182 218 160 196 l 160 50 b 210 0 160 22 182 0 l 469 0 b 519 50 497 0 519 22 l 519 168 b 469 218 519 196 497 218 l 447 218 l 447 1036 b 397 1086 447 1064 425 1086 l 267 1086 b 228 1068 250 1086 238 1079 b 108 921 214 1051 108 921 b 101 868 96 906 94 886 z "},"2":{"ha":647,"x_min":0,"x_max":0,"o":"m 583 832 b 404 1086 583 961 539 1086 l 221 1086 b 53 843 82 1082 56 967 l 53 715 b 103 665 53 688 75 665 l 192 665 b 242 715 219 665 242 688 l 242 874 l 383 874 l 383 588 l 76 161 b 67 132 69 153 67 143 l 67 50 b 117 0 67 22 89 0 l 557 0 b 607 50 585 0 607 22 l 607 168 b 557 218 607 196 585 218 l 350 218 l 583 529 l 583 832 z "},"3":{"ha":647,"x_min":0,"x_max":0,"o":"m 118 789 l 183 789 b 233 839 211 789 233 811 l 233 881 l 390 881 l 250 613 l 250 533 b 300 483 250 506 272 483 l 378 483 l 378 218 l 236 218 l 236 271 b 186 321 236 299 214 321 l 100 321 b 50 271 72 321 50 299 l 50 219 b 99 46 51 164 51 94 b 215 0 136 6 175 3 l 390 0 b 576 244 519 0 576 110 l 576 503 b 543 631 576 542 575 592 b 467 664 519 657 496 660 l 592 890 l 592 1036 b 542 1086 592 1064 569 1086 l 118 1086 b 68 1036 90 1086 68 1064 b 68 839 68 996 68 839 b 118 789 68 811 90 789 z "},"4":{"ha":647,"x_min":0,"x_max":0,"o":"m 329 543 l 171 543 l 297 800 l 297 799 l 315 846 l 324 871 l 338 868 b 331 771 335 851 331 774 l 329 543 z m 290 1061 l 33 583 l 33 396 b 83 346 33 368 56 346 l 329 346 l 329 218 l 293 218 b 243 168 265 218 243 196 l 243 50 b 293 0 243 22 265 0 l 550 0 b 600 50 578 0 600 22 l 600 168 b 550 218 600 196 578 218 l 517 218 l 517 346 l 550 346 b 600 396 578 346 600 368 l 600 493 b 550 543 600 521 578 543 l 517 543 l 517 1038 b 467 1088 517 1065 494 1088 l 333 1088 b 290 1061 315 1088 299 1078 z "},"5":{"ha":647,"x_min":0,"x_max":0,"o":"m 72 1036 l 72 561 b 122 511 72 533 94 511 l 396 511 l 396 218 l 253 218 l 253 292 b 203 342 253 319 231 342 l 111 342 b 61 292 83 342 61 319 l 61 257 b 240 0 64 124 90 0 l 400 0 b 597 243 546 0 597 97 l 597 506 b 418 746 594 633 568 746 l 264 746 l 264 869 l 536 869 b 586 919 564 869 586 892 l 586 1036 b 536 1086 586 1064 564 1086 l 122 1086 b 72 1036 94 1086 72 1064 z "},"6":{"ha":647,"x_min":0,"x_max":0,"o":"m 265 451 l 401 451 l 401 218 l 265 218 l 265 451 z m 588 856 b 410 1086 589 975 539 1081 l 243 1086 b 60 821 86 1086 60 953 l 60 251 b 239 0 60 115 101 0 l 438 0 b 603 253 569 0 603 129 l 603 421 b 425 658 603 547 568 658 l 265 658 l 265 869 l 401 869 l 401 833 b 451 783 401 806 424 783 l 538 783 b 588 833 565 783 588 806 l 588 856 z "},"7":{"ha":647,"x_min":0,"x_max":0,"o":"m 97 732 l 179 732 b 229 782 207 732 229 754 l 229 869 l 399 869 l 172 64 b 219 0 163 32 188 0 l 338 0 b 386 38 361 0 381 15 l 615 919 l 615 1036 b 565 1086 615 1064 593 1086 l 97 1086 b 47 1036 69 1086 47 1064 b 47 782 47 994 47 782 b 97 732 47 754 69 732 z "},"8":{"ha":647,"x_min":0,"x_max":0,"o":"m 586 867 b 425 1086 585 1004 551 1086 l 232 1086 b 64 856 81 1075 65 968 l 64 767 b 171 557 64 700 68 611 b 56 322 82 507 57 463 l 56 228 b 236 0 57 89 94 0 l 407 0 b 597 233 567 0 596 104 l 597 329 b 497 549 597 419 575 510 b 490 551 496 549 490 551 l 488 561 b 586 772 543 590 586 625 z m 394 869 l 394 658 l 258 658 l 258 869 z m 394 453 l 394 218 l 258 218 l 258 453 z "},"9":{"ha":647,"x_min":0,"x_max":0,"o":"m 388 636 l 253 636 l 253 869 l 388 869 z m 65 217 b 243 0 65 104 119 0 l 410 0 b 593 264 556 0 593 124 l 593 835 b 414 1086 593 969 551 1086 l 215 1086 b 50 833 85 1086 50 957 l 50 664 b 228 426 50 543 93 426 l 388 426 l 388 218 l 253 218 l 253 281 b 203 331 253 308 231 331 l 115 331 b 65 281 88 331 65 308 z "}," ":{"ha":376,"x_min":0,"x_max":0,"o":""},"$":{"ha":603,"x_min":0,"x_max":0,"o":"m 251 1193 l 251 1081 l 206 1081 b 69 1022 163 1081 110 1079 b 33 858 36 972 35 915 l 33 678 b 75 503 35 617 38 556 b 204 447 114 449 161 449 l 371 447 l 371 217 l 236 217 l 236 246 b 186 296 236 274 214 296 l 94 296 b 44 246 67 296 44 274 l 44 50 b 94 0 44 22 67 0 l 251 0 l 251 -114 b 300 -162 251 -140 272 -162 l 322 -162 b 371 -114 349 -162 371 -140 l 371 0 l 393 0 b 503 26 431 0 467 0 b 572 247 571 78 571 175 l 572 422 b 518 617 572 485 568 568 b 388 653 479 649 428 651 l 236 653 l 236 864 l 371 864 l 371 847 b 421 797 371 819 393 797 l 499 797 b 549 847 526 797 549 819 l 549 1031 b 499 1081 549 1058 526 1081 l 371 1081 l 371 1193 b 322 1243 371 1221 349 1243 l 300 1243 b 251 1193 272 1243 251 1221 z "},"&":{"ha":694,"x_min":0,"x_max":0,"o":"m 267 422 l 374 242 b 311 207 351 218 329 207 b 219 329 265 207 219 269 b 267 422 219 363 235 393 z m 471 464 l 299 793 b 340 900 276 832 286 900 b 390 864 361 900 379 889 b 440 815 401 839 413 815 l 550 815 b 578 843 565 815 578 828 b 506 1057 578 925 553 997 b 336 1147 457 1117 403 1147 b 165 1056 271 1147 211 1118 b 92 829 117 993 92 917 b 157 615 92 757 113 685 b 36 322 78 529 36 433 b 119 71 36 228 69 139 b 315 -31 174 4 240 -31 b 479 46 368 -31 424 -4 l 494 21 b 538 -1 504 7 519 -1 l 632 -1 b 676 71 668 -1 693 39 l 596 229 b 638 422 624 293 638 357 b 638 432 638 426 638 429 b 608 464 636 450 625 464 z "},"’":{"ha":289,"x_min":0,"x_max":0,"o":"m 229 960 b 125 1090 229 1033 188 1090 b 31 988 69 1090 31 1039 b 107 899 31 926 67 899 b 122 903 114 899 118 903 b 129 879 128 903 129 896 b 43 753 129 808 92 785 b 50 731 39 751 44 736 b 71 717 56 724 67 715 b 229 960 167 771 229 853 z "},"(":{"ha":368,"x_min":0,"x_max":0,"o":"m 340 -265 l 340 -83 b 335 -81 340 -82 339 -81 b 207 29 250 -81 207 -35 l 207 861 b 335 971 207 925 250 971 b 340 974 339 971 340 972 l 340 1154 b 332 1157 340 1156 338 1157 b 0 883 103 1157 0 1033 l 0 6 b 332 -268 0 -143 103 -268 b 340 -265 338 -268 340 -267 z "},")":{"ha":368,"x_min":0,"x_max":0,"o":"m 0 -265 b 8 -268 0 -267 3 -268 b 340 6 238 -268 340 -143 l 340 883 b 8 1157 340 1033 238 1157 b 0 1154 3 1157 0 1156 l 0 974 b 6 971 0 972 1 971 b 133 861 90 971 133 925 l 133 29 b 6 -81 133 -35 90 -81 b 0 -83 1 -81 0 -82 l 0 -265 z "},"*":{"ha":493,"x_min":0,"x_max":0,"o":"m 349 786 l 513 906 l 310 906 l 247 1097 l 185 906 l -17 906 l 147 786 l 83 594 l 247 714 l 411 594 z "},"+":{"ha":926,"x_min":0,"x_max":0,"o":"m 536 333 l 868 333 l 868 475 l 536 475 l 536 810 l 393 810 l 393 475 l 58 475 l 58 333 l 393 333 l 393 0 l 536 0 z "},",":{"ha":231,"x_min":0,"x_max":0,"o":"m 210 61 b 106 192 210 135 168 192 b 11 89 50 192 11 140 b 88 0 11 28 47 0 b 103 4 94 0 99 4 b 110 -19 108 4 110 -3 b 24 -146 110 -90 72 -114 b 31 -168 19 -147 25 -162 b 51 -182 36 -175 47 -183 b 210 61 147 -128 210 -46 z "},"-":{"ha":492,"x_min":0,"x_max":0,"o":"m 33 269 l 457 269 l 457 406 l 33 406 z "},".":{"ha":289,"x_min":0,"x_max":0,"o":"m 39 103 b 146 -4 39 43 86 -4 b 251 103 204 -4 251 43 b 146 208 251 161 204 208 b 39 103 86 208 39 161 z "},"/":{"ha":650,"x_min":0,"x_max":0,"o":"m 625 958 b 611 981 632 971 626 981 l 501 981 b 476 965 489 981 481 975 l 25 22 b 38 0 21 11 26 0 l 151 0 b 175 15 161 0 171 6 z "},":":{"ha":278,"x_min":0,"x_max":0,"o":"m 53 549 b 160 442 53 489 100 442 b 265 549 218 442 265 489 b 160 654 265 607 218 654 b 53 549 100 654 53 607 z m 53 103 b 160 -4 53 43 100 -4 b 265 103 218 -4 265 43 b 160 208 265 161 218 208 b 53 103 100 208 53 161 z "},";":{"ha":347,"x_min":0,"x_max":0,"o":"m 315 61 b 211 192 315 135 274 192 b 117 89 156 192 117 140 b 193 0 117 28 153 0 b 208 4 200 0 204 4 b 215 -19 214 4 215 -3 b 129 -146 215 -90 178 -114 b 136 -168 125 -147 131 -162 b 157 -182 142 -175 153 -183 b 315 61 253 -128 315 -46 z m 107 549 b 214 442 107 489 154 442 b 319 549 272 442 319 489 b 214 654 319 607 272 654 b 107 549 154 654 107 607 z "},"<":{"ha":742,"x_min":0,"x_max":0,"o":"m 747 810 l 646 968 b 639 969 644 969 640 971 l 7 635 b 0 626 3 633 0 631 l 0 478 b 7 468 0 475 4 469 l 640 132 b 651 135 644 131 650 131 l 744 303 b 738 310 744 304 743 307 l 308 525 l 310 525 b 308 578 282 538 283 564 l 743 801 b 747 810 747 804 749 806 z "},"=":{"ha":926,"x_min":0,"x_max":0,"o":"m 926 457 l 0 457 l 0 314 l 926 314 z m 926 718 l 0 718 l 0 575 l 926 575 z "},">":{"ha":742,"x_min":0,"x_max":0,"o":"m 1 810 b 6 801 0 806 1 804 l 440 578 b 439 525 465 564 467 538 l 440 525 l 11 310 b 4 303 6 307 4 304 l 97 135 b 108 132 99 131 104 131 l 742 468 b 749 478 744 469 749 475 l 749 626 b 742 635 749 631 746 633 l 110 969 b 103 968 108 971 104 969 l 1 810 z "},"?":{"ha":713,"x_min":0,"x_max":0,"o":"m 322 88 b 467 374 338 215 358 269 b 664 758 599 500 664 633 b 336 1089 664 950 526 1089 b 42 806 167 1089 42 967 b 206 614 42 692 107 614 b 200 864 206 614 201 863 b 296 953 214 922 250 953 b 415 735 371 953 415 872 b 308 474 415 654 368 572 b 196 88 222 329 201 246 z m 133 -135 b 267 -268 133 -208 193 -268 b 401 -135 342 -268 401 -208 b 267 0 401 -60 342 0 b 133 -135 193 0 133 -60 z "},"@":{"ha":1182,"x_min":0,"x_max":0,"o":"m 674 281 b 610 222 674 250 647 222 b 544 281 574 222 544 249 l 544 650 b 611 710 544 683 572 710 b 674 650 649 710 674 682 z m 1126 244 l 1126 824 b 831 1081 1126 978 1006 1081 l 374 1081 b 76 824 196 1081 76 978 l 76 64 b 374 -193 76 -90 196 -193 l 826 -193 b 876 -143 854 -193 876 -171 l 876 -99 b 826 -49 876 -71 854 -49 l 374 -49 b 228 64 281 -49 228 -3 l 228 824 b 374 936 228 890 283 936 l 831 936 b 974 824 921 936 974 890 l 974 251 b 954 236 974 240 967 236 l 842 236 b 824 251 826 236 824 240 l 824 801 b 774 851 824 829 801 851 l 692 851 b 681 840 686 851 681 847 l 681 829 b 675 822 681 824 678 822 b 668 825 672 822 671 824 b 583 851 643 846 615 851 b 389 664 449 851 389 774 l 389 285 b 606 85 389 156 471 85 b 713 117 650 85 685 96 b 724 121 717 119 719 121 b 736 118 728 121 732 119 b 847 97 767 103 807 97 l 957 97 b 1126 244 1051 97 1126 158 z "},"A":{"ha":671,"x_min":0,"x_max":0,"o":"m 394 443 l 281 443 l 331 907 l 344 907 z m 64 217 l 56 217 b 6 167 28 217 6 194 l 6 50 b 56 0 6 22 28 0 l 190 0 b 240 44 217 0 238 19 b 264 265 249 118 257 193 l 411 265 l 435 44 b 483 0 438 19 458 0 l 618 0 b 668 50 646 0 668 22 l 668 167 b 618 217 668 194 646 217 l 511 1026 b 450 1081 507 1058 481 1081 l 226 1081 b 165 1026 196 1081 169 1057 z "},"B":{"ha":647,"x_min":0,"x_max":0,"o":"m 411 864 l 411 647 l 271 647 l 271 864 z m 411 458 l 411 217 l 271 217 l 271 458 z m 71 217 b 19 167 42 217 19 194 l 19 50 b 69 0 19 22 42 0 l 407 0 b 575 56 476 0 538 0 b 613 321 606 101 613 168 b 479 561 613 447 600 513 b 613 826 596 589 613 664 b 583 1013 613 900 608 968 b 406 1081 544 1078 468 1081 l 132 1081 b 71 1018 99 1081 71 1053 z "},"C":{"ha":579,"x_min":0,"x_max":0,"o":"m 244 1081 b 46 821 85 1081 46 944 l 46 243 b 239 0 46 114 83 0 l 494 0 b 557 61 529 0 557 28 l 557 300 b 494 363 557 335 529 363 l 440 363 b 379 300 407 363 379 335 l 379 217 l 247 217 l 247 864 l 379 864 l 379 828 b 440 767 379 794 407 767 l 486 767 b 549 828 521 767 549 794 l 549 1018 b 486 1081 549 1053 521 1081 z "},"D":{"ha":647,"x_min":0,"x_max":0,"o":"m 71 217 b 8 154 36 217 8 189 l 8 61 b 69 0 8 28 36 0 l 422 0 b 607 290 606 0 607 160 l 607 801 b 417 1081 607 976 589 1081 l 71 1081 z m 406 217 l 274 217 l 274 864 l 382 864 b 406 840 394 864 406 853 z "},"E":{"ha":603,"x_min":0,"x_max":0,"o":"m 72 217 b 21 167 43 217 21 194 l 21 50 b 71 0 21 22 43 0 l 529 0 b 579 50 557 0 579 22 l 579 307 b 529 357 579 335 557 357 l 450 357 b 400 307 422 357 400 335 l 400 217 l 271 217 l 271 456 l 382 456 b 432 506 410 456 432 478 l 432 596 b 382 646 432 624 410 646 l 271 646 l 271 864 l 400 864 l 400 783 b 450 733 400 756 422 733 l 517 733 b 567 783 544 733 567 756 l 567 1018 b 504 1081 567 1053 539 1081 l 122 1081 b 72 1031 94 1081 72 1058 z "},"F":{"ha":603,"x_min":0,"x_max":0,"o":"m 71 217 b 19 167 42 217 19 194 l 19 50 b 69 0 19 22 42 0 l 289 0 b 339 50 317 0 339 22 l 339 167 b 289 217 339 194 317 217 l 275 217 l 275 461 l 388 461 b 438 511 415 461 438 483 l 438 597 b 388 647 438 625 415 647 l 275 647 l 275 864 l 407 864 l 407 794 b 457 744 407 767 429 744 l 533 744 b 583 794 561 744 583 767 l 583 1018 b 521 1081 583 1053 556 1081 l 121 1081 b 71 1031 93 1081 71 1058 z "},"G":{"ha":625,"x_min":0,"x_max":0,"o":"m 233 1082 b 43 818 71 1082 43 940 l 43 253 b 226 0 43 104 75 0 l 526 0 b 576 50 554 0 576 22 l 576 571 b 526 621 576 599 554 621 l 371 621 b 321 571 343 621 321 599 l 321 467 b 371 417 321 439 343 417 l 386 417 l 386 217 l 249 217 l 249 865 l 517 865 b 567 915 544 865 567 888 l 567 1032 b 517 1082 567 1060 544 1082 z "},"H":{"ha":671,"x_min":0,"x_max":0,"o":"m 72 217 b 21 167 43 217 21 194 l 21 50 b 71 0 21 22 43 0 l 211 0 b 274 61 246 0 274 28 l 274 439 l 400 439 l 400 61 b 461 0 400 28 428 0 l 604 0 b 654 50 632 0 654 22 l 654 167 b 604 217 654 194 632 217 l 604 1031 b 553 1081 604 1058 581 1081 l 450 1081 b 400 1031 422 1081 400 1058 l 400 656 l 274 656 l 274 1031 b 224 1081 274 1058 251 1081 l 122 1081 b 72 1031 94 1081 72 1058 z "},"I":{"ha":347,"x_min":0,"x_max":0,"o":"m 72 217 b 19 167 42 217 19 194 l 19 50 b 69 0 19 22 42 0 l 278 0 b 328 50 306 0 328 22 l 328 167 b 278 217 328 194 306 217 l 278 1031 b 226 1081 278 1058 254 1081 l 122 1081 b 72 1031 94 1081 72 1058 z "},"J":{"ha":603,"x_min":0,"x_max":0,"o":"m 278 1031 l 278 914 b 328 864 278 886 300 864 l 331 217 l 222 217 l 222 324 b 172 374 222 351 200 374 l 78 374 b 28 324 50 374 28 351 l 28 242 b 99 31 28 172 29 82 b 221 0 139 0 182 0 l 340 0 b 533 258 490 0 533 114 l 533 1081 l 328 1081 b 278 1031 300 1081 278 1058 z "},"K":{"ha":671,"x_min":0,"x_max":0,"o":"m 435 1046 l 290 610 l 276 611 l 276 1031 b 226 1081 276 1058 254 1081 l 122 1081 b 72 1031 94 1081 72 1058 l 72 217 b 21 167 43 217 21 194 l 21 50 b 71 0 21 22 43 0 l 226 0 b 276 50 254 0 276 22 l 276 417 l 407 417 l 407 50 b 457 0 407 22 429 0 l 613 0 b 663 50 640 0 663 22 l 663 167 b 613 217 663 194 640 217 l 606 217 l 606 557 b 556 607 606 585 583 607 l 465 607 l 569 864 l 590 864 b 640 914 618 864 640 886 l 640 1031 b 590 1081 640 1058 618 1081 l 482 1081 b 435 1046 460 1081 442 1067 z "},"L":{"ha":603,"x_min":0,"x_max":0,"o":"m 74 217 b 24 167 46 217 24 194 l 24 50 b 74 0 24 22 46 0 l 524 0 b 574 50 551 0 574 22 l 574 358 b 524 408 574 386 551 408 l 436 408 b 386 358 408 408 386 386 l 386 217 l 275 217 l 275 1031 b 225 1081 275 1058 253 1081 l 124 1081 b 74 1031 96 1081 74 1058 z "},"M":{"ha":903,"x_min":0,"x_max":0,"o":"m 72 1031 l 72 217 b 18 167 40 217 18 194 l 18 50 b 68 0 18 22 40 0 l 207 0 b 257 50 235 0 257 22 l 257 513 b 256 589 257 549 257 557 l 268 590 l 454 135 b 633 586 513 285 575 436 l 646 585 b 643 500 643 550 643 540 l 643 50 b 693 0 643 22 665 0 l 836 0 b 886 50 864 0 886 22 l 886 167 b 836 217 886 194 864 217 l 836 1031 b 785 1081 836 1058 813 1081 l 683 1081 b 638 1049 663 1081 646 1068 b 497 686 590 929 544 806 b 456 567 481 644 469 608 b 417 686 442 613 432 643 l 271 1049 b 225 1081 263 1068 246 1081 b 122 1081 199 1081 122 1081 b 72 1031 94 1081 72 1058 z "},"N":{"ha":742,"x_min":0,"x_max":0,"o":"m 496 1031 l 496 647 b 503 446 496 564 496 538 l 488 444 b 439 606 468 504 458 556 l 276 1047 b 229 1081 268 1068 250 1081 l 124 1081 b 74 1031 96 1081 74 1058 l 74 217 b 22 167 44 217 22 194 l 22 50 b 72 0 22 22 44 0 l 204 0 b 254 50 232 0 254 22 l 254 525 b 244 629 254 558 250 589 l 260 631 b 324 419 278 558 288 521 b 468 39 368 299 422 163 b 526 0 478 14 500 0 l 674 0 b 724 50 701 0 724 22 l 724 167 b 674 217 724 194 701 217 l 674 1031 b 622 1081 674 1058 650 1081 l 546 1081 b 496 1031 518 1081 496 1058 z "},"O":{"ha":625,"x_min":0,"x_max":0,"o":"m 229 1081 b 47 789 47 1075 47 924 l 47 257 b 249 0 47 92 86 0 l 392 0 b 583 307 583 0 583 167 l 583 771 b 383 1081 583 964 572 1081 z m 382 217 l 250 217 l 250 864 l 382 864 z "},"P":{"ha":625,"x_min":0,"x_max":0,"o":"m 413 864 l 413 615 l 275 615 l 275 864 z m 74 217 b 19 167 42 217 19 194 l 19 50 b 69 0 19 22 42 0 l 281 0 b 331 50 308 0 331 22 l 331 167 b 281 217 331 194 308 217 l 275 217 l 275 436 l 424 436 b 613 703 581 436 613 553 l 613 844 b 408 1081 613 992 567 1081 l 124 1081 b 74 1031 96 1081 74 1058 z "},"Q":{"ha":681,"x_min":0,"x_max":0,"o":"m 229 1081 b 47 789 75 1081 47 943 l 47 257 b 249 0 47 111 85 0 l 392 0 b 542 61 440 0 503 1 l 590 13 b 625 -1 600 3 613 -1 b 660 13 638 -1 650 3 l 676 29 b 690 64 685 38 690 51 b 676 99 690 76 685 89 l 579 194 b 583 321 583 235 583 279 l 583 771 b 383 1081 583 944 571 1081 z m 250 217 l 250 864 l 382 864 l 382 217 z "},"R":{"ha":671,"x_min":0,"x_max":0,"o":"m 413 864 l 413 636 l 276 636 l 276 864 z m 72 217 b 22 167 44 217 22 194 l 22 50 b 72 0 22 22 44 0 l 214 0 b 276 61 249 0 276 28 l 276 444 l 413 444 l 413 107 b 519 0 413 11 443 0 l 613 0 b 663 50 640 0 663 22 l 663 167 b 613 217 663 194 639 217 l 613 339 b 490 543 613 438 588 507 b 613 833 613 599 613 693 b 428 1081 613 975 578 1081 l 122 1081 b 72 1031 94 1081 72 1058 z "},"S":{"ha":625,"x_min":0,"x_max":0,"o":"m 214 1081 b 42 858 85 1081 42 957 l 42 678 b 83 503 42 617 46 556 b 213 447 122 449 169 447 l 379 447 l 379 217 l 244 217 l 244 246 b 194 296 244 274 222 296 l 103 296 b 53 246 75 296 53 274 l 53 50 b 103 0 53 22 75 0 l 401 0 b 581 247 554 0 581 121 l 581 422 b 526 617 581 485 576 568 b 396 653 488 649 436 653 l 244 653 l 244 864 l 379 864 l 379 847 b 429 797 379 819 401 797 l 507 797 b 557 847 535 797 557 819 l 557 1031 b 507 1081 557 1058 535 1081 z "},"T":{"ha":694,"x_min":0,"x_max":0,"o":"m 15 1031 l 15 781 b 65 731 15 753 38 731 l 104 731 b 154 781 132 731 154 753 l 154 864 l 249 864 l 249 217 b 196 167 218 217 196 194 l 196 50 b 246 0 196 22 218 0 l 451 0 b 501 50 479 0 501 22 l 501 167 b 451 217 501 194 479 217 l 451 864 l 543 864 l 543 781 b 593 731 543 753 565 731 l 632 731 b 682 781 660 731 682 753 l 682 1031 b 632 1081 682 1058 660 1081 l 65 1081 b 15 1031 38 1081 15 1058 z "},"U":{"ha":671,"x_min":0,"x_max":0,"o":"m 74 257 b 242 0 74 110 106 0 l 426 0 b 604 289 585 0 604 149 l 604 1018 b 542 1081 604 1053 576 1081 l 463 1081 b 401 1018 429 1081 401 1053 l 401 217 l 276 217 l 276 1018 b 214 1081 276 1053 249 1081 l 135 1081 b 74 1018 101 1081 74 1053 z "},"V":{"ha":671,"x_min":0,"x_max":0,"o":"m 232 0 l 438 0 b 488 43 463 0 483 18 l 613 864 l 618 864 b 668 914 646 864 668 886 l 668 1031 b 618 1081 668 1058 646 1081 l 492 1081 b 442 1038 467 1081 444 1063 l 371 483 b 346 238 356 364 353 339 l 332 238 b 306 506 326 338 325 365 l 238 1038 b 188 1081 235 1063 214 1081 l 85 1081 b 35 1024 54 1081 31 1053 l 183 43 b 232 0 186 18 207 0 z "},"W":{"ha":1019,"x_min":0,"x_max":0,"o":"m 206 0 l 372 0 b 422 43 397 0 418 18 b 486 492 443 192 467 343 b 503 622 494 549 497 576 l 507 656 l 521 656 b 538 510 521 656 531 554 l 606 43 b 654 0 608 18 629 0 l 822 0 b 872 44 849 0 869 18 b 967 864 903 317 936 593 b 1019 914 997 864 1019 886 l 1019 1031 b 969 1081 1019 1058 997 1081 l 854 1081 b 804 1035 828 1081 807 1061 l 747 449 b 732 222 739 371 738 346 l 718 222 b 690 479 708 332 706 361 l 614 1038 b 564 1081 610 1063 589 1081 l 472 1081 b 422 1038 446 1081 425 1063 l 342 468 b 314 207 324 342 321 303 l 300 207 b 286 442 296 322 294 356 l 228 1036 b 178 1081 225 1061 203 1081 l 86 1081 b 36 1025 56 1081 33 1054 l 156 44 b 206 0 160 18 181 0 z "},"X":{"ha":688,"x_min":0,"x_max":0,"o":"m 339 765 l 233 1040 b 176 1081 224 1065 203 1081 l 79 1081 b 22 993 33 1081 4 1033 l 226 543 l 74 217 l 68 217 b 19 168 42 217 19 194 l 19 49 b 68 0 19 22 42 0 l 219 0 b 268 49 247 0 268 22 l 268 168 l 339 336 l 458 29 b 504 0 467 11 483 0 l 610 0 b 658 49 638 0 658 22 l 658 168 b 610 217 658 194 638 217 l 610 217 l 457 563 l 665 992 b 608 1081 685 1033 654 1081 l 517 1081 b 460 1043 490 1081 469 1067 z "},"Y":{"ha":603,"x_min":0,"x_max":0,"o":"m 204 440 l 204 217 l 197 217 b 149 168 171 217 149 194 l 149 49 b 197 0 149 22 171 0 l 406 0 b 454 49 433 0 454 22 l 454 168 b 406 217 454 194 433 217 l 400 217 l 400 440 l 596 1017 b 549 1081 606 1047 582 1081 l 444 1081 b 399 1046 424 1081 404 1067 b 311 717 319 771 317 757 b 310 708 311 714 310 710 l 296 708 b 283 783 292 740 290 751 l 214 1044 b 167 1081 208 1067 189 1081 l 56 1081 b 10 1017 22 1081 -1 1047 z "},"Z":{"ha":579,"x_min":0,"x_max":0,"o":"m 79 810 l 135 810 b 185 864 163 810 185 832 l 315 864 l 19 219 l 19 50 b 69 0 19 22 42 0 l 506 0 b 556 50 533 0 556 22 l 556 256 b 506 306 556 283 533 306 l 447 306 b 397 256 419 306 397 283 l 397 217 l 251 217 l 547 874 l 547 1031 b 497 1081 547 1058 525 1081 l 79 1081 b 29 1031 51 1081 29 1058 l 29 860 b 79 810 29 832 51 810 z "},"[":{"ha":446,"x_min":0,"x_max":0,"o":"m 424 -253 l 424 -117 b 408 -103 424 -106 417 -103 l 300 -103 b 283 -89 288 -103 283 -97 l 283 964 b 300 978 283 974 288 978 l 408 978 b 424 992 417 978 424 982 l 424 1128 b 408 1142 424 1139 417 1142 l 101 1142 b 89 1128 93 1142 89 1139 l 89 -253 b 101 -267 89 -262 93 -267 l 408 -267 b 424 -253 417 -267 424 -262 z "},"\\":{"ha":615,"x_min":0,"x_max":0,"o":"m 478 15 b 501 0 482 6 492 0 l 615 0 b 628 22 626 0 632 11 l 176 965 b 151 981 172 975 164 981 l 42 981 b 28 958 26 981 21 971 z "},"]":{"ha":446,"x_min":0,"x_max":0,"o":"m 89 -253 b 104 -267 89 -262 96 -267 l 411 -267 b 424 -253 419 -267 424 -262 l 424 1128 b 411 1142 424 1139 419 1142 l 104 1142 b 89 1128 96 1142 89 1139 l 89 992 b 104 978 89 982 96 978 l 213 978 b 229 964 225 978 229 974 l 229 -89 b 213 -103 229 -97 225 -103 l 104 -103 b 89 -117 96 -103 89 -106 l 89 -253 z "},"^":{"ha":810,"x_min":0,"x_max":0,"o":"m 414 649 l 688 507 b 743 513 717 494 733 506 b 753 561 757 526 768 543 l 451 843 b 414 860 438 854 425 860 l 411 860 b 374 843 400 860 388 854 l 72 561 b 69 528 61 549 64 539 b 136 507 76 517 96 489 l 414 649 z "},"_":{"ha":694,"x_min":0,"x_max":0,"o":"m 708 -104 l -14 -104 l -14 -174 l 708 -174 z "},"‘":{"ha":231,"x_min":0,"x_max":0,"o":"m 17 846 b 121 715 17 772 58 715 b 215 818 176 715 215 767 b 139 907 215 879 179 907 b 124 903 132 907 128 903 b 117 926 118 903 117 910 b 203 1053 117 997 154 1021 b 196 1075 207 1054 201 1069 b 175 1089 190 1082 179 1090 b 17 846 79 1035 17 953 z "},"a":{"ha":556,"x_min":0,"x_max":0,"o":"m 321 283 l 321 165 l 199 165 l 199 283 z m 321 97 l 321 0 l 504 0 b 547 43 528 0 547 19 l 547 143 b 504 186 547 167 528 186 l 496 186 l 496 556 b 376 721 496 635 463 721 l 164 721 b 47 558 72 721 47 646 l 47 544 b 90 501 47 521 67 501 l 156 501 b 199 544 179 501 199 521 l 199 554 l 321 554 l 321 407 l 139 407 b 32 261 67 407 32 382 l 32 156 b 132 0 32 79 46 0 l 203 0 b 242 19 218 0 229 7 z "},"b":{"ha":556,"x_min":0,"x_max":0,"o":"m 342 535 l 342 186 l 240 186 l 240 535 l 342 535 z m 64 186 l 57 186 b 14 143 33 186 14 167 l 14 43 b 57 0 14 19 33 0 l 197 0 b 240 43 221 0 240 19 l 240 104 l 303 19 b 343 0 313 7 326 0 l 396 0 b 515 185 492 0 515 90 l 515 572 b 415 721 515 649 494 717 l 340 721 b 300 701 324 721 310 714 l 240 626 l 240 1043 b 197 1086 240 1067 221 1086 l 107 1086 b 64 1043 83 1086 64 1067 z "},"c":{"ha":486,"x_min":0,"x_max":0,"o":"m 457 558 b 331 721 457 649 422 721 l 169 721 b 43 474 49 721 43 653 l 43 175 b 181 0 43 81 63 0 l 339 0 b 457 174 442 0 457 51 l 457 192 b 414 235 457 215 438 235 l 347 235 b 304 192 324 235 304 215 l 304 186 l 219 186 l 219 533 l 304 533 l 304 528 b 347 485 304 504 324 485 l 414 485 b 457 528 438 485 457 504 z "},"d":{"ha":556,"x_min":0,"x_max":0,"o":"m 324 186 l 222 186 l 222 539 l 324 539 z m 324 1043 l 324 628 l 264 703 b 225 721 254 714 240 721 l 153 721 b 46 558 67 721 46 636 l 46 154 b 168 0 46 68 72 0 l 217 0 b 256 19 232 0 246 6 l 324 107 l 324 43 b 367 0 324 19 343 0 l 504 0 b 547 43 528 0 547 19 l 547 143 b 504 186 547 167 528 186 l 496 186 l 496 1043 b 453 1086 496 1067 476 1086 l 367 1086 b 324 1043 343 1086 324 1067 z "},"e":{"ha":532,"x_min":0,"x_max":0,"o":"m 324 442 l 225 442 l 225 557 l 324 557 z m 490 553 b 357 721 490 689 458 721 l 160 721 b 44 522 58 721 44 619 l 44 176 b 171 0 44 32 78 0 l 379 0 b 464 36 407 0 438 0 b 490 165 490 74 490 118 l 490 186 b 442 235 490 213 468 235 l 372 235 b 324 186 346 235 324 213 l 324 165 l 225 165 l 225 314 l 442 314 b 490 363 468 314 490 336 z "},"f":{"ha":347,"x_min":0,"x_max":0,"o":"m 199 1086 b 86 924 103 1086 86 990 l 86 721 l 79 721 b 31 672 53 721 31 699 l 31 582 b 79 533 31 556 53 533 l 86 533 l 86 186 l 79 186 b 31 138 53 186 31 164 l 31 49 b 79 0 31 22 53 0 l 211 0 b 261 50 239 0 261 22 l 261 533 b 314 582 292 533 314 556 l 314 672 b 261 721 314 699 292 721 l 261 900 l 282 900 b 331 949 308 900 331 922 l 331 1038 b 282 1086 331 1064 308 1086 z "},"g":{"ha":556,"x_min":0,"x_max":0,"o":"m 321 186 l 219 186 l 219 533 l 321 533 z m 315 672 l 315 626 l 251 703 b 214 721 243 715 229 721 l 172 721 b 44 536 54 721 44 653 l 44 139 b 150 0 44 29 75 0 l 215 0 b 253 18 229 0 243 6 b 321 103 275 46 304 81 l 321 -139 l 219 -139 l 219 -118 b 171 -69 219 -92 197 -69 l 107 -69 b 58 -118 81 -69 58 -92 l 58 -157 b 163 -290 58 -274 94 -290 l 369 -290 b 496 -108 486 -290 496 -214 l 496 672 b 447 721 496 699 474 721 l 364 721 b 315 672 338 721 315 699 z "},"h":{"ha":579,"x_min":0,"x_max":0,"o":"m 113 0 l 193 0 b 242 49 219 0 242 22 l 242 533 l 343 533 l 343 49 b 392 0 343 22 365 0 l 519 0 b 568 49 546 0 568 22 l 568 138 b 519 186 568 164 546 186 l 519 574 b 417 721 519 650 503 721 l 340 721 b 301 701 325 721 311 714 b 242 626 282 676 257 647 l 242 1038 b 193 1086 242 1064 219 1086 l 113 1086 b 64 1038 86 1086 64 1064 l 64 49 b 113 0 64 22 86 0 z "},"i":{"ha":301,"x_min":0,"x_max":0,"o":"m 65 186 b 14 138 36 186 14 164 l 14 49 b 63 0 14 22 36 0 l 243 0 b 292 49 269 0 292 22 l 292 138 b 240 186 292 164 267 186 l 240 672 b 192 721 240 699 218 721 l 114 721 b 65 672 88 721 65 699 z m 85 856 b 153 828 103 838 128 828 b 249 924 206 828 249 871 b 153 1019 249 976 206 1019 b 57 924 100 1019 57 976 b 85 856 57 899 67 874 z "},"j":{"ha":283,"x_min":0,"x_max":0,"o":"m 85 856 b 153 828 103 838 128 828 b 249 924 206 828 249 871 b 153 1019 249 976 206 1019 b 57 924 100 1019 57 976 b 85 856 57 899 67 874 z m 65 -106 l 54 -106 b 4 -156 26 -106 4 -128 l 4 -235 b 54 -285 4 -262 26 -285 l 117 -285 b 240 -114 203 -285 240 -265 l 240 671 b 190 721 240 699 218 721 l 115 721 b 65 671 88 721 65 699 z "},"k":{"ha":579,"x_min":0,"x_max":0,"o":"m 64 1036 l 64 50 b 114 0 64 22 86 0 l 189 0 b 239 50 217 0 239 22 l 239 263 l 340 263 l 340 50 b 390 0 340 22 363 0 l 518 0 b 568 50 546 0 568 22 l 568 136 b 518 186 568 164 546 186 l 508 186 l 508 363 b 458 413 508 390 486 413 l 404 413 l 453 533 l 496 533 b 546 583 524 533 546 556 l 546 671 b 496 721 546 699 524 721 l 414 721 b 367 689 393 721 374 708 l 251 382 l 239 383 l 239 1036 b 189 1086 239 1064 217 1086 l 114 1086 b 64 1036 86 1086 64 1064 z "},"l":{"ha":301,"x_min":0,"x_max":0,"o":"m 115 0 l 242 0 b 292 50 269 0 292 22 l 292 136 b 242 186 292 164 269 186 l 239 186 l 239 1036 b 189 1086 239 1064 217 1086 l 115 1086 b 65 1036 88 1086 65 1064 l 65 50 b 115 0 65 22 88 0 z "},"m":{"ha":833,"x_min":0,"x_max":0,"o":"m 764 547 b 638 721 764 689 733 721 l 572 721 b 496 604 550 686 517 639 b 386 721 486 700 458 721 l 314 721 b 225 604 289 686 250 638 l 225 671 b 175 721 225 699 203 721 l 99 721 b 49 671 71 721 49 699 l 49 50 b 99 0 49 22 71 0 l 175 0 b 225 50 203 0 225 22 l 225 538 l 318 538 l 318 50 b 368 0 318 22 340 0 l 444 0 b 494 50 472 0 494 22 l 494 538 l 586 538 l 586 50 b 636 0 586 22 608 0 l 765 0 b 815 50 793 0 815 22 l 815 136 b 765 186 815 164 793 186 l 764 186 z "},"n":{"ha":560,"x_min":0,"x_max":0,"o":"m 221 597 l 221 671 b 171 721 221 699 199 721 l 94 721 b 44 671 67 721 44 699 l 44 50 b 94 0 44 22 67 0 l 171 0 b 221 50 199 0 221 22 l 221 533 l 325 533 l 325 50 b 375 0 325 22 347 0 l 501 0 b 551 50 529 0 551 22 l 551 136 b 500 186 551 164 528 186 l 500 535 b 375 721 500 633 483 721 l 311 721 z "},"o":{"ha":532,"x_min":0,"x_max":0,"o":"m 315 539 l 315 186 l 219 186 l 219 539 z m 169 721 b 43 518 53 721 43 603 l 43 188 b 171 0 43 81 65 0 l 354 0 b 492 222 486 0 492 126 l 492 519 b 354 721 492 647 468 721 z "},"p":{"ha":556,"x_min":0,"x_max":0,"o":"m 338 533 l 338 186 l 238 186 l 238 533 z m 63 686 l 63 -114 l 47 -114 b 13 -149 28 -114 13 -129 l 13 -265 b 47 -300 13 -285 28 -300 l 203 -300 b 238 -265 222 -300 238 -285 l 238 106 l 308 14 b 336 0 315 4 325 0 l 404 0 b 515 194 508 0 515 106 l 515 526 b 407 721 515 622 508 721 l 343 721 b 315 707 332 721 322 717 l 238 608 l 238 686 b 203 721 238 706 222 721 l 97 721 b 63 686 78 721 63 706 z "},"q":{"ha":556,"x_min":0,"x_max":0,"o":"m 318 186 l 219 186 l 219 533 l 318 533 z m 318 686 l 318 618 l 249 707 b 222 721 243 717 233 721 l 157 721 b 43 565 68 719 43 683 l 43 154 b 163 0 43 53 69 0 l 221 0 b 249 14 233 0 243 4 l 318 107 l 318 -262 b 353 -297 318 -282 333 -297 l 513 -297 b 547 -262 532 -297 547 -282 l 547 -147 b 513 -112 547 -128 532 -112 l 496 -112 l 496 686 b 461 721 496 706 481 721 l 353 721 b 318 686 333 721 318 706 z "},"r":{"ha":464,"x_min":0,"x_max":0,"o":"m 64 186 l 49 186 b 14 151 29 186 14 171 l 14 35 b 49 0 14 15 29 0 l 208 0 b 243 35 228 0 243 15 l 243 535 l 319 535 l 319 449 b 354 414 319 429 335 414 l 419 414 b 454 449 439 414 454 429 l 454 596 b 354 721 454 676 432 721 l 338 721 b 297 700 321 721 307 714 b 243 625 279 675 257 646 l 243 686 b 208 721 243 706 228 721 l 99 721 b 64 686 79 721 64 706 z "},"s":{"ha":508,"x_min":0,"x_max":0,"o":"m 156 721 b 33 550 58 721 33 682 l 33 374 b 57 340 33 358 43 346 l 301 260 l 301 163 l 206 163 l 206 169 b 171 204 206 189 190 204 l 68 204 b 33 169 49 204 33 189 l 33 35 b 68 0 33 15 49 0 l 364 0 b 476 168 442 0 476 26 l 476 364 b 453 397 476 379 467 392 l 206 479 l 206 557 l 307 557 b 342 522 307 538 322 522 l 432 522 b 467 557 451 522 467 538 l 467 686 b 432 721 467 706 451 721 z "},"t":{"ha":325,"x_min":0,"x_max":0,"o":"m 72 911 l 72 721 l 65 721 b 21 676 40 721 21 701 l 21 579 b 65 535 21 554 40 535 l 72 535 l 72 44 b 117 0 72 19 92 0 l 256 0 b 300 44 281 0 300 19 l 300 142 b 256 186 300 167 281 186 l 247 186 l 247 535 l 256 535 b 300 579 281 535 300 554 l 300 676 b 256 721 300 701 281 721 l 247 721 l 247 911 b 203 956 247 936 228 956 l 117 956 b 72 911 92 956 72 936 z "},"u":{"ha":579,"x_min":0,"x_max":0,"o":"m 521 0 b 571 50 549 0 571 22 l 571 136 b 519 186 571 164 547 186 l 519 676 b 475 721 519 701 500 721 l 386 721 b 342 676 361 721 342 701 l 342 186 l 238 186 l 238 676 b 193 721 238 701 218 721 l 108 721 b 64 676 83 721 64 701 l 64 168 b 194 0 64 71 99 0 l 225 0 b 265 21 242 0 256 7 l 342 124 l 342 44 b 386 0 342 19 361 0 z "},"v":{"ha":508,"x_min":0,"x_max":0,"o":"m 33 669 l 131 38 b 174 0 133 15 151 0 l 344 0 b 389 38 367 0 385 15 l 482 669 b 439 721 486 697 465 721 l 361 721 b 317 682 339 721 319 704 l 286 415 b 267 183 275 315 272 285 l 253 183 b 235 419 249 285 246 317 l 203 682 b 158 721 200 704 182 721 l 78 721 b 33 669 50 721 29 697 z "},"w":{"ha":786,"x_min":0,"x_max":0,"o":"m 238 231 l 222 231 b 211 413 218 314 215 347 l 190 679 b 146 721 189 703 169 721 l 68 721 b 24 671 42 721 21 697 l 100 39 b 143 0 101 17 121 0 l 276 0 b 319 38 299 0 315 15 l 375 358 l 390 358 l 449 36 b 493 0 453 15 471 0 l 624 0 b 667 39 646 0 664 17 l 728 535 l 731 535 b 775 579 756 535 775 554 l 775 676 b 731 721 775 701 756 721 l 622 721 b 578 679 599 721 579 703 b 553 353 556 385 554 365 b 546 240 550 315 549 292 l 532 240 b 508 431 524 335 521 353 l 468 683 b 425 721 465 706 446 721 l 344 721 b 301 683 322 721 304 704 b 253 374 285 579 268 478 b 238 231 246 326 240 278 z "},"x":{"ha":518,"x_min":0,"x_max":0,"o":"m 311 674 b 265 533 279 589 275 574 l 251 533 b 229 610 243 574 239 583 l 196 693 b 154 721 189 710 174 721 l 60 721 b 19 658 28 721 6 688 l 154 364 l 74 186 l 67 186 b 22 142 42 186 22 167 l 22 44 b 67 0 22 19 42 0 l 158 0 b 199 28 176 0 192 10 b 260 203 233 114 244 143 b 290 106 278 138 281 132 l 318 29 b 360 0 325 11 342 0 l 450 0 b 494 44 475 0 494 19 l 494 142 b 450 186 494 167 479 186 l 447 186 l 363 364 l 503 657 b 463 721 517 686 496 721 l 360 721 b 318 692 342 721 325 710 z "},"y":{"ha":469,"x_min":0,"x_max":0,"o":"m 11 663 l 147 -17 l 126 -108 l 126 -108 b 78 -157 100 -108 78 -131 l 78 -242 b 126 -290 78 -268 100 -290 l 225 -290 b 272 -251 249 -290 268 -274 l 451 663 b 404 721 457 693 435 721 l 328 721 b 281 678 304 721 283 703 b 236 278 246 400 243 372 l 221 278 b 178 678 213 414 197 531 b 129 721 175 703 154 721 l 58 721 b 11 663 28 721 4 693 z "},"z":{"ha":508,"x_min":0,"x_max":0,"o":"m 28 672 l 28 546 b 76 497 28 519 50 497 l 110 497 b 158 546 136 497 158 519 l 158 558 l 288 558 l 19 171 l 19 50 b 69 0 19 22 42 0 l 433 0 b 482 49 460 0 482 22 l 482 181 b 433 229 482 207 460 229 l 399 229 b 350 181 372 229 350 207 l 350 165 l 217 165 l 482 554 l 482 671 b 432 721 482 699 460 721 b 76 721 388 721 76 721 b 28 672 50 721 28 699 z "},"{":{"ha":503,"x_min":0,"x_max":0,"o":"m 446 1110 b 396 1160 446 1138 424 1160 l 389 1160 b 257 1129 326 1160 283 1150 b 203 1033 232 1110 214 1076 b 185 822 190 989 185 918 l 185 785 b 122 571 185 654 174 592 b 83 517 99 561 83 542 l 83 374 b 122 319 83 349 97 328 b 185 111 172 300 185 240 l 185 42 b 204 -156 185 -50 190 -115 b 396 -268 226 -233 282 -268 b 446 -218 424 -268 446 -246 l 446 -44 b 367 -11 407 -43 379 -31 b 347 147 356 10 347 65 b 329 342 347 232 342 297 b 244 446 321 381 292 417 b 331 543 292 471 321 504 b 347 728 340 586 346 647 b 365 896 349 815 356 868 b 440 938 376 924 403 938 l 446 938 l 446 1110 z "},"|":{"ha":318,"x_min":0,"x_max":0,"o":"m 88 1156 l 88 -265 l 231 -265 l 231 1156 z "},"}":{"ha":503,"x_min":0,"x_max":0,"o":"m 83 1110 l 83 938 l 89 938 b 164 896 126 938 153 924 b 182 728 174 868 181 815 b 199 543 183 647 189 586 b 285 446 208 504 238 471 b 200 342 238 417 208 381 b 182 147 188 297 182 232 b 163 -11 182 65 174 10 b 83 -44 150 -31 122 -43 l 83 -218 b 133 -268 83 -246 106 -268 b 325 -156 247 -268 303 -233 b 344 42 339 -115 344 -50 l 344 111 b 407 319 344 240 357 300 b 446 374 432 328 446 349 l 446 517 b 407 571 446 542 431 561 b 344 785 356 592 344 654 l 344 822 b 326 1033 344 918 339 989 b 272 1129 315 1076 297 1110 b 140 1160 246 1150 203 1160 l 133 1160 b 83 1110 106 1160 83 1138 z "},"~":{"ha":810,"x_min":0,"x_max":0,"o":"m 639 565 b 531 478 611 519 576 478 b 404 538 531 478 492 478 b 288 585 358 567 328 585 b 132 453 200 585 150 489 b 181 332 150 410 163 376 b 290 429 221 397 247 429 b 382 392 322 429 349 414 b 526 322 457 342 490 322 b 685 442 603 322 657 403 z "},"¡":{"ha":347,"x_min":0,"x_max":0,"o":"m 90 974 b 199 865 90 914 139 865 b 307 974 258 865 307 914 b 199 1082 307 1033 258 1082 b 90 974 139 1082 90 1033 z m 83 231 b 75 133 79 203 75 158 b 197 -4 75 53 125 -4 b 318 133 268 -4 318 53 b 311 231 318 160 315 206 l 233 810 l 161 810 z "},"£":{"ha":694,"x_min":0,"x_max":0,"o":"m 661 868 b 492 1086 660 990 601 1086 l 282 1086 b 118 844 133 1086 118 961 l 118 611 l 74 611 b 24 561 46 611 24 589 l 24 471 b 74 421 24 443 46 421 l 118 421 l 118 383 b 24 233 118 282 93 250 l 24 50 b 74 0 24 22 46 0 l 626 0 b 676 50 654 0 676 22 l 676 286 b 626 336 676 314 654 336 l 538 336 b 488 286 510 336 488 314 l 488 218 l 249 218 b 319 386 303 258 319 297 l 319 421 l 431 421 b 481 471 458 421 481 443 l 481 561 b 431 611 481 589 458 611 l 319 611 l 319 869 l 474 869 l 474 806 b 524 756 474 778 496 756 l 611 756 b 661 806 639 756 661 778 z "},"⁄":{"ha":111,"x_min":0,"x_max":0,"o":"m 308 1063 b 303 1081 313 1072 311 1081 l 214 1081 b 200 1067 208 1081 203 1075 l 200 1068 b -171 18 79 717 -50 371 b -167 0 -174 10 -172 0 l -75 0 b -62 13 -69 0 -65 6 z "},"¥":{"ha":603,"x_min":0,"x_max":0,"o":"m 172 1086 l 49 1086 b 11 1035 22 1086 3 1060 l 133 660 l 96 660 b 57 621 74 660 57 642 l 57 574 b 96 535 57 551 74 535 l 172 535 l 193 421 l 124 421 b 85 382 101 421 85 403 l 85 335 b 124 296 85 313 101 296 l 207 296 l 207 164 l 188 164 b 149 125 165 164 149 146 l 149 39 b 188 0 149 17 165 0 l 418 0 b 457 39 439 0 457 17 l 457 125 b 418 164 457 146 439 164 l 399 164 l 399 296 l 483 296 b 522 335 504 296 522 313 l 522 382 b 483 421 522 403 504 421 l 410 421 l 424 535 l 513 535 b 551 574 533 535 551 551 l 551 621 b 513 660 551 642 533 660 l 469 660 l 592 1035 b 556 1086 600 1060 582 1086 l 440 1086 b 401 1056 421 1086 406 1074 l 331 753 b 315 651 325 726 318 689 b 313 621 315 640 314 629 l 299 621 b 296 651 299 626 297 639 b 282 751 292 689 289 717 l 211 1056 b 172 1086 207 1074 190 1086 z "},"ƒ":{"ha":417,"x_min":0,"x_max":0,"o":"m 319 901 l 356 901 b 406 946 382 901 403 921 l 414 1031 b 364 1086 417 1061 393 1086 l 278 1086 b 147 931 196 1086 160 1049 b 126 721 140 864 132 788 l 99 721 b 49 675 72 721 51 701 l 40 589 b 90 535 38 560 61 535 l 110 535 l 57 -58 l 17 -58 b -32 -103 -8 -58 -31 -78 l -39 -189 b 11 -243 -40 -218 -18 -243 l 97 -243 b 229 -87 179 -237 214 -203 l 285 535 l 317 535 b 367 579 342 535 364 554 l 375 665 l 375 671 b 325 721 375 700 351 721 l 304 721 z "},"§":{"ha":556,"x_min":0,"x_max":0,"o":"m 368 511 l 368 293 l 242 293 b 192 343 214 293 192 315 l 192 561 l 318 561 b 368 511 346 561 368 539 z m 496 953 b 407 1086 494 1025 479 1086 l 165 1086 b 64 931 79 1086 64 1032 l 64 794 b 140 661 64 704 82 676 l 140 650 b 49 518 64 639 49 599 l 49 249 b 154 118 49 172 79 122 l 365 118 l 365 -22 b 315 -72 365 -50 343 -72 l 204 -72 l 204 -28 b 165 11 204 -7 186 11 l 103 11 b 64 -28 81 11 64 -7 l 64 -115 b 150 -242 64 -207 83 -242 l 414 -242 b 503 -99 485 -242 503 -207 l 503 60 b 431 189 503 140 486 172 l 431 200 b 510 331 501 214 510 265 l 510 586 b 406 732 510 668 489 732 l 204 732 l 204 868 b 254 918 204 896 226 918 l 354 918 l 354 881 b 393 842 354 858 371 842 l 457 842 b 496 881 478 842 496 858 l 496 953 z "},"¤":{"ha":926,"x_min":0,"x_max":0,"o":"m 706 471 b 463 225 704 326 597 225 b 219 469 335 225 219 325 b 464 717 219 624 336 717 b 706 471 585 717 707 622 z m 847 833 l 826 854 b 740 854 803 878 764 878 l 675 790 b 467 856 617 825 568 856 b 250 790 360 856 308 825 l 186 853 b 99 853 161 878 122 878 l 79 835 b 79 747 56 810 56 771 l 143 683 b 78 472 107 624 78 576 b 144 258 78 365 107 318 l 78 193 b 78 106 54 169 53 129 l 97 86 b 185 86 121 61 160 61 l 250 151 b 464 86 286 128 350 86 b 674 150 567 86 617 117 l 739 83 b 826 83 763 60 801 60 l 846 103 b 846 190 871 126 871 167 l 781 257 b 847 475 808 300 847 357 b 782 683 847 576 817 626 l 847 746 b 847 833 871 769 872 810 z "},"'":{"ha":289,"x_min":0,"x_max":0,"o":"m 176 582 l 224 1081 l 67 1081 l 113 582 z "},"“":{"ha":472,"x_min":0,"x_max":0,"o":"m 17 846 b 121 715 17 772 58 715 b 215 818 176 715 215 767 b 139 907 215 879 179 907 b 124 903 132 907 128 903 b 117 926 118 903 117 910 b 203 1053 117 997 154 1021 b 196 1075 207 1054 201 1069 b 175 1089 190 1082 179 1090 b 17 846 79 1035 17 953 z m 267 846 b 371 715 267 772 308 715 b 465 818 426 715 465 767 b 389 907 465 879 429 907 b 374 903 382 907 378 903 b 367 926 368 903 367 910 b 453 1053 367 997 404 1021 b 446 1075 457 1054 451 1069 b 425 1089 440 1082 429 1090 b 267 846 329 1035 267 953 z "},"«":{"ha":463,"x_min":0,"x_max":0,"o":"m 150 332 l 238 504 b 204 542 257 522 218 550 l 31 354 b 19 332 24 347 19 339 l 19 331 b 31 308 19 324 24 317 l 204 121 b 238 160 218 115 257 139 l 150 332 z m 333 332 l 421 504 b 388 542 440 522 401 550 l 214 354 b 203 332 207 347 203 339 l 203 331 b 214 308 203 324 207 317 l 388 121 b 421 160 401 115 440 139 l 333 332 z "},"‹":{"ha":289,"x_min":0,"x_max":0,"o":"m 150 332 l 238 504 b 204 542 257 522 218 550 l 31 354 b 19 332 24 347 19 339 l 19 331 b 31 308 19 324 24 317 l 204 121 b 238 160 218 115 257 139 l 150 332 z "},"›":{"ha":289,"x_min":0,"x_max":0,"o":"m 140 332 l 53 160 b 86 121 33 139 72 115 l 260 308 b 271 331 267 317 271 324 l 271 332 b 260 354 271 339 267 347 l 86 542 b 53 504 72 550 33 522 l 140 332 z "},"–":{"ha":810,"x_min":0,"x_max":0,"o":"m 35 410 l 35 272 l 774 272 l 774 410 z "},"†":{"ha":625,"x_min":0,"x_max":0,"o":"m 172 740 l 79 740 b 29 690 51 740 29 718 l 29 578 b 79 528 29 550 51 528 l 172 528 b 222 478 200 528 222 506 l 222 -242 b 272 -292 222 -269 244 -292 l 356 -292 b 406 -242 383 -292 406 -269 l 406 478 b 456 528 406 506 428 528 l 549 528 b 599 578 576 528 599 550 l 599 690 b 549 740 599 718 576 740 l 456 740 b 406 790 428 740 406 763 l 406 1036 b 356 1086 406 1064 383 1086 l 272 1086 b 222 1036 244 1086 222 1064 l 222 790 b 172 740 222 763 200 740 z "},"‡":{"ha":625,"x_min":0,"x_max":0,"o":"m 222 1036 l 222 853 b 172 803 222 825 200 803 l 79 803 b 29 753 51 803 29 781 l 29 647 b 79 597 29 619 51 597 l 172 597 b 222 547 200 597 222 575 l 222 332 b 172 282 222 304 200 282 l 78 282 b 28 232 50 282 28 260 l 28 128 b 78 78 28 100 50 78 l 172 78 b 222 28 200 78 222 56 l 222 -244 b 272 -294 222 -272 244 -294 l 356 -294 b 406 -244 383 -294 406 -272 l 406 28 b 456 78 406 56 428 78 l 549 78 b 599 128 576 78 599 100 l 599 232 b 549 282 599 260 576 282 l 456 282 b 406 332 428 282 406 304 l 406 547 b 456 597 406 575 428 597 l 549 597 b 599 647 576 597 599 619 l 599 753 b 549 803 599 781 576 803 l 456 803 b 406 853 428 803 406 825 l 406 1036 b 356 1086 406 1064 383 1086 l 272 1086 b 222 1036 244 1086 222 1064 z "},"·":{"ha":289,"x_min":0,"x_max":0,"o":"m 39 340 b 146 233 39 281 86 233 b 251 340 204 233 251 281 b 146 446 251 399 204 446 b 39 340 86 446 39 399 z "},"¶":{"ha":742,"x_min":0,"x_max":0,"o":"m 346 1086 b 100 769 161 1075 100 918 b 276 475 100 638 147 513 l 276 -260 l 343 -260 l 343 994 l 504 994 l 504 -260 l 571 -260 l 571 994 b 610 1033 571 1015 610 1011 l 610 1047 b 571 1086 610 1068 592 1086 z "},"•":{"ha":463,"x_min":0,"x_max":0,"o":"m 33 490 b 232 292 33 381 122 292 b 429 490 340 292 429 381 b 232 688 429 599 340 688 b 33 490 122 688 33 599 z "},"‚":{"ha":231,"x_min":0,"x_max":0,"o":"m 213 69 b 108 200 213 143 171 200 b 14 97 53 200 14 149 b 90 8 14 36 50 8 b 106 13 97 8 101 13 b 113 -11 111 13 113 6 b 26 -137 113 -82 75 -106 b 33 -160 22 -139 28 -154 b 54 -174 39 -167 50 -175 b 213 69 150 -119 213 -37 z "},"„":{"ha":463,"x_min":0,"x_max":0,"o":"m 213 69 b 108 200 213 143 171 200 b 14 97 53 200 14 149 b 90 8 14 36 50 8 b 106 13 97 8 101 13 b 113 -11 111 13 113 6 b 26 -137 113 -82 75 -106 b 33 -160 22 -139 28 -154 b 54 -174 39 -167 50 -175 b 213 69 150 -119 213 -37 z m 447 69 b 343 200 447 143 406 200 b 249 97 288 200 249 149 b 325 8 249 36 285 8 b 340 13 332 8 336 13 b 347 -11 346 13 347 6 b 261 -137 347 -82 310 -106 b 268 -160 257 -139 263 -154 b 289 -174 274 -167 285 -175 b 447 69 385 -119 447 -37 z "},"”":{"ha":463,"x_min":0,"x_max":0,"o":"m 229 960 b 125 1090 229 1033 188 1090 b 31 988 69 1090 31 1039 b 107 899 31 926 67 899 b 122 903 114 899 118 903 b 129 879 128 903 129 896 b 43 753 129 808 92 785 b 50 731 39 751 44 736 b 71 717 56 724 67 715 b 229 960 167 771 229 853 z m 463 960 b 358 1090 463 1033 421 1090 b 264 988 303 1090 264 1039 b 340 899 264 926 300 899 b 356 903 347 899 351 903 b 363 879 361 903 363 896 b 276 753 363 808 325 785 b 283 731 272 751 278 736 b 304 717 289 724 300 715 b 463 960 400 771 463 853 z "},"»":{"ha":463,"x_min":0,"x_max":0,"o":"m 297 332 l 210 160 b 243 121 190 139 229 115 l 417 308 b 428 331 424 317 428 324 l 428 332 b 417 354 428 339 424 347 l 243 542 b 210 504 229 550 190 522 z m 114 332 l 26 160 b 60 121 7 139 46 115 l 233 308 b 244 331 240 317 244 324 l 244 332 b 233 354 244 339 240 347 l 60 542 b 26 504 46 550 7 522 z "},"…":{"ha":1389,"x_min":0,"x_max":0,"o":"m 119 103 b 231 -8 119 42 169 -8 b 342 103 292 -8 342 42 b 231 214 342 164 292 214 b 119 103 169 214 119 164 z m 583 103 b 694 -8 583 42 633 -8 b 806 103 756 -8 806 42 b 694 214 806 164 756 214 b 583 103 633 214 583 164 z m 1047 103 b 1158 -8 1047 42 1097 -8 b 1269 103 1219 -8 1269 42 b 1158 214 1269 164 1219 214 b 1047 103 1097 214 1047 164 z "},"¿":{"ha":557,"x_min":0,"x_max":0,"o":"m 269 738 b 125 451 254 610 233 556 b -72 67 -7 325 -72 192 b 256 -264 -72 -125 65 -264 b 550 19 425 -264 550 -142 b 386 211 550 133 485 211 b 392 -39 386 211 390 -37 b 296 -128 378 -97 342 -128 b 176 90 221 -128 176 -47 b 283 351 176 171 224 253 b 396 738 369 496 390 579 z m 458 960 b 325 1093 458 1033 399 1093 b 190 960 250 1093 190 1033 b 325 825 190 885 250 825 b 458 960 399 825 458 885 z "},"`":{"ha":376,"x_min":0,"x_max":0,"o":"m 272 789 l 154 944 b 135 954 150 951 143 954 l -18 954 b -26 938 -29 954 -32 944 l 139 785 b 161 775 146 778 153 775 l 267 775 b 272 789 275 775 278 782 z "},"´":{"ha":376,"x_min":0,"x_max":0,"o":"m 107 789 b 113 775 101 782 104 775 l 218 775 b 240 785 226 775 233 778 l 406 938 b 397 954 411 944 408 954 l 244 954 b 225 944 236 954 229 951 z "},"ˆ":{"ha":301,"x_min":0,"x_max":0,"o":"m -67 775 l 38 775 l 151 885 l 264 775 l 368 775 l 238 981 l 64 981 z "},"˜":{"ha":301,"x_min":0,"x_max":0,"o":"m 236 922 b 203 878 233 901 225 878 b 74 922 165 878 111 922 b -19 775 -10 922 -18 828 l 69 775 b 104 815 71 792 75 815 b 225 769 146 815 189 769 b 324 922 308 769 319 858 z "},"¯":{"ha":376,"x_min":0,"x_max":0,"o":"m 410 825 l 410 832 b 360 882 410 860 388 882 l 18 882 b -32 832 -10 882 -32 860 l -32 825 b 18 775 -32 797 -10 775 l 360 775 b 410 825 388 775 410 797 z "},"˘":{"ha":301,"x_min":0,"x_max":0,"o":"m -67 964 b 147 771 -53 832 15 771 b 361 964 281 771 346 831 l 271 964 b 147 881 264 913 229 881 b 24 964 72 881 33 906 z "},"˙":{"ha":376,"x_min":0,"x_max":0,"o":"m 119 789 b 188 761 138 771 163 761 b 283 857 240 761 283 804 b 188 953 283 910 240 953 b 92 857 135 953 92 910 b 119 789 92 832 101 807 z "},"¨":{"ha":376,"x_min":0,"x_max":0,"o":"m -37 867 b 58 771 -37 814 6 771 b 154 867 111 771 154 814 b 58 963 154 919 111 963 b -37 867 6 963 -37 919 z m 224 867 b 319 771 224 814 267 771 b 415 867 372 771 415 814 b 319 963 415 919 372 963 b 224 867 267 963 224 919 z "},"˚":{"ha":376,"x_min":0,"x_max":0,"o":"m 100 806 b 188 769 124 783 156 769 b 311 893 254 769 311 825 b 188 1017 311 961 256 1017 b 64 893 118 1017 64 960 b 100 806 64 861 78 829 z m 151 857 b 136 893 142 865 136 879 b 188 944 136 921 160 944 b 239 893 215 944 239 921 b 188 842 239 864 215 842 b 151 857 174 842 161 847 z "},"¸":{"ha":376,"x_min":0,"x_max":0,"o":"m 201 24 l 106 24 l 106 -104 b 132 -101 115 -101 128 -101 b 192 -162 174 -101 192 -119 b 158 -208 192 -193 181 -208 b 121 -164 135 -208 124 -194 l 40 -164 b 153 -267 43 -236 78 -267 b 303 -147 229 -267 303 -222 b 201 -51 303 -81 272 -51 z "},"˝":{"ha":301,"x_min":0,"x_max":0,"o":"m 75 950 l -46 775 l 38 775 l 203 950 z m 251 950 l 131 775 l 214 775 l 378 950 z "},"˛":{"ha":301,"x_min":0,"x_max":0,"o":"m 153 7 b 113 -110 122 -46 113 -72 b 328 -279 113 -243 218 -294 l 328 -182 b 210 -85 257 -201 210 -156 b 239 7 210 -51 217 -29 z "},"ˇ":{"ha":376,"x_min":0,"x_max":0,"o":"m 188 878 l 117 982 l -12 982 l 114 775 l 265 775 l 389 982 l 258 982 z "},"—":{"ha":926,"x_min":0,"x_max":0,"o":"m 35 272 l 889 272 l 889 410 l 35 410 z "},"Ø":{"ha":625,"x_min":0,"x_max":0,"o":"m 229 1081 b 47 789 47 1075 47 924 l 47 257 b 90 61 47 171 57 104 b 76 18 86 46 81 32 b 81 0 74 10 75 0 l 172 0 b 182 7 176 0 179 3 b 249 0 201 3 224 0 l 392 0 b 583 307 583 0 583 167 l 583 771 b 540 1019 583 882 579 967 l 556 1063 b 550 1081 560 1072 558 1081 l 461 1081 b 450 1074 457 1081 453 1078 b 383 1081 431 1078 408 1081 z m 250 510 l 250 864 l 376 864 z m 382 217 l 257 217 l 382 571 z "},"ı":{"ha":301,"x_min":0,"x_max":0,"o":"m 65 186 b 14 138 36 186 14 164 l 14 49 b 63 0 14 22 36 0 l 243 0 b 292 49 269 0 292 22 l 292 138 b 240 186 292 164 267 186 l 240 672 b 192 721 240 699 218 721 l 114 721 b 65 672 88 721 65 699 z "},"ß":{"ha":532,"x_min":0,"x_max":0,"o":"m 338 654 l 236 654 l 236 888 l 338 888 z m 67 49 b 115 0 67 22 89 0 l 188 0 b 236 49 214 0 236 22 l 236 481 l 338 481 l 338 181 b 289 132 311 181 289 158 l 289 47 b 338 -1 289 21 311 -1 l 401 -1 b 510 131 489 -1 510 40 l 510 399 b 478 535 510 426 510 497 b 408 568 457 561 432 565 l 408 579 b 510 760 490 600 510 639 l 510 939 b 419 1081 510 1011 496 1081 l 67 1081 z "},"¦":{"ha":318,"x_min":0,"x_max":0,"o":"m 88 1093 l 88 619 b 149 558 88 586 115 558 l 168 558 b 231 619 203 558 231 586 l 231 1093 b 168 1156 231 1128 203 1156 l 149 1156 b 88 1093 115 1156 88 1128 z m 88 256 l 88 -204 b 149 -265 88 -237 115 -265 l 168 -265 b 231 -204 203 -265 231 -237 l 231 256 b 168 318 231 290 203 318 l 149 318 b 88 256 115 318 88 290 z "},"×":{"ha":926,"x_min":0,"x_max":0,"o":"m 797 174 l 565 406 l 797 638 b 797 707 817 657 817 688 l 765 740 b 694 740 746 760 714 760 l 463 508 l 233 739 b 163 740 214 760 182 760 l 129 707 b 129 638 110 688 110 657 l 360 406 l 129 174 b 129 104 110 154 110 124 l 163 72 b 233 72 182 51 214 53 l 463 303 l 694 71 b 765 71 714 51 746 51 l 797 104 b 797 174 817 124 817 154 z "},"µ":{"ha":579,"x_min":0,"x_max":0,"o":"m 103 -300 l 199 -300 b 238 -261 219 -300 238 -283 l 238 -3 l 342 124 l 342 39 b 381 0 342 17 358 0 l 525 0 b 564 39 546 0 564 17 l 564 147 b 525 186 564 168 546 186 l 519 186 l 519 682 b 481 721 519 703 501 721 l 381 721 b 342 682 358 721 342 703 l 342 186 l 238 186 l 238 682 b 199 721 238 703 219 721 l 103 721 b 64 682 81 721 64 703 l 64 -261 b 103 -300 64 -283 81 -300 z "},"þ":{"ha":556,"x_min":0,"x_max":0,"o":"m 339 535 l 339 186 l 243 186 l 243 535 z m 64 -114 l 63 -114 b 14 -162 36 -114 14 -136 l 14 -251 b 63 -300 14 -278 36 -300 l 243 -300 b 292 -251 269 -300 292 -278 l 292 -162 b 243 -114 292 -136 269 -114 l 243 -114 l 243 100 l 306 18 b 344 0 315 7 329 0 l 425 0 b 515 154 503 0 515 100 l 515 572 b 413 722 515 643 500 722 l 356 722 b 317 704 340 722 326 715 l 243 613 l 243 1038 b 194 1086 243 1064 221 1086 l 113 1086 b 64 1038 86 1086 64 1064 z "},"ð":{"ha":532,"x_min":0,"x_max":0,"o":"m 317 185 l 219 185 l 219 543 l 317 543 z m 289 1086 l 243 1086 b 192 1032 200 1086 181 1058 l 225 944 l 164 944 b 118 876 129 944 104 908 l 122 865 b 168 833 129 846 147 833 l 267 833 l 310 722 l 165 722 b 79 681 143 722 106 717 b 46 560 49 642 46 586 l 46 158 b 158 0 46 88 75 0 l 372 0 b 492 179 467 7 488 103 l 492 535 b 432 808 492 640 475 692 l 422 833 l 507 833 l 476 913 b 429 944 468 932 450 944 l 379 944 l 335 1054 b 289 1086 326 1074 313 1086 z "},"¬":{"ha":926,"x_min":0,"x_max":0,"o":"m 822 0 l 888 0 b 926 39 908 0 926 17 l 926 429 b 876 479 926 457 904 479 l 39 479 b 0 440 17 479 0 461 l 0 375 b 39 336 0 353 17 336 l 783 336 l 783 39 b 822 0 783 17 800 0 z "},"Þ":{"ha":625,"x_min":0,"x_max":0,"o":"m 444 710 l 444 458 l 275 458 l 275 710 l 444 710 z m 113 0 l 275 0 b 314 39 296 0 314 17 l 314 178 b 275 217 314 199 275 194 l 275 289 l 424 289 b 590 364 481 289 556 289 b 613 503 613 406 613 458 l 613 690 b 553 851 611 743 606 813 b 408 881 515 878 461 879 l 275 881 l 275 938 b 314 976 275 958 314 954 l 314 1115 b 275 1154 314 1136 296 1154 l 113 1154 b 74 1115 90 1154 74 1136 l 74 39 b 113 0 74 17 90 0 z "},"°":{"ha":492,"x_min":0,"x_max":0,"o":"m 7 810 b 246 571 7 678 114 571 b 485 810 378 571 485 678 b 246 1049 485 942 378 1049 b 7 810 114 1049 7 942 z m 147 810 b 246 908 147 864 192 908 b 344 810 300 908 344 864 b 246 711 344 756 300 711 b 147 810 192 711 147 756 z "},"−":{"ha":926,"x_min":0,"x_max":0,"o":"m 926 479 l 0 479 l 0 336 l 926 336 z "},"®":{"ha":1157,"x_min":0,"x_max":0,"o":"m 1074 489 b 578 985 1075 758 864 985 b 83 490 311 985 83 775 b 576 -4 83 197 319 -4 b 1074 489 857 -4 1072 214 z m 1029 489 b 578 40 1028 239 832 40 b 128 490 331 40 128 238 b 581 940 128 738 326 940 b 1029 489 838 940 1031 735 z m 626 717 l 626 564 l 536 564 l 536 717 z m 400 283 b 367 250 381 283 367 269 l 367 172 b 400 139 367 154 381 139 l 494 139 b 536 179 518 139 536 157 l 536 436 l 626 436 l 626 210 b 699 139 626 146 647 139 l 761 139 b 794 172 779 139 794 154 l 794 250 b 761 283 794 269 778 283 l 761 365 b 679 501 761 432 744 478 b 761 696 761 539 761 603 b 638 861 761 790 738 861 l 433 861 b 400 828 414 861 400 846 z "},"©":{"ha":1157,"x_min":0,"x_max":0,"o":"m 1074 488 b 581 985 1074 768 857 985 b 85 489 306 985 85 769 b 578 -4 85 197 321 -4 b 1074 488 863 -4 1074 219 z m 1029 488 b 581 40 1026 222 817 40 b 129 488 324 40 129 246 b 581 940 129 742 331 940 b 1029 488 843 940 1031 729 z m 788 683 b 661 846 788 774 753 846 l 500 846 b 374 599 379 846 374 778 l 374 300 b 511 125 374 206 393 125 l 669 125 b 788 299 772 125 788 176 l 788 317 b 744 360 788 340 768 360 l 678 360 b 635 317 654 360 635 340 l 635 311 l 550 311 l 550 658 l 635 658 l 635 653 b 678 610 635 629 654 610 l 744 610 b 788 653 768 610 788 629 z "},"±":{"ha":926,"x_min":0,"x_max":0,"o":"m 536 519 l 868 519 l 868 663 l 536 663 l 536 975 l 393 975 l 393 663 l 57 663 l 57 519 l 393 519 l 393 206 l 536 206 z m 868 143 l 57 143 l 57 0 l 868 0 z "},"÷":{"ha":926,"x_min":0,"x_max":0,"o":"m 926 506 l 0 506 l 0 329 l 926 329 z m 351 672 b 464 560 351 610 401 560 b 575 672 525 560 575 610 b 464 783 575 733 525 783 b 351 672 401 783 351 733 z m 351 168 b 464 57 351 107 401 57 b 575 168 525 57 575 107 b 464 281 575 229 525 281 b 351 168 401 281 351 229 z "},"#":{"ha":742,"x_min":0,"x_max":0,"o":"m 732 728 b 721 781 732 750 728 781 l 571 781 l 632 1082 b 558 1082 633 1101 572 1104 l 496 781 l 353 781 l 415 1082 b 343 1082 413 1101 354 1104 l 278 781 l 124 781 b 118 675 104 774 101 681 l 258 675 l 201 400 l 46 400 b 40 294 26 394 22 299 l 181 294 l 122 4 b 194 4 117 -17 188 -18 l 253 294 l 397 294 l 339 4 b 371 -11 338 -8 356 -11 b 413 4 386 -11 411 -8 l 471 294 l 639 294 b 642 400 654 297 660 392 l 493 400 l 550 675 l 715 675 b 732 728 722 675 732 700 z m 419 400 l 275 400 l 333 675 l 475 675 z "},"€":{"ha":603,"x_min":0,"x_max":0,"o":"m 44 586 l 72 586 l 72 494 l 19 494 b -31 443 -8 494 -31 472 l -31 425 b 19 374 -31 396 -8 374 l 72 374 l 72 243 b 265 0 72 115 103 0 l 522 0 b 583 61 556 0 583 28 l 583 126 b 522 189 583 161 556 189 l 286 189 b 271 203 278 189 271 196 l 271 374 l 424 374 b 474 425 451 374 474 396 l 474 443 b 424 494 474 472 451 494 l 271 494 l 271 586 l 458 586 b 508 638 486 586 508 608 l 508 656 b 458 707 508 685 486 707 l 271 707 l 271 876 b 286 892 271 885 278 892 l 514 892 b 575 953 547 892 575 919 l 575 1018 b 514 1081 575 1053 547 1081 l 271 1081 b 72 821 110 1081 72 994 l 72 707 l 44 707 b -6 656 17 707 -6 685 l -6 638 b 44 586 -6 608 17 586 z "},"Æ":{"ha":950,"x_min":0,"x_max":0,"o":"m 64 217 l 56 217 b 6 167 28 217 6 194 l 6 50 b 56 0 6 22 28 0 l 190 0 b 240 44 217 0 238 19 b 264 265 249 118 257 193 l 411 265 l 435 44 b 483 0 438 19 458 0 l 876 0 b 926 50 904 0 926 22 l 926 307 b 876 357 926 335 904 357 l 797 357 b 747 307 769 357 747 335 l 747 217 l 618 217 l 618 456 l 729 456 b 779 506 757 456 779 478 l 779 596 b 729 646 779 624 757 646 l 618 646 l 618 864 l 747 864 l 747 783 b 797 733 747 756 769 733 l 864 733 b 914 783 892 733 914 756 l 914 1018 b 851 1081 914 1053 886 1081 l 226 1081 b 165 1026 196 1081 169 1057 z m 394 443 l 281 443 l 331 907 l 344 907 z "},"Œ":{"ha":900,"x_min":0,"x_max":0,"o":"m 229 1081 b 47 789 47 1075 47 924 l 47 257 b 249 0 47 92 86 0 l 839 0 b 889 50 867 0 889 22 l 889 307 b 839 357 889 335 867 357 l 760 357 b 710 307 732 357 710 335 l 710 217 l 582 217 b 583 307 583 246 583 278 l 583 456 l 692 456 b 742 506 719 456 742 478 l 742 596 b 692 646 742 624 719 646 l 583 646 l 583 771 b 581 864 583 804 582 835 l 710 864 l 710 783 b 760 733 710 756 732 733 l 826 733 b 876 783 854 733 876 756 l 876 1018 b 814 1081 876 1053 849 1081 z m 382 217 l 250 217 l 250 864 l 382 864 z "},"œ":{"ha":1064,"x_min":0,"x_max":0,"o":"m 169 721 b 43 518 53 721 43 603 l 43 188 b 171 0 43 81 65 0 l 644 0 b 729 36 672 0 703 0 b 756 165 756 74 756 118 l 756 186 b 707 235 756 213 733 235 l 638 235 b 589 186 611 235 589 213 l 589 165 l 490 165 b 492 222 492 185 492 204 l 492 314 l 707 314 b 756 363 733 314 756 336 l 756 553 b 622 721 756 689 724 721 z m 589 442 l 492 442 l 492 519 b 490 557 492 532 492 544 l 589 557 z m 315 539 l 315 186 l 219 186 l 219 539 z "},"æ":{"ha":1088,"x_min":0,"x_max":0,"o":"m 761 553 b 628 721 761 689 729 721 l 164 721 b 47 558 72 721 47 646 l 47 544 b 90 501 47 521 67 501 l 156 501 b 199 544 179 501 199 521 l 199 554 l 321 554 l 321 407 l 139 407 b 32 261 67 407 32 382 l 32 156 b 132 0 32 79 46 0 l 242 0 l 318 94 b 442 0 331 19 369 0 l 650 0 b 735 36 678 0 708 0 b 761 165 761 74 761 118 l 761 186 b 713 235 761 213 739 235 l 643 235 b 594 186 617 235 594 213 l 594 165 l 496 165 l 496 314 l 713 314 b 761 363 739 314 761 336 z m 594 442 l 496 442 l 496 557 l 594 557 z m 321 283 l 321 165 l 199 165 l 199 283 z "},"™":{"ha":665,"x_min":0,"x_max":0,"o":"m 15 1061 l 15 963 b 35 942 15 951 24 942 l 50 942 b 71 963 61 942 71 951 l 71 994 l 107 994 l 107 739 b 86 719 96 739 86 731 l 86 674 b 107 654 86 663 96 654 l 188 654 b 207 674 199 654 207 663 l 207 719 b 188 739 207 731 199 739 l 188 994 l 224 994 l 224 963 b 243 942 224 951 232 942 l 258 942 b 279 963 269 942 279 951 l 279 1061 b 258 1081 279 1072 269 1081 l 35 1081 b 15 1061 24 1081 15 1072 z m 321 1061 l 321 739 b 300 719 308 739 300 731 l 300 674 b 319 654 300 663 308 654 l 375 654 b 394 674 386 654 394 663 l 394 856 b 394 886 394 871 394 874 l 399 888 l 472 707 b 543 885 496 767 519 826 l 549 885 b 547 851 547 871 547 867 l 547 674 b 567 654 547 663 556 654 l 624 654 b 643 674 635 654 643 663 l 643 719 b 624 739 643 731 635 739 l 624 1061 b 603 1081 624 1072 614 1081 l 563 1081 b 544 1068 554 1081 549 1075 b 489 925 526 1021 508 972 b 474 878 483 908 478 894 b 457 925 468 896 464 908 l 400 1068 b 382 1081 397 1075 390 1081 b 342 1081 371 1081 342 1081 b 321 1061 331 1081 321 1072 z "},"š":{"ha":508,"x_min":0,"x_max":0,"o":"m 156 721 b 33 550 58 721 33 682 l 33 374 b 57 340 33 358 43 346 l 301 260 l 301 163 l 206 163 l 206 169 b 171 204 206 189 190 204 l 68 204 b 33 169 49 204 33 189 l 33 35 b 68 0 33 15 49 0 l 364 0 b 476 168 442 0 476 26 l 476 364 b 453 397 476 379 467 392 l 206 479 l 206 557 l 307 557 b 342 522 307 538 322 522 l 432 522 b 467 557 451 522 467 538 l 467 686 b 432 721 467 706 451 721 z m 253 878 l 182 982 l 53 982 l 179 775 l 331 775 l 454 982 l 324 982 z "},"ž":{"ha":508,"x_min":0,"x_max":0,"o":"m 28 672 l 28 546 b 76 497 28 519 50 497 l 110 497 b 158 546 136 497 158 519 l 158 558 l 288 558 l 19 171 l 19 50 b 69 0 19 22 42 0 l 433 0 b 482 49 460 0 482 22 l 482 181 b 433 229 482 207 460 229 l 399 229 b 350 181 372 229 350 207 l 350 165 l 217 165 l 482 554 l 482 671 b 432 721 482 699 460 721 b 76 721 388 721 76 721 b 28 672 50 721 28 699 z m 253 878 l 182 982 l 53 982 l 179 775 l 331 775 l 454 982 l 324 982 z "},"Ÿ":{"ha":603,"x_min":0,"x_max":0,"o":"m 204 440 l 204 217 l 197 217 b 149 168 171 217 149 194 l 149 49 b 197 0 149 22 171 0 l 406 0 b 454 49 433 0 454 22 l 454 168 b 406 217 454 194 433 217 l 400 217 l 400 440 l 596 1017 b 549 1081 606 1047 582 1081 l 444 1081 b 399 1046 424 1081 404 1067 b 311 717 319 771 317 757 b 310 708 311 714 310 710 l 296 708 b 283 783 292 740 290 751 l 214 1044 b 167 1081 208 1067 189 1081 l 56 1081 b 10 1017 22 1081 -1 1047 z m 75 1244 b 171 1149 75 1192 118 1149 b 267 1244 224 1149 267 1192 b 171 1340 267 1297 224 1340 b 75 1244 118 1340 75 1297 z m 336 1244 b 432 1149 336 1192 379 1149 b 528 1244 485 1149 528 1192 b 432 1340 528 1297 485 1340 b 336 1244 379 1340 336 1297 z "},"à":{"ha":556,"x_min":0,"x_max":0,"o":"m 321 283 l 321 165 l 199 165 l 199 283 z m 321 97 l 321 0 l 504 0 b 547 43 528 0 547 19 l 547 143 b 504 186 547 167 528 186 l 496 186 l 496 556 b 376 721 496 635 463 721 l 164 721 b 47 558 72 721 47 646 l 47 544 b 90 501 47 521 67 501 l 156 501 b 199 544 179 501 199 521 l 199 554 l 321 554 l 321 407 l 139 407 b 32 261 67 407 32 382 l 32 156 b 132 0 32 79 46 0 l 203 0 b 242 19 218 0 229 7 z m 385 789 l 267 944 b 247 954 263 951 256 954 l 94 954 b 86 938 83 954 81 944 l 251 785 b 274 775 258 778 265 775 l 379 775 b 385 789 388 775 390 782 z "},"á":{"ha":556,"x_min":0,"x_max":0,"o":"m 321 283 l 321 165 l 199 165 l 199 283 z m 321 97 l 321 0 l 504 0 b 547 43 528 0 547 19 l 547 143 b 504 186 547 167 528 186 l 496 186 l 496 556 b 376 721 496 635 463 721 l 164 721 b 47 558 72 721 47 646 l 47 544 b 90 501 47 521 67 501 l 156 501 b 199 544 179 501 199 521 l 199 554 l 321 554 l 321 407 l 139 407 b 32 261 67 407 32 382 l 32 156 b 132 0 32 79 46 0 l 203 0 b 242 19 218 0 229 7 z m 169 789 b 175 775 164 782 167 775 l 281 775 b 303 785 289 775 296 778 l 468 938 b 460 954 474 944 471 954 l 307 954 b 288 944 299 954 292 951 z "},"â":{"ha":556,"x_min":0,"x_max":0,"o":"m 321 283 l 321 165 l 199 165 l 199 283 z m 321 97 l 321 0 l 504 0 b 547 43 528 0 547 19 l 547 143 b 504 186 547 167 528 186 l 496 186 l 496 556 b 376 721 496 635 463 721 l 164 721 b 47 558 72 721 47 646 l 47 544 b 90 501 47 521 67 501 l 156 501 b 199 544 179 501 199 521 l 199 554 l 321 554 l 321 407 l 139 407 b 32 261 67 407 32 382 l 32 156 b 132 0 32 79 46 0 l 203 0 b 242 19 218 0 229 7 z m 60 775 l 164 775 l 278 885 l 390 775 l 494 775 l 364 981 l 190 981 z "},"ã":{"ha":556,"x_min":0,"x_max":0,"o":"m 321 283 l 321 165 l 199 165 l 199 283 z m 321 97 l 321 0 l 504 0 b 547 43 528 0 547 19 l 547 143 b 504 186 547 167 528 186 l 496 186 l 496 556 b 376 721 496 635 463 721 l 164 721 b 47 558 72 721 47 646 l 47 544 b 90 501 47 521 67 501 l 156 501 b 199 544 179 501 199 521 l 199 554 l 321 554 l 321 407 l 139 407 b 32 261 67 407 32 382 l 32 156 b 132 0 32 79 46 0 l 203 0 b 242 19 218 0 229 7 z m 361 922 b 328 878 358 901 350 878 b 199 922 290 878 236 922 b 106 775 115 922 107 828 l 194 775 b 229 815 196 792 200 815 b 350 769 271 815 314 769 b 449 922 433 769 444 858 z "},"ä":{"ha":556,"x_min":0,"x_max":0,"o":"m 321 283 l 321 165 l 199 165 l 199 283 z m 321 97 l 321 0 l 504 0 b 547 43 528 0 547 19 l 547 143 b 504 186 547 167 528 186 l 496 186 l 496 556 b 376 721 496 635 463 721 l 164 721 b 47 558 72 721 47 646 l 47 544 b 90 501 47 521 67 501 l 156 501 b 199 544 179 501 199 521 l 199 554 l 321 554 l 321 407 l 139 407 b 32 261 67 407 32 382 l 32 156 b 132 0 32 79 46 0 l 203 0 b 242 19 218 0 229 7 z m 51 867 b 147 771 51 814 94 771 b 243 867 200 771 243 814 b 147 963 243 919 200 963 b 51 867 94 963 51 919 z m 313 867 b 408 771 313 814 356 771 b 504 867 461 771 504 814 b 408 963 504 919 461 963 b 313 867 356 963 313 919 z "},"å":{"ha":556,"x_min":0,"x_max":0,"o":"m 321 283 l 321 165 l 199 165 l 199 283 z m 321 97 l 321 0 l 504 0 b 547 43 528 0 547 19 l 547 143 b 504 186 547 167 528 186 l 496 186 l 496 556 b 376 721 496 635 463 721 l 164 721 b 47 558 72 721 47 646 l 47 544 b 90 501 47 521 67 501 l 156 501 b 199 544 179 501 199 521 l 199 554 l 321 554 l 321 407 l 139 407 b 32 261 67 407 32 382 l 32 156 b 132 0 32 79 46 0 l 203 0 b 242 19 218 0 229 7 z m 190 806 b 278 769 214 783 246 769 b 401 893 344 769 401 825 b 278 1017 401 961 346 1017 b 154 893 208 1017 154 960 b 190 806 154 861 168 829 z m 242 857 b 226 893 232 865 226 879 b 278 944 226 921 250 944 b 329 893 306 944 329 921 b 278 842 329 864 306 842 b 242 857 264 842 251 847 z "},"è":{"ha":532,"x_min":0,"x_max":0,"o":"m 324 442 l 225 442 l 225 557 l 324 557 z m 490 553 b 357 721 490 689 458 721 l 160 721 b 44 522 58 721 44 619 l 44 176 b 171 0 44 32 78 0 l 379 0 b 464 36 407 0 438 0 b 490 165 490 74 490 118 l 490 186 b 442 235 490 213 468 235 l 372 235 b 324 186 346 235 324 213 l 324 165 l 225 165 l 225 314 l 442 314 b 490 363 468 314 490 336 z m 374 789 l 256 944 b 236 954 251 951 244 954 l 83 954 b 75 938 72 954 69 944 l 240 785 b 263 775 247 778 254 775 l 368 775 b 374 789 376 775 379 782 z "},"é":{"ha":532,"x_min":0,"x_max":0,"o":"m 324 442 l 225 442 l 225 557 l 324 557 z m 490 553 b 357 721 490 689 458 721 l 160 721 b 44 522 58 721 44 619 l 44 176 b 171 0 44 32 78 0 l 379 0 b 464 36 407 0 438 0 b 490 165 490 74 490 118 l 490 186 b 442 235 490 213 468 235 l 372 235 b 324 186 346 235 324 213 l 324 165 l 225 165 l 225 314 l 442 314 b 490 363 468 314 490 336 z m 158 789 b 164 775 153 782 156 775 l 269 775 b 292 785 278 775 285 778 l 457 938 b 449 954 463 944 460 954 l 296 954 b 276 944 288 954 281 951 z "},"ê":{"ha":532,"x_min":0,"x_max":0,"o":"m 324 442 l 225 442 l 225 557 l 324 557 z m 490 553 b 357 721 490 689 458 721 l 160 721 b 44 522 58 721 44 619 l 44 176 b 171 0 44 32 78 0 l 379 0 b 464 36 407 0 438 0 b 490 165 490 74 490 118 l 490 186 b 442 235 490 213 468 235 l 372 235 b 324 186 346 235 324 213 l 324 165 l 225 165 l 225 314 l 442 314 b 490 363 468 314 490 336 z m 49 775 l 153 775 l 267 885 l 379 775 l 483 775 l 353 981 l 179 981 z "},"ë":{"ha":532,"x_min":0,"x_max":0,"o":"m 324 442 l 225 442 l 225 557 l 324 557 z m 490 553 b 357 721 490 689 458 721 l 160 721 b 44 522 58 721 44 619 l 44 176 b 171 0 44 32 78 0 l 379 0 b 464 36 407 0 438 0 b 490 165 490 74 490 118 l 490 186 b 442 235 490 213 468 235 l 372 235 b 324 186 346 235 324 213 l 324 165 l 225 165 l 225 314 l 442 314 b 490 363 468 314 490 336 z m 39 867 b 135 771 39 814 82 771 b 231 867 188 771 231 814 b 135 963 231 919 188 963 b 39 867 82 963 39 919 z m 300 867 b 396 771 300 814 343 771 b 492 867 449 771 492 814 b 396 963 492 919 449 963 b 300 867 343 963 300 919 z "},"ì":{"ha":301,"x_min":0,"x_max":0,"o":"m 65 186 b 14 138 36 186 14 164 l 14 49 b 63 0 14 22 36 0 l 243 0 b 292 49 269 0 292 22 l 292 138 b 240 186 292 164 267 186 l 240 672 b 192 721 240 699 218 721 l 114 721 b 65 672 88 721 65 699 z m 258 789 l 140 944 b 121 954 136 951 129 954 l -32 954 b -40 938 -43 954 -46 944 l 125 785 b 147 775 132 778 139 775 l 253 775 b 258 789 261 775 264 782 z "},"í":{"ha":301,"x_min":0,"x_max":0,"o":"m 65 186 b 14 138 36 186 14 164 l 14 49 b 63 0 14 22 36 0 l 243 0 b 292 49 269 0 292 22 l 292 138 b 240 186 292 164 267 186 l 240 672 b 192 721 240 699 218 721 l 114 721 b 65 672 88 721 65 699 z m 93 789 b 99 775 88 782 90 775 l 204 775 b 226 785 213 775 219 778 l 392 938 b 383 954 397 944 394 954 l 231 954 b 211 944 222 954 215 951 z "},"î":{"ha":301,"x_min":0,"x_max":0,"o":"m 65 186 b 14 138 36 186 14 164 l 14 49 b 63 0 14 22 36 0 l 243 0 b 292 49 269 0 292 22 l 292 138 b 240 186 292 164 267 186 l 240 672 b 192 721 240 699 218 721 l 114 721 b 65 672 88 721 65 699 z m -67 775 l 38 775 l 151 885 l 264 775 l 368 775 l 238 981 l 64 981 z "},"ï":{"ha":301,"x_min":0,"x_max":0,"o":"m 65 186 b 14 138 36 186 14 164 l 14 49 b 63 0 14 22 36 0 l 243 0 b 292 49 269 0 292 22 l 292 138 b 240 186 292 164 267 186 l 240 672 b 192 721 240 699 218 721 l 114 721 b 65 672 88 721 65 699 z m -75 867 b 21 771 -75 814 -32 771 b 117 867 74 771 117 814 b 21 963 117 919 74 963 b -75 867 -32 963 -75 919 z m 186 867 b 282 771 186 814 229 771 b 378 867 335 771 378 814 b 282 963 378 919 335 963 b 186 867 229 963 186 919 z "},"ñ":{"ha":579,"x_min":0,"x_max":0,"o":"m 240 597 l 240 671 b 190 721 240 699 218 721 l 114 721 b 64 671 86 721 64 699 l 64 50 b 114 0 64 22 86 0 l 190 0 b 240 50 218 0 240 22 l 240 533 l 344 533 l 344 50 b 394 0 344 22 367 0 l 521 0 b 571 50 549 0 571 22 l 571 136 b 519 186 571 164 547 186 l 519 535 b 394 721 519 633 503 721 l 331 721 z m 374 922 b 340 878 371 901 363 878 b 211 922 303 878 249 922 b 118 775 128 922 119 828 l 207 775 b 242 815 208 792 213 815 b 363 769 283 815 326 769 b 461 922 446 769 457 858 z "},"ò":{"ha":532,"x_min":0,"x_max":0,"o":"m 315 539 l 315 186 l 219 186 l 219 539 z m 169 721 b 43 518 53 721 43 603 l 43 188 b 171 0 43 81 65 0 l 354 0 b 492 222 486 0 492 126 l 492 519 b 354 721 492 647 468 721 z m 374 789 l 256 944 b 236 954 251 951 244 954 l 83 954 b 75 938 72 954 69 944 l 240 785 b 263 775 247 778 254 775 l 368 775 b 374 789 376 775 379 782 z "},"ó":{"ha":532,"x_min":0,"x_max":0,"o":"m 315 539 l 315 186 l 219 186 l 219 539 z m 169 721 b 43 518 53 721 43 603 l 43 188 b 171 0 43 81 65 0 l 354 0 b 492 222 486 0 492 126 l 492 519 b 354 721 492 647 468 721 z m 158 789 b 164 775 153 782 156 775 l 269 775 b 292 785 278 775 285 778 l 457 938 b 449 954 463 944 460 954 l 296 954 b 276 944 288 954 281 951 z "},"ô":{"ha":532,"x_min":0,"x_max":0,"o":"m 315 539 l 315 186 l 219 186 l 219 539 z m 169 721 b 43 518 53 721 43 603 l 43 188 b 171 0 43 81 65 0 l 354 0 b 492 222 486 0 492 126 l 492 519 b 354 721 492 647 468 721 z m 49 775 l 153 775 l 267 885 l 379 775 l 483 775 l 353 981 l 179 981 z "},"õ":{"ha":532,"x_min":0,"x_max":0,"o":"m 315 539 l 315 186 l 219 186 l 219 539 z m 169 721 b 43 518 53 721 43 603 l 43 188 b 171 0 43 81 65 0 l 354 0 b 492 222 486 0 492 126 l 492 519 b 354 721 492 647 468 721 z m 350 922 b 317 878 347 901 339 878 b 188 922 279 878 225 922 b 94 775 104 922 96 828 l 183 775 b 218 815 185 792 189 815 b 339 769 260 815 303 769 b 438 922 422 769 433 858 z "},"ö":{"ha":532,"x_min":0,"x_max":0,"o":"m 315 539 l 315 186 l 219 186 l 219 539 z m 169 721 b 43 518 53 721 43 603 l 43 188 b 171 0 43 81 65 0 l 354 0 b 492 222 486 0 492 126 l 492 519 b 354 721 492 647 468 721 z m 39 867 b 135 771 39 814 82 771 b 231 867 188 771 231 814 b 135 963 231 919 188 963 b 39 867 82 963 39 919 z m 300 867 b 396 771 300 814 343 771 b 492 867 449 771 492 814 b 396 963 492 919 449 963 b 300 867 343 963 300 919 z "},"ø":{"ha":532,"x_min":0,"x_max":0,"o":"m 483 704 b 474 721 489 714 485 721 l 169 721 b 43 518 53 721 43 603 l 43 188 b 64 60 43 138 47 92 l 43 17 b 53 0 40 8 44 0 l 354 0 b 492 222 486 0 492 126 l 492 519 b 465 668 492 583 486 633 z m 236 186 l 315 351 l 315 186 z m 219 539 l 293 539 l 219 385 z "},"ç":{"ha":486,"x_min":0,"x_max":0,"o":"m 457 558 b 331 721 457 649 422 721 l 169 721 b 43 474 49 721 43 653 l 43 175 b 181 0 43 81 63 0 l 339 0 b 457 174 442 0 457 51 l 457 192 b 414 235 457 215 438 235 l 347 235 b 304 192 324 235 304 215 l 304 186 l 219 186 l 219 533 l 304 533 l 304 528 b 347 485 304 504 324 485 l 414 485 b 457 528 438 485 457 504 z m 272 24 l 176 24 l 176 -104 b 203 -101 186 -101 199 -101 b 263 -162 244 -101 263 -119 b 229 -208 263 -193 251 -208 b 192 -164 206 -208 194 -194 l 111 -164 b 224 -267 114 -236 149 -267 b 374 -147 300 -267 374 -222 b 272 -51 374 -81 343 -51 z "},"ù":{"ha":579,"x_min":0,"x_max":0,"o":"m 521 0 b 571 50 549 0 571 22 l 571 136 b 519 186 571 164 547 186 l 519 676 b 475 721 519 701 500 721 l 386 721 b 342 676 361 721 342 701 l 342 186 l 238 186 l 238 676 b 193 721 238 701 218 721 l 108 721 b 64 676 83 721 64 701 l 64 168 b 194 0 64 71 99 0 l 225 0 b 265 21 242 0 256 7 l 342 124 l 342 44 b 386 0 342 19 361 0 z m 397 789 l 279 944 b 260 954 275 951 268 954 l 107 954 b 99 938 96 954 93 944 l 264 785 b 286 775 271 778 278 775 l 392 775 b 397 789 400 775 403 782 z "},"ú":{"ha":579,"x_min":0,"x_max":0,"o":"m 521 0 b 571 50 549 0 571 22 l 571 136 b 519 186 571 164 547 186 l 519 676 b 475 721 519 701 500 721 l 386 721 b 342 676 361 721 342 701 l 342 186 l 238 186 l 238 676 b 193 721 238 701 218 721 l 108 721 b 64 676 83 721 64 701 l 64 168 b 194 0 64 71 99 0 l 225 0 b 265 21 242 0 256 7 l 342 124 l 342 44 b 386 0 342 19 361 0 z m 182 789 b 188 775 176 782 179 775 l 293 775 b 315 785 301 775 308 778 l 481 938 b 472 954 486 944 483 954 l 319 954 b 300 944 311 954 304 951 z "},"û":{"ha":579,"x_min":0,"x_max":0,"o":"m 521 0 b 571 50 549 0 571 22 l 571 136 b 519 186 571 164 547 186 l 519 676 b 475 721 519 701 500 721 l 386 721 b 342 676 361 721 342 701 l 342 186 l 238 186 l 238 676 b 193 721 238 701 218 721 l 108 721 b 64 676 83 721 64 701 l 64 168 b 194 0 64 71 99 0 l 225 0 b 265 21 242 0 256 7 l 342 124 l 342 44 b 386 0 342 19 361 0 z m 72 775 l 176 775 l 290 885 l 403 775 l 507 775 l 376 981 l 203 981 z "},"ü":{"ha":579,"x_min":0,"x_max":0,"o":"m 521 0 b 571 50 549 0 571 22 l 571 136 b 519 186 571 164 547 186 l 519 676 b 475 721 519 701 500 721 l 386 721 b 342 676 361 721 342 701 l 342 186 l 238 186 l 238 676 b 193 721 238 701 218 721 l 108 721 b 64 676 83 721 64 701 l 64 168 b 194 0 64 71 99 0 l 225 0 b 265 21 242 0 256 7 l 342 124 l 342 44 b 386 0 342 19 361 0 z m 63 867 b 158 771 63 814 106 771 b 254 867 211 771 254 814 b 158 963 254 919 211 963 b 63 867 106 963 63 919 z m 324 867 b 419 771 324 814 367 771 b 515 867 472 771 515 814 b 419 963 515 919 472 963 b 324 867 367 963 324 919 z "},"ý":{"ha":486,"x_min":0,"x_max":0,"o":"m 11 663 l 147 -17 l 126 -108 l 126 -108 b 78 -157 100 -108 78 -131 l 78 -242 b 126 -290 78 -268 100 -290 l 225 -290 b 272 -251 249 -290 268 -274 l 451 663 b 404 721 457 693 435 721 l 328 721 b 281 678 304 721 283 703 b 236 278 246 400 243 372 l 221 278 b 178 678 213 414 197 531 b 129 721 175 703 154 721 l 58 721 b 11 663 28 721 4 693 z m 135 789 b 140 775 129 782 132 775 l 246 775 b 268 785 254 775 261 778 l 433 938 b 425 954 439 944 436 954 l 272 954 b 253 944 264 954 257 951 z "},"ÿ":{"ha":486,"x_min":0,"x_max":0,"o":"m 11 663 l 147 -17 l 126 -108 l 126 -108 b 78 -157 100 -108 78 -131 l 78 -242 b 126 -290 78 -268 100 -290 l 225 -290 b 272 -251 249 -290 268 -274 l 451 663 b 404 721 457 693 435 721 l 328 721 b 281 678 304 721 283 703 b 236 278 246 400 243 372 l 221 278 b 178 678 213 414 197 531 b 129 721 175 703 154 721 l 58 721 b 11 663 28 721 4 693 z m 17 867 b 113 771 17 814 60 771 b 208 867 165 771 208 814 b 113 963 208 919 165 963 b 17 867 60 963 17 919 z m 278 867 b 374 771 278 814 321 771 b 469 867 426 771 469 814 b 374 963 469 919 426 963 b 278 867 321 963 278 919 z "},"Ž":{"ha":579,"x_min":0,"x_max":0,"o":"m 79 810 l 135 810 b 185 864 163 810 185 832 l 315 864 l 19 219 l 19 50 b 69 0 19 22 42 0 l 506 0 b 556 50 533 0 556 22 l 556 256 b 506 306 556 283 533 306 l 447 306 b 397 256 419 306 397 283 l 397 217 l 251 217 l 547 874 l 547 1031 b 497 1081 547 1058 525 1081 l 79 1081 b 29 1031 51 1081 29 1058 l 29 860 b 79 810 29 832 51 810 z m 289 1258 l 218 1363 l 89 1363 l 215 1156 l 367 1156 l 490 1363 l 360 1363 z "},"Š":{"ha":625,"x_min":0,"x_max":0,"o":"m 214 1081 b 42 858 85 1081 42 957 l 42 678 b 83 503 42 617 46 556 b 213 447 122 449 169 447 l 379 447 l 379 217 l 244 217 l 244 246 b 194 296 244 274 222 296 l 103 296 b 53 246 75 296 53 274 l 53 50 b 103 0 53 22 75 0 l 401 0 b 581 247 554 0 581 121 l 581 422 b 526 617 581 485 576 568 b 396 653 488 649 436 653 l 244 653 l 244 864 l 379 864 l 379 847 b 429 797 379 819 401 797 l 507 797 b 557 847 535 797 557 819 l 557 1031 b 507 1081 557 1058 535 1081 z m 339 1258 l 268 1363 l 139 1363 l 265 1156 l 417 1156 l 540 1363 l 410 1363 z "},"À":{"ha":671,"x_min":0,"x_max":0,"o":"m 394 443 l 281 443 l 331 907 l 344 907 z m 64 217 l 56 217 b 6 167 28 217 6 194 l 6 50 b 56 0 6 22 28 0 l 190 0 b 240 44 217 0 238 19 b 264 265 249 118 257 193 l 411 265 l 435 44 b 483 0 438 19 458 0 l 618 0 b 668 50 646 0 668 22 l 668 167 b 618 217 668 194 646 217 l 511 1026 b 450 1081 507 1058 481 1081 l 226 1081 b 165 1026 196 1081 169 1057 z m 443 1169 l 325 1325 b 306 1335 321 1332 314 1335 l 153 1335 b 144 1318 142 1335 139 1325 l 310 1165 b 332 1156 317 1158 324 1156 l 438 1156 b 443 1169 446 1156 449 1163 z "},"Á":{"ha":671,"x_min":0,"x_max":0,"o":"m 394 443 l 281 443 l 331 907 l 344 907 z m 64 217 l 56 217 b 6 167 28 217 6 194 l 6 50 b 56 0 6 22 28 0 l 190 0 b 240 44 217 0 238 19 b 264 265 249 118 257 193 l 411 265 l 435 44 b 483 0 438 19 458 0 l 618 0 b 668 50 646 0 668 22 l 668 167 b 618 217 668 194 646 217 l 511 1026 b 450 1081 507 1058 481 1081 l 226 1081 b 165 1026 196 1081 169 1057 z m 228 1169 b 233 1156 222 1163 225 1156 l 339 1156 b 361 1165 347 1156 354 1158 l 526 1318 b 518 1335 532 1325 529 1335 l 365 1335 b 346 1325 357 1335 350 1332 z "},"Â":{"ha":671,"x_min":0,"x_max":0,"o":"m 394 443 l 281 443 l 331 907 l 344 907 z m 64 217 l 56 217 b 6 167 28 217 6 194 l 6 50 b 56 0 6 22 28 0 l 190 0 b 240 44 217 0 238 19 b 264 265 249 118 257 193 l 411 265 l 435 44 b 483 0 438 19 458 0 l 618 0 b 668 50 646 0 668 22 l 668 167 b 618 217 668 194 646 217 l 511 1026 b 450 1081 507 1058 481 1081 l 226 1081 b 165 1026 196 1081 169 1057 z m 118 1156 l 222 1156 l 336 1265 l 449 1156 l 553 1156 l 422 1361 l 249 1361 z "},"Ã":{"ha":671,"x_min":0,"x_max":0,"o":"m 394 443 l 281 443 l 331 907 l 344 907 z m 64 217 l 56 217 b 6 167 28 217 6 194 l 6 50 b 56 0 6 22 28 0 l 190 0 b 240 44 217 0 238 19 b 264 265 249 118 257 193 l 411 265 l 435 44 b 483 0 438 19 458 0 l 618 0 b 668 50 646 0 668 22 l 668 167 b 618 217 668 194 646 217 l 511 1026 b 450 1081 507 1058 481 1081 l 226 1081 b 165 1026 196 1081 169 1057 z m 419 1303 b 386 1258 417 1282 408 1258 b 257 1303 349 1258 294 1303 b 164 1156 174 1303 165 1208 l 253 1156 b 288 1196 254 1172 258 1196 b 408 1150 329 1196 372 1150 b 507 1303 492 1150 503 1239 z "},"Ä":{"ha":671,"x_min":0,"x_max":0,"o":"m 394 443 l 281 443 l 331 907 l 344 907 z m 64 217 l 56 217 b 6 167 28 217 6 194 l 6 50 b 56 0 6 22 28 0 l 190 0 b 240 44 217 0 238 19 b 264 265 249 118 257 193 l 411 265 l 435 44 b 483 0 438 19 458 0 l 618 0 b 668 50 646 0 668 22 l 668 167 b 618 217 668 194 646 217 l 511 1026 b 450 1081 507 1058 481 1081 l 226 1081 b 165 1026 196 1081 169 1057 z m 108 1247 b 204 1151 108 1194 151 1151 b 300 1247 257 1151 300 1194 b 204 1343 300 1300 257 1343 b 108 1247 151 1343 108 1300 z m 369 1247 b 465 1151 369 1194 413 1151 b 561 1247 518 1151 561 1194 b 465 1343 561 1300 518 1343 b 369 1247 413 1343 369 1300 z "},"Å":{"ha":671,"x_min":0,"x_max":0,"o":"m 394 443 l 281 443 l 331 907 l 344 907 z m 64 217 l 56 217 b 6 167 28 217 6 194 l 6 50 b 56 0 6 22 28 0 l 190 0 b 240 44 217 0 238 19 b 264 265 249 118 257 193 l 411 265 l 435 44 b 483 0 438 19 458 0 l 618 0 b 668 50 646 0 668 22 l 668 167 b 618 217 668 194 646 217 l 511 1026 b 450 1081 507 1058 481 1081 l 226 1081 b 165 1026 196 1081 169 1057 z m 250 1186 b 338 1150 274 1164 306 1150 b 461 1274 404 1150 461 1206 b 338 1397 461 1342 406 1397 b 214 1274 268 1397 214 1340 b 250 1186 214 1242 228 1210 z m 301 1238 b 286 1274 292 1246 286 1260 b 338 1325 286 1301 310 1325 b 389 1274 365 1325 389 1301 b 338 1222 389 1244 365 1222 b 301 1238 324 1222 311 1228 z "},"Ç":{"ha":579,"x_min":0,"x_max":0,"o":"m 244 1081 b 46 821 85 1081 46 944 l 46 243 b 239 0 46 114 83 0 l 494 0 b 557 61 529 0 557 28 l 557 300 b 494 363 557 335 529 363 l 440 363 b 379 300 407 363 379 335 l 379 217 l 247 217 l 247 864 l 379 864 l 379 828 b 440 767 379 794 407 767 l 486 767 b 549 828 521 767 549 794 l 549 1018 b 486 1081 549 1053 521 1081 z m 353 24 l 257 24 l 257 -104 b 283 -101 267 -101 279 -101 b 343 -162 325 -101 343 -119 b 310 -208 343 -193 332 -208 b 272 -164 286 -208 275 -194 l 192 -164 b 304 -267 194 -236 229 -267 b 454 -147 381 -267 454 -222 b 353 -51 454 -81 424 -51 z "},"È":{"ha":603,"x_min":0,"x_max":0,"o":"m 72 217 b 21 167 43 217 21 194 l 21 50 b 71 0 21 22 43 0 l 529 0 b 579 50 557 0 579 22 l 579 307 b 529 357 579 335 557 357 l 450 357 b 400 307 422 357 400 335 l 400 217 l 271 217 l 271 456 l 382 456 b 432 506 410 456 432 478 l 432 596 b 382 646 432 624 410 646 l 271 646 l 271 864 l 400 864 l 400 783 b 450 733 400 756 422 733 l 517 733 b 567 783 544 733 567 756 l 567 1018 b 504 1081 567 1053 539 1081 l 122 1081 b 72 1031 94 1081 72 1058 z m 408 1169 l 290 1325 b 271 1335 286 1332 279 1335 l 118 1335 b 110 1318 107 1335 104 1325 l 275 1165 b 297 1156 282 1158 289 1156 l 403 1156 b 408 1169 411 1156 414 1163 z "},"É":{"ha":603,"x_min":0,"x_max":0,"o":"m 72 217 b 21 167 43 217 21 194 l 21 50 b 71 0 21 22 43 0 l 529 0 b 579 50 557 0 579 22 l 579 307 b 529 357 579 335 557 357 l 450 357 b 400 307 422 357 400 335 l 400 217 l 271 217 l 271 456 l 382 456 b 432 506 410 456 432 478 l 432 596 b 382 646 432 624 410 646 l 271 646 l 271 864 l 400 864 l 400 783 b 450 733 400 756 422 733 l 517 733 b 567 783 544 733 567 756 l 567 1018 b 504 1081 567 1053 539 1081 l 122 1081 b 72 1031 94 1081 72 1058 z m 193 1169 b 199 1156 188 1163 190 1156 l 304 1156 b 326 1165 313 1156 319 1158 l 492 1318 b 483 1335 497 1325 494 1335 l 331 1335 b 311 1325 322 1335 315 1332 z "},"Ê":{"ha":603,"x_min":0,"x_max":0,"o":"m 72 217 b 21 167 43 217 21 194 l 21 50 b 71 0 21 22 43 0 l 529 0 b 579 50 557 0 579 22 l 579 307 b 529 357 579 335 557 357 l 450 357 b 400 307 422 357 400 335 l 400 217 l 271 217 l 271 456 l 382 456 b 432 506 410 456 432 478 l 432 596 b 382 646 432 624 410 646 l 271 646 l 271 864 l 400 864 l 400 783 b 450 733 400 756 422 733 l 517 733 b 567 783 544 733 567 756 l 567 1018 b 504 1081 567 1053 539 1081 l 122 1081 b 72 1031 94 1081 72 1058 z m 83 1156 l 188 1156 l 301 1265 l 414 1156 l 518 1156 l 388 1361 l 214 1361 z "},"Ë":{"ha":603,"x_min":0,"x_max":0,"o":"m 72 217 b 21 167 43 217 21 194 l 21 50 b 71 0 21 22 43 0 l 529 0 b 579 50 557 0 579 22 l 579 307 b 529 357 579 335 557 357 l 450 357 b 400 307 422 357 400 335 l 400 217 l 271 217 l 271 456 l 382 456 b 432 506 410 456 432 478 l 432 596 b 382 646 432 624 410 646 l 271 646 l 271 864 l 400 864 l 400 783 b 450 733 400 756 422 733 l 517 733 b 567 783 544 733 567 756 l 567 1018 b 504 1081 567 1053 539 1081 l 122 1081 b 72 1031 94 1081 72 1058 z m 75 1247 b 171 1151 75 1194 118 1151 b 267 1247 224 1151 267 1194 b 171 1343 267 1300 224 1343 b 75 1247 118 1343 75 1300 z m 336 1247 b 432 1151 336 1194 379 1151 b 528 1247 485 1151 528 1194 b 432 1343 528 1300 485 1343 b 336 1247 379 1343 336 1300 z "},"Ì":{"ha":347,"x_min":0,"x_max":0,"o":"m 72 217 b 19 167 42 217 19 194 l 19 50 b 69 0 19 22 42 0 l 278 0 b 328 50 306 0 328 22 l 328 167 b 278 217 328 194 306 217 l 278 1031 b 226 1081 278 1058 254 1081 l 122 1081 b 72 1031 94 1081 72 1058 z m 253 1169 l 135 1325 b 115 1335 131 1332 124 1335 l -37 1335 b -46 1318 -49 1335 -51 1325 l 119 1165 b 142 1156 126 1158 133 1156 l 247 1156 b 253 1169 256 1156 258 1163 z "},"Í":{"ha":347,"x_min":0,"x_max":0,"o":"m 72 217 b 19 167 42 217 19 194 l 19 50 b 69 0 19 22 42 0 l 278 0 b 328 50 306 0 328 22 l 328 167 b 278 217 328 194 306 217 l 278 1031 b 226 1081 278 1058 254 1081 l 122 1081 b 72 1031 94 1081 72 1058 z m 94 1169 b 100 1156 89 1163 92 1156 l 206 1156 b 228 1165 214 1156 221 1158 l 393 1318 b 385 1335 399 1325 396 1335 l 232 1335 b 213 1325 224 1335 217 1332 z "},"Î":{"ha":347,"x_min":0,"x_max":0,"o":"m 72 217 b 19 167 42 217 19 194 l 19 50 b 69 0 19 22 42 0 l 278 0 b 328 50 306 0 328 22 l 328 167 b 278 217 328 194 306 217 l 278 1031 b 226 1081 278 1058 254 1081 l 122 1081 b 72 1031 94 1081 72 1058 z m -42 1156 l 63 1156 l 176 1265 l 289 1156 l 393 1156 l 263 1361 l 89 1361 z "},"Ï":{"ha":347,"x_min":0,"x_max":0,"o":"m 72 217 b 19 167 42 217 19 194 l 19 50 b 69 0 19 22 42 0 l 278 0 b 328 50 306 0 328 22 l 328 167 b 278 217 328 194 306 217 l 278 1031 b 226 1081 278 1058 254 1081 l 122 1081 b 72 1031 94 1081 72 1058 z m -53 1247 b 43 1151 -53 1194 -10 1151 b 139 1247 96 1151 139 1194 b 43 1343 139 1300 96 1343 b -53 1247 -10 1343 -53 1300 z m 208 1247 b 304 1151 208 1194 251 1151 b 400 1247 357 1151 400 1194 b 304 1343 400 1300 357 1343 b 208 1247 251 1343 208 1300 z "},"Ð":{"ha":647,"x_min":0,"x_max":0,"o":"m 29 494 l 71 494 l 71 217 b 8 154 36 217 8 189 l 8 61 b 69 0 8 28 36 0 l 422 0 b 607 290 606 0 607 160 l 607 801 b 417 1081 607 976 589 1081 l 71 1081 l 71 631 l 29 631 z m 406 217 l 274 217 l 274 494 l 356 494 l 356 631 l 274 631 l 274 864 l 382 864 b 406 840 394 864 406 853 z "},"Ñ":{"ha":742,"x_min":0,"x_max":0,"o":"m 496 1031 l 496 647 b 503 446 496 564 496 538 l 488 444 b 439 606 468 504 458 556 l 276 1047 b 229 1081 268 1068 250 1081 l 124 1081 b 74 1031 96 1081 74 1058 l 74 217 b 22 167 44 217 22 194 l 22 50 b 72 0 22 22 44 0 l 204 0 b 254 50 232 0 254 22 l 254 525 b 244 629 254 558 250 589 l 260 631 b 324 419 278 558 288 521 b 468 39 368 299 422 163 b 526 0 478 14 500 0 l 674 0 b 724 50 701 0 724 22 l 724 167 b 674 217 724 194 701 217 l 674 1031 b 622 1081 674 1058 650 1081 l 546 1081 b 496 1031 518 1081 496 1058 z m 454 1303 b 421 1258 451 1282 443 1258 b 292 1303 383 1258 329 1303 b 199 1156 208 1303 200 1208 l 288 1156 b 322 1196 289 1172 293 1196 b 443 1150 364 1196 407 1150 b 542 1303 526 1150 538 1239 z "},"Ò":{"ha":625,"x_min":0,"x_max":0,"o":"m 229 1081 b 47 789 47 1075 47 924 l 47 257 b 249 0 47 92 86 0 l 392 0 b 583 307 583 0 583 167 l 583 771 b 383 1081 583 964 572 1081 z m 382 217 l 250 217 l 250 864 l 382 864 z m 419 1169 l 301 1325 b 282 1335 297 1332 290 1335 l 129 1335 b 121 1318 118 1335 115 1325 l 286 1165 b 308 1156 293 1158 300 1156 l 414 1156 b 419 1169 422 1156 425 1163 z "},"Ó":{"ha":625,"x_min":0,"x_max":0,"o":"m 229 1081 b 47 789 47 1075 47 924 l 47 257 b 249 0 47 92 86 0 l 392 0 b 583 307 583 0 583 167 l 583 771 b 383 1081 583 964 572 1081 z m 382 217 l 250 217 l 250 864 l 382 864 z m 204 1169 b 210 1156 199 1163 201 1156 l 315 1156 b 338 1165 324 1156 331 1158 l 503 1318 b 494 1335 508 1325 506 1335 l 342 1335 b 322 1325 333 1335 326 1332 z "},"Ô":{"ha":625,"x_min":0,"x_max":0,"o":"m 229 1081 b 47 789 47 1075 47 924 l 47 257 b 249 0 47 92 86 0 l 392 0 b 583 307 583 0 583 167 l 583 771 b 383 1081 583 964 572 1081 z m 382 217 l 250 217 l 250 864 l 382 864 z m 94 1156 l 199 1156 l 313 1265 l 425 1156 l 529 1156 l 399 1361 l 225 1361 z "},"Õ":{"ha":625,"x_min":0,"x_max":0,"o":"m 229 1081 b 47 789 47 1075 47 924 l 47 257 b 249 0 47 92 86 0 l 392 0 b 583 307 583 0 583 167 l 583 771 b 383 1081 583 964 572 1081 z m 382 217 l 250 217 l 250 864 l 382 864 z m 396 1303 b 363 1258 393 1282 385 1258 b 233 1303 325 1258 271 1303 b 140 1156 150 1303 142 1208 l 229 1156 b 264 1196 231 1172 235 1196 b 385 1150 306 1196 349 1150 b 483 1303 468 1150 479 1239 z "},"Ö":{"ha":625,"x_min":0,"x_max":0,"o":"m 229 1081 b 47 789 47 1075 47 924 l 47 257 b 249 0 47 92 86 0 l 392 0 b 583 307 583 0 583 167 l 583 771 b 383 1081 583 964 572 1081 z m 382 217 l 250 217 l 250 864 l 382 864 z m 90 1247 b 186 1151 90 1194 133 1151 b 282 1247 239 1151 282 1194 b 186 1343 282 1300 239 1343 b 90 1247 133 1343 90 1300 z m 351 1247 b 447 1151 351 1194 394 1151 b 543 1247 500 1151 543 1194 b 447 1343 543 1300 500 1343 b 351 1247 394 1343 351 1300 z "},"Ù":{"ha":671,"x_min":0,"x_max":0,"o":"m 74 257 b 242 0 74 110 106 0 l 426 0 b 604 289 585 0 604 149 l 604 1018 b 542 1081 604 1053 576 1081 l 463 1081 b 401 1018 429 1081 401 1053 l 401 217 l 276 217 l 276 1018 b 214 1081 276 1053 249 1081 l 135 1081 b 74 1018 101 1081 74 1053 z m 443 1169 l 325 1325 b 306 1335 321 1332 314 1335 l 153 1335 b 144 1318 142 1335 139 1325 l 310 1165 b 332 1156 317 1158 324 1156 l 438 1156 b 443 1169 446 1156 449 1163 z "},"Ú":{"ha":671,"x_min":0,"x_max":0,"o":"m 74 257 b 242 0 74 110 106 0 l 426 0 b 604 289 585 0 604 149 l 604 1018 b 542 1081 604 1053 576 1081 l 463 1081 b 401 1018 429 1081 401 1053 l 401 217 l 276 217 l 276 1018 b 214 1081 276 1053 249 1081 l 135 1081 b 74 1018 101 1081 74 1053 z m 228 1169 b 233 1156 222 1163 225 1156 l 339 1156 b 361 1165 347 1156 354 1158 l 526 1318 b 518 1335 532 1325 529 1335 l 365 1335 b 346 1325 357 1335 350 1332 z "},"Û":{"ha":671,"x_min":0,"x_max":0,"o":"m 74 257 b 242 0 74 110 106 0 l 426 0 b 604 289 585 0 604 149 l 604 1018 b 542 1081 604 1053 576 1081 l 463 1081 b 401 1018 429 1081 401 1053 l 401 217 l 276 217 l 276 1018 b 214 1081 276 1053 249 1081 l 135 1081 b 74 1018 101 1081 74 1053 z m 118 1156 l 222 1156 l 336 1265 l 449 1156 l 553 1156 l 422 1361 l 249 1361 z "},"Ü":{"ha":671,"x_min":0,"x_max":0,"o":"m 74 257 b 242 0 74 110 106 0 l 426 0 b 604 289 585 0 604 149 l 604 1018 b 542 1081 604 1053 576 1081 l 463 1081 b 401 1018 429 1081 401 1053 l 401 217 l 276 217 l 276 1018 b 214 1081 276 1053 249 1081 l 135 1081 b 74 1018 101 1081 74 1053 z m 114 1247 b 210 1151 114 1194 157 1151 b 306 1247 263 1151 306 1194 b 210 1343 306 1300 263 1343 b 114 1247 157 1343 114 1300 z m 375 1247 b 471 1151 375 1194 418 1151 b 567 1247 524 1151 567 1194 b 471 1343 567 1300 524 1343 b 375 1247 418 1343 375 1300 z "},"Ý":{"ha":603,"x_min":0,"x_max":0,"o":"m 204 440 l 204 217 l 197 217 b 149 168 171 217 149 194 l 149 49 b 197 0 149 22 171 0 l 406 0 b 454 49 433 0 454 22 l 454 168 b 406 217 454 194 433 217 l 400 217 l 400 440 l 596 1017 b 549 1081 606 1047 582 1081 l 444 1081 b 399 1046 424 1081 404 1067 b 311 717 319 771 317 757 b 310 708 311 714 310 710 l 296 708 b 283 783 292 740 290 751 l 214 1044 b 167 1081 208 1067 189 1081 l 56 1081 b 10 1017 22 1081 -1 1047 z m 193 1169 b 199 1156 188 1163 190 1156 l 304 1156 b 326 1165 313 1156 319 1158 l 492 1318 b 483 1335 497 1325 494 1335 l 331 1335 b 311 1325 322 1335 315 1332 z "},"¢":{"ha":486,"x_min":0,"x_max":0,"o":"m 457 558 b 331 721 457 649 422 721 l 169 721 b 43 474 49 721 43 653 l 43 175 b 181 0 43 81 63 0 l 339 0 b 457 174 442 0 457 51 l 457 192 b 414 235 457 215 438 235 l 347 235 b 304 192 324 235 304 215 l 304 186 l 219 186 l 219 533 l 304 533 l 304 528 b 347 485 304 504 324 485 l 414 485 b 457 528 438 485 457 504 z m 219 813 l 219 632 l 321 632 l 321 813 z m 219 85 l 219 -96 l 321 -96 l 321 85 z "},"Ă":{"ha":671,"x_min":0,"x_max":0,"o":"m 394 443 l 281 443 l 331 907 l 344 907 z m 64 217 l 56 217 b 6 167 28 217 6 194 l 6 50 b 56 0 6 22 28 0 l 190 0 b 240 44 217 0 238 19 b 264 265 249 118 257 193 l 411 265 l 435 44 b 483 0 438 19 458 0 l 618 0 b 668 50 646 0 668 22 l 668 167 b 618 217 668 194 646 217 l 511 1026 b 450 1081 507 1058 481 1081 l 226 1081 b 165 1026 196 1081 169 1057 z m 122 1344 b 336 1151 136 1213 204 1151 b 550 1344 469 1151 535 1211 l 460 1344 b 336 1261 453 1293 418 1261 b 213 1344 261 1261 222 1286 z "},"Ā":{"ha":671,"x_min":0,"x_max":0,"o":"m 394 443 l 281 443 l 331 907 l 344 907 z m 64 217 l 56 217 b 6 167 28 217 6 194 l 6 50 b 56 0 6 22 28 0 l 190 0 b 240 44 217 0 238 19 b 264 265 249 118 257 193 l 411 265 l 435 44 b 483 0 438 19 458 0 l 618 0 b 668 50 646 0 668 22 l 668 167 b 618 217 668 194 646 217 l 511 1026 b 450 1081 507 1058 481 1081 l 226 1081 b 165 1026 196 1081 169 1057 z m 558 1206 l 558 1213 b 508 1263 558 1240 536 1263 l 167 1263 b 117 1213 139 1263 117 1240 l 117 1206 b 167 1156 117 1178 139 1156 l 508 1156 b 558 1206 536 1156 558 1178 z "},"Ą":{"ha":671,"x_min":0,"x_max":0,"o":"m 394 443 l 281 443 l 331 907 l 344 907 z m 64 217 l 56 217 b 6 167 28 217 6 194 l 6 50 b 56 0 6 22 28 0 l 190 0 b 240 44 217 0 238 19 b 264 265 249 118 257 193 l 411 265 l 435 44 b 483 0 438 19 458 0 l 618 0 b 668 50 646 0 668 22 l 668 167 b 618 217 668 194 646 217 l 511 1026 b 450 1081 507 1058 481 1081 l 226 1081 b 165 1026 196 1081 169 1057 z m 494 7 b 454 -110 464 -46 454 -72 b 669 -279 454 -243 560 -294 l 669 -182 b 551 -85 599 -201 551 -156 b 581 7 551 -51 558 -29 z "},"Ǽ":{"ha":950,"x_min":0,"x_max":0,"o":"m 64 217 l 56 217 b 6 167 28 217 6 194 l 6 50 b 56 0 6 22 28 0 l 190 0 b 240 44 217 0 238 19 b 264 265 249 118 257 193 l 411 265 l 435 44 b 483 0 438 19 458 0 l 876 0 b 926 50 904 0 926 22 l 926 307 b 876 357 926 335 904 357 l 797 357 b 747 307 769 357 747 335 l 747 217 l 618 217 l 618 456 l 729 456 b 779 506 757 456 779 478 l 779 596 b 729 646 779 624 757 646 l 618 646 l 618 864 l 747 864 l 747 783 b 797 733 747 756 769 733 l 864 733 b 914 783 892 733 914 756 l 914 1018 b 851 1081 914 1053 886 1081 l 226 1081 b 165 1026 196 1081 169 1057 z m 394 443 l 281 443 l 331 907 l 344 907 z m 322 1169 b 328 1156 317 1163 319 1156 l 433 1156 b 456 1165 442 1156 449 1158 l 621 1318 b 613 1335 626 1325 624 1335 l 460 1335 b 440 1325 451 1335 444 1332 z "},"Ć":{"ha":579,"x_min":0,"x_max":0,"o":"m 244 1081 b 46 821 85 1081 46 944 l 46 243 b 239 0 46 114 83 0 l 494 0 b 557 61 529 0 557 28 l 557 300 b 494 363 557 335 529 363 l 440 363 b 379 300 407 363 379 335 l 379 217 l 247 217 l 247 864 l 379 864 l 379 828 b 440 767 379 794 407 767 l 486 767 b 549 828 521 767 549 794 l 549 1018 b 486 1081 549 1053 521 1081 z m 182 1169 b 188 1156 176 1163 179 1156 l 293 1156 b 315 1165 301 1156 308 1158 l 481 1318 b 472 1335 486 1325 483 1335 l 319 1335 b 300 1325 311 1335 304 1332 z "},"Č":{"ha":579,"x_min":0,"x_max":0,"o":"m 244 1081 b 46 821 85 1081 46 944 l 46 243 b 239 0 46 114 83 0 l 494 0 b 557 61 529 0 557 28 l 557 300 b 494 363 557 335 529 363 l 440 363 b 379 300 407 363 379 335 l 379 217 l 247 217 l 247 864 l 379 864 l 379 828 b 440 767 379 794 407 767 l 486 767 b 549 828 521 767 549 794 l 549 1018 b 486 1081 549 1053 521 1081 z m 317 1258 l 246 1363 l 117 1363 l 243 1156 l 394 1156 l 518 1363 l 388 1363 z "},"Ĉ":{"ha":579,"x_min":0,"x_max":0,"o":"m 244 1081 b 46 821 85 1081 46 944 l 46 243 b 239 0 46 114 83 0 l 494 0 b 557 61 529 0 557 28 l 557 300 b 494 363 557 335 529 363 l 440 363 b 379 300 407 363 379 335 l 379 217 l 247 217 l 247 864 l 379 864 l 379 828 b 440 767 379 794 407 767 l 486 767 b 549 828 521 767 549 794 l 549 1018 b 486 1081 549 1053 521 1081 z m 100 1156 l 204 1156 l 318 1265 l 431 1156 l 535 1156 l 404 1361 l 231 1361 z "},"Ċ":{"ha":579,"x_min":0,"x_max":0,"o":"m 244 1081 b 46 821 85 1081 46 944 l 46 243 b 239 0 46 114 83 0 l 494 0 b 557 61 529 0 557 28 l 557 300 b 494 363 557 335 529 363 l 440 363 b 379 300 407 363 379 335 l 379 217 l 247 217 l 247 864 l 379 864 l 379 828 b 440 767 379 794 407 767 l 486 767 b 549 828 521 767 549 794 l 549 1018 b 486 1081 549 1053 521 1081 z m 249 1175 b 317 1147 267 1157 292 1147 b 413 1243 369 1147 413 1190 b 317 1339 413 1296 369 1339 b 221 1243 264 1339 221 1296 b 249 1175 221 1218 231 1193 z "},"Ď":{"ha":647,"x_min":0,"x_max":0,"o":"m 71 217 b 8 154 36 217 8 189 l 8 61 b 69 0 8 28 36 0 l 422 0 b 607 290 606 0 607 160 l 607 801 b 417 1081 607 976 589 1081 l 71 1081 z m 406 217 l 274 217 l 274 864 l 382 864 b 406 840 394 864 406 853 z m 322 1258 l 251 1363 l 122 1363 l 249 1156 l 400 1156 l 524 1363 l 393 1363 z "},"Đ":{"ha":647,"x_min":0,"x_max":0,"o":"m 383 546 l 383 553 b 333 603 383 581 361 603 l 71 603 b 21 553 43 603 21 581 l 21 546 b 71 496 21 518 43 496 l 333 496 b 383 546 361 496 383 518 z m 71 217 b 8 154 36 217 8 189 l 8 61 b 69 0 8 28 36 0 l 422 0 b 607 290 606 0 607 160 l 607 801 b 417 1081 607 976 589 1081 l 71 1081 z m 406 217 l 274 217 l 274 864 l 382 864 b 406 840 394 864 406 853 z "},"Ĕ":{"ha":603,"x_min":0,"x_max":0,"o":"m 72 217 b 21 167 43 217 21 194 l 21 50 b 71 0 21 22 43 0 l 529 0 b 579 50 557 0 579 22 l 579 307 b 529 357 579 335 557 357 l 450 357 b 400 307 422 357 400 335 l 400 217 l 271 217 l 271 456 l 382 456 b 432 506 410 456 432 478 l 432 596 b 382 646 432 624 410 646 l 271 646 l 271 864 l 400 864 l 400 783 b 450 733 400 756 422 733 l 517 733 b 567 783 544 733 567 756 l 567 1018 b 504 1081 567 1053 539 1081 l 122 1081 b 72 1031 94 1081 72 1058 z m 82 1344 b 296 1151 96 1213 164 1151 b 510 1344 429 1151 494 1211 l 419 1344 b 296 1261 413 1293 378 1261 b 172 1344 221 1261 182 1286 z "},"Ě":{"ha":603,"x_min":0,"x_max":0,"o":"m 72 217 b 21 167 43 217 21 194 l 21 50 b 71 0 21 22 43 0 l 529 0 b 579 50 557 0 579 22 l 579 307 b 529 357 579 335 557 357 l 450 357 b 400 307 422 357 400 335 l 400 217 l 271 217 l 271 456 l 382 456 b 432 506 410 456 432 478 l 432 596 b 382 646 432 624 410 646 l 271 646 l 271 864 l 400 864 l 400 783 b 450 733 400 756 422 733 l 517 733 b 567 783 544 733 567 756 l 567 1018 b 504 1081 567 1053 539 1081 l 122 1081 b 72 1031 94 1081 72 1058 z m 314 1258 l 243 1363 l 114 1363 l 240 1156 l 392 1156 l 515 1363 l 385 1363 z "},"Ė":{"ha":603,"x_min":0,"x_max":0,"o":"m 72 217 b 21 167 43 217 21 194 l 21 50 b 71 0 21 22 43 0 l 529 0 b 579 50 557 0 579 22 l 579 307 b 529 357 579 335 557 357 l 450 357 b 400 307 422 357 400 335 l 400 217 l 271 217 l 271 456 l 382 456 b 432 506 410 456 432 478 l 432 596 b 382 646 432 624 410 646 l 271 646 l 271 864 l 400 864 l 400 783 b 450 733 400 756 422 733 l 517 733 b 567 783 544 733 567 756 l 567 1018 b 504 1081 567 1053 539 1081 l 122 1081 b 72 1031 94 1081 72 1058 z m 243 1169 b 311 1142 261 1151 286 1142 b 407 1238 364 1142 407 1185 b 311 1333 407 1290 364 1333 b 215 1238 258 1333 215 1290 b 243 1169 215 1213 225 1188 z "},"Ē":{"ha":603,"x_min":0,"x_max":0,"o":"m 72 217 b 21 167 43 217 21 194 l 21 50 b 71 0 21 22 43 0 l 529 0 b 579 50 557 0 579 22 l 579 307 b 529 357 579 335 557 357 l 450 357 b 400 307 422 357 400 335 l 400 217 l 271 217 l 271 456 l 382 456 b 432 506 410 456 432 478 l 432 596 b 382 646 432 624 410 646 l 271 646 l 271 864 l 400 864 l 400 783 b 450 733 400 756 422 733 l 517 733 b 567 783 544 733 567 756 l 567 1018 b 504 1081 567 1053 539 1081 l 122 1081 b 72 1031 94 1081 72 1058 z m 533 1206 l 533 1213 b 483 1263 533 1240 511 1263 l 142 1263 b 92 1213 114 1263 92 1240 l 92 1206 b 142 1156 92 1178 114 1156 l 483 1156 b 533 1206 511 1156 533 1178 z "},"Ę":{"ha":603,"x_min":0,"x_max":0,"o":"m 72 217 b 21 167 43 217 21 194 l 21 50 b 71 0 21 22 43 0 l 529 0 b 579 50 557 0 579 22 l 579 307 b 529 357 579 335 557 357 l 450 357 b 400 307 422 357 400 335 l 400 217 l 271 217 l 271 456 l 382 456 b 432 506 410 456 432 478 l 432 596 b 382 646 432 624 410 646 l 271 646 l 271 864 l 400 864 l 400 783 b 450 733 400 756 422 733 l 517 733 b 567 783 544 733 567 756 l 567 1018 b 504 1081 567 1053 539 1081 l 122 1081 b 72 1031 94 1081 72 1058 z m 404 7 b 364 -110 374 -46 364 -72 b 579 -279 364 -243 469 -294 l 579 -182 b 461 -85 508 -201 461 -156 b 490 7 461 -51 468 -29 z "},"Ğ":{"ha":625,"x_min":0,"x_max":0,"o":"m 233 1082 b 43 818 71 1082 43 940 l 43 253 b 226 0 43 104 75 0 l 526 0 b 576 50 554 0 576 22 l 576 571 b 526 621 576 599 554 621 l 371 621 b 321 571 343 621 321 599 l 321 467 b 371 417 321 439 343 417 l 386 417 l 386 217 l 249 217 l 249 865 l 517 865 b 567 915 544 865 567 888 l 567 1032 b 517 1082 567 1060 544 1082 z m 107 1344 b 321 1151 121 1213 189 1151 b 535 1344 454 1151 519 1211 l 444 1344 b 321 1261 438 1293 403 1261 b 197 1344 246 1261 207 1286 z "},"Ĝ":{"ha":625,"x_min":0,"x_max":0,"o":"m 233 1082 b 43 818 71 1082 43 940 l 43 253 b 226 0 43 104 75 0 l 526 0 b 576 50 554 0 576 22 l 576 571 b 526 621 576 599 554 621 l 371 621 b 321 571 343 621 321 599 l 321 467 b 371 417 321 439 343 417 l 386 417 l 386 217 l 249 217 l 249 865 l 517 865 b 567 915 544 865 567 888 l 567 1032 b 517 1082 567 1060 544 1082 z m 108 1156 l 213 1156 l 326 1265 l 439 1156 l 543 1156 l 413 1361 l 239 1361 z "},"Ġ":{"ha":625,"x_min":0,"x_max":0,"o":"m 233 1082 b 43 818 71 1082 43 940 l 43 253 b 226 0 43 104 75 0 l 526 0 b 576 50 554 0 576 22 l 576 571 b 526 621 576 599 554 621 l 371 621 b 321 571 343 621 321 599 l 321 467 b 371 417 321 439 343 417 l 386 417 l 386 217 l 249 217 l 249 865 l 517 865 b 567 915 544 865 567 888 l 567 1032 b 517 1082 567 1060 544 1082 z m 253 1169 b 321 1142 271 1151 296 1142 b 417 1238 374 1142 417 1185 b 321 1333 417 1290 374 1333 b 225 1238 268 1333 225 1290 b 253 1169 225 1213 235 1188 z "},"Ģ":{"ha":625,"x_min":0,"x_max":0,"o":"m 233 1082 b 43 818 71 1082 43 940 l 43 253 b 226 0 43 104 75 0 l 526 0 b 576 50 554 0 576 22 l 576 571 b 526 621 576 599 554 621 l 371 621 b 321 571 343 621 321 599 l 321 467 b 371 417 321 439 343 417 l 386 417 l 386 217 l 249 217 l 249 865 l 517 865 b 567 915 544 865 567 888 l 567 1032 b 517 1082 567 1060 544 1082 z m 411 -154 b 307 -24 411 -81 369 -24 b 213 -126 251 -24 213 -75 b 289 -215 213 -187 249 -215 b 304 -211 296 -215 300 -211 b 311 -235 310 -211 311 -218 b 225 -361 311 -306 274 -329 b 232 -383 221 -362 226 -378 b 253 -397 238 -390 249 -399 b 411 -154 349 -343 411 -261 z "},"Ħ":{"ha":671,"x_min":0,"x_max":0,"o":"m 72 217 b 21 167 43 217 21 194 l 21 50 b 71 0 21 22 43 0 l 211 0 b 274 61 246 0 274 28 l 274 439 l 400 439 l 400 61 b 461 0 400 28 428 0 l 604 0 b 654 50 632 0 654 22 l 654 167 b 604 217 654 194 632 217 l 604 1031 b 553 1081 604 1058 581 1081 l 450 1081 b 400 1031 422 1081 400 1058 l 400 656 l 274 656 l 274 1031 b 224 1081 274 1058 251 1081 l 122 1081 b 72 1031 94 1081 72 1058 z m 556 867 l 556 874 b 506 924 556 901 533 924 l 164 924 b 114 874 136 924 114 901 l 114 867 b 164 817 114 839 136 817 l 506 817 b 556 867 533 817 556 839 z "},"Ĥ":{"ha":671,"x_min":0,"x_max":0,"o":"m 72 217 b 21 167 43 217 21 194 l 21 50 b 71 0 21 22 43 0 l 211 0 b 274 61 246 0 274 28 l 274 439 l 400 439 l 400 61 b 461 0 400 28 428 0 l 604 0 b 654 50 632 0 654 22 l 654 167 b 604 217 654 194 632 217 l 604 1031 b 553 1081 604 1058 581 1081 l 450 1081 b 400 1031 422 1081 400 1058 l 400 656 l 274 656 l 274 1031 b 224 1081 274 1058 251 1081 l 122 1081 b 72 1031 94 1081 72 1058 z m 118 1156 l 222 1156 l 336 1265 l 449 1156 l 553 1156 l 422 1361 l 249 1361 z "},"Ĭ":{"ha":347,"x_min":0,"x_max":0,"o":"m 72 217 b 19 167 42 217 19 194 l 19 50 b 69 0 19 22 42 0 l 278 0 b 328 50 306 0 328 22 l 328 167 b 278 217 328 194 306 217 l 278 1031 b 226 1081 278 1058 254 1081 l 122 1081 b 72 1031 94 1081 72 1058 z m -46 1344 b 168 1151 -32 1213 36 1151 b 382 1344 301 1151 367 1211 l 292 1344 b 168 1261 285 1293 250 1261 b 44 1344 93 1261 54 1286 z "},"İ":{"ha":347,"x_min":0,"x_max":0,"o":"m 72 217 b 19 167 42 217 19 194 l 19 50 b 69 0 19 22 42 0 l 278 0 b 328 50 306 0 328 22 l 328 167 b 278 217 328 194 306 217 l 278 1031 b 226 1081 278 1058 254 1081 l 122 1081 b 72 1031 94 1081 72 1058 z m 106 1169 b 174 1142 124 1151 149 1142 b 269 1238 226 1142 269 1185 b 174 1333 269 1290 226 1333 b 78 1238 121 1333 78 1290 b 106 1169 78 1213 88 1188 z "},"Ī":{"ha":347,"x_min":0,"x_max":0,"o":"m 72 217 b 19 167 42 217 19 194 l 19 50 b 69 0 19 22 42 0 l 278 0 b 328 50 306 0 328 22 l 328 167 b 278 217 328 194 306 217 l 278 1031 b 226 1081 278 1058 254 1081 l 122 1081 b 72 1031 94 1081 72 1058 z m 394 1206 l 394 1213 b 344 1263 394 1240 372 1263 l 3 1263 b -47 1213 -25 1263 -47 1240 l -47 1206 b 3 1156 -47 1178 -25 1156 l 344 1156 b 394 1206 372 1156 394 1178 z "},"Į":{"ha":347,"x_min":0,"x_max":0,"o":"m 72 217 b 19 167 42 217 19 194 l 19 50 b 69 0 19 22 42 0 l 278 0 b 328 50 306 0 328 22 l 328 167 b 278 217 328 194 306 217 l 278 1031 b 226 1081 278 1058 254 1081 l 122 1081 b 72 1031 94 1081 72 1058 z m 153 7 b 113 -110 122 -46 113 -72 b 328 -279 113 -243 218 -294 l 328 -182 b 210 -85 257 -201 210 -156 b 239 7 210 -51 217 -29 z "},"Ĩ":{"ha":347,"x_min":0,"x_max":0,"o":"m 72 217 b 19 167 42 217 19 194 l 19 50 b 69 0 19 22 42 0 l 278 0 b 328 50 306 0 328 22 l 328 167 b 278 217 328 194 306 217 l 278 1031 b 226 1081 278 1058 254 1081 l 122 1081 b 72 1031 94 1081 72 1058 z m 257 1303 b 224 1258 254 1282 246 1258 b 94 1303 186 1258 132 1303 b 1 1156 11 1303 3 1208 l 90 1156 b 125 1196 92 1172 96 1196 b 246 1150 167 1196 210 1150 b 344 1303 329 1150 340 1239 z "},"Ĳ":{"ha":950,"x_min":0,"x_max":0,"o":"m 72 217 b 19 167 42 217 19 194 l 19 50 b 69 0 19 22 42 0 l 278 0 b 328 50 306 0 328 22 l 328 167 b 278 217 328 194 306 217 l 278 1031 b 226 1081 278 1058 254 1081 l 122 1081 b 72 1031 94 1081 72 1058 z m 625 1031 l 625 914 b 675 864 625 886 647 864 l 678 217 l 569 217 l 569 324 b 519 374 569 351 547 374 l 425 374 b 375 324 397 374 375 351 l 375 242 b 446 31 375 172 376 82 b 568 0 486 0 529 0 l 688 0 b 881 258 838 0 881 114 l 881 1081 l 675 1081 b 625 1031 647 1081 625 1058 z "},"Ĵ":{"ha":603,"x_min":0,"x_max":0,"o":"m 278 1031 l 278 914 b 328 864 278 886 300 864 l 331 217 l 222 217 l 222 324 b 172 374 222 351 200 374 l 78 374 b 28 324 50 374 28 351 l 28 242 b 99 31 28 172 29 82 b 221 0 139 0 182 0 l 340 0 b 533 258 490 0 533 114 l 533 1081 l 328 1081 b 278 1031 300 1081 278 1058 z m 204 1156 l 308 1156 l 422 1265 l 535 1156 l 639 1156 l 508 1361 l 335 1361 z "},"Ķ":{"ha":671,"x_min":0,"x_max":0,"o":"m 435 1046 l 290 610 l 276 611 l 276 1031 b 226 1081 276 1058 254 1081 l 122 1081 b 72 1031 94 1081 72 1058 l 72 217 b 21 167 43 217 21 194 l 21 50 b 71 0 21 22 43 0 l 226 0 b 276 50 254 0 276 22 l 276 417 l 407 417 l 407 50 b 457 0 407 22 429 0 l 613 0 b 663 50 640 0 663 22 l 663 167 b 613 217 663 194 640 217 l 606 217 l 606 557 b 556 607 606 585 583 607 l 465 607 l 569 864 l 590 864 b 640 914 618 864 640 886 l 640 1031 b 590 1081 640 1058 618 1081 l 482 1081 b 435 1046 460 1081 442 1067 z m 435 -154 b 331 -24 435 -81 393 -24 b 236 -126 275 -24 236 -75 b 313 -215 236 -187 272 -215 b 328 -211 319 -215 324 -211 b 335 -235 333 -211 335 -218 b 249 -361 335 -306 297 -329 b 256 -383 244 -362 250 -378 b 276 -397 261 -390 272 -399 b 435 -154 372 -343 435 -261 z "},"Ĺ":{"ha":603,"x_min":0,"x_max":0,"o":"m 74 217 b 24 167 46 217 24 194 l 24 50 b 74 0 24 22 46 0 l 524 0 b 574 50 551 0 574 22 l 574 358 b 524 408 574 386 551 408 l 436 408 b 386 358 408 408 386 386 l 386 217 l 275 217 l 275 1031 b 225 1081 275 1058 253 1081 l 124 1081 b 74 1031 96 1081 74 1058 z m 108 1169 b 114 1156 103 1163 106 1156 l 219 1156 b 242 1165 228 1156 235 1158 l 407 1318 b 399 1335 413 1325 410 1335 l 246 1335 b 226 1325 238 1335 231 1332 z "},"Ľ":{"ha":603,"x_min":0,"x_max":0,"o":"m 74 217 b 24 167 46 217 24 194 l 24 50 b 74 0 24 22 46 0 l 524 0 b 574 50 551 0 574 22 l 574 358 b 524 408 574 386 551 408 l 436 408 b 386 358 408 408 386 386 l 386 217 l 275 217 l 275 1031 b 225 1081 275 1058 253 1081 l 124 1081 b 74 1031 96 1081 74 1058 z m 499 1225 b 394 1356 499 1299 457 1356 b 300 1253 339 1356 300 1304 b 376 1164 300 1192 336 1164 b 392 1168 383 1164 388 1168 b 399 1144 397 1168 399 1161 b 313 1018 399 1074 361 1050 b 319 996 308 1017 314 1001 b 340 982 325 989 336 981 b 499 1225 436 1036 499 1118 z "},"Ļ":{"ha":603,"x_min":0,"x_max":0,"o":"m 74 217 b 24 167 46 217 24 194 l 24 50 b 74 0 24 22 46 0 l 524 0 b 574 50 551 0 574 22 l 574 358 b 524 408 574 386 551 408 l 436 408 b 386 358 408 408 386 386 l 386 217 l 275 217 l 275 1031 b 225 1081 275 1058 253 1081 l 124 1081 b 74 1031 96 1081 74 1058 z m 400 -154 b 296 -24 400 -81 358 -24 b 201 -126 240 -24 201 -75 b 278 -215 201 -187 238 -215 b 293 -211 285 -215 289 -211 b 300 -235 299 -211 300 -218 b 214 -361 300 -306 263 -329 b 221 -383 210 -362 215 -378 b 242 -397 226 -390 238 -399 b 400 -154 338 -343 400 -261 z "},"Ŀ":{"ha":603,"x_min":0,"x_max":0,"o":"m 74 217 b 24 167 46 217 24 194 l 24 50 b 74 0 24 22 46 0 l 524 0 b 574 50 551 0 574 22 l 574 358 b 524 408 574 386 551 408 l 436 408 b 386 358 408 408 386 386 l 386 217 l 275 217 l 275 1031 b 225 1081 275 1058 253 1081 l 124 1081 b 74 1031 96 1081 74 1058 z m 331 875 b 438 768 331 815 378 768 b 543 875 496 768 543 815 b 438 981 543 933 496 981 b 331 875 378 981 331 933 z "},"Ł":{"ha":603,"x_min":0,"x_max":0,"o":"m 0 849 l 0 724 l 460 724 l 460 849 z m 74 217 b 24 167 46 217 24 194 l 24 50 b 74 0 24 22 46 0 l 524 0 b 574 50 551 0 574 22 l 574 358 b 524 408 574 386 551 408 l 436 408 b 386 358 408 408 386 386 l 386 217 l 275 217 l 275 1031 b 225 1081 275 1058 253 1081 l 124 1081 b 74 1031 96 1081 74 1058 z "},"Ń":{"ha":742,"x_min":0,"x_max":0,"o":"m 496 1031 l 496 647 b 503 446 496 564 496 538 l 488 444 b 439 606 468 504 458 556 l 276 1047 b 229 1081 268 1068 250 1081 l 124 1081 b 74 1031 96 1081 74 1058 l 74 217 b 22 167 44 217 22 194 l 22 50 b 72 0 22 22 44 0 l 204 0 b 254 50 232 0 254 22 l 254 525 b 244 629 254 558 250 589 l 260 631 b 324 419 278 558 288 521 b 468 39 368 299 422 163 b 526 0 478 14 500 0 l 674 0 b 724 50 701 0 724 22 l 724 167 b 674 217 724 194 701 217 l 674 1031 b 622 1081 674 1058 650 1081 l 546 1081 b 496 1031 518 1081 496 1058 z m 263 1169 b 268 1156 257 1163 260 1156 l 374 1156 b 396 1165 382 1156 389 1158 l 561 1318 b 553 1335 567 1325 564 1335 l 400 1335 b 381 1325 392 1335 385 1332 z "},"Ň":{"ha":742,"x_min":0,"x_max":0,"o":"m 496 1031 l 496 647 b 503 446 496 564 496 538 l 488 444 b 439 606 468 504 458 556 l 276 1047 b 229 1081 268 1068 250 1081 l 124 1081 b 74 1031 96 1081 74 1058 l 74 217 b 22 167 44 217 22 194 l 22 50 b 72 0 22 22 44 0 l 204 0 b 254 50 232 0 254 22 l 254 525 b 244 629 254 558 250 589 l 260 631 b 324 419 278 558 288 521 b 468 39 368 299 422 163 b 526 0 478 14 500 0 l 674 0 b 724 50 701 0 724 22 l 724 167 b 674 217 724 194 701 217 l 674 1031 b 622 1081 674 1058 650 1081 l 546 1081 b 496 1031 518 1081 496 1058 z m 369 1258 l 299 1363 l 169 1363 l 296 1156 l 447 1156 l 571 1363 l 440 1363 z "},"Ņ":{"ha":742,"x_min":0,"x_max":0,"o":"m 496 1031 l 496 647 b 503 446 496 564 496 538 l 488 444 b 439 606 468 504 458 556 l 276 1047 b 229 1081 268 1068 250 1081 l 124 1081 b 74 1031 96 1081 74 1058 l 74 217 b 22 167 44 217 22 194 l 22 50 b 72 0 22 22 44 0 l 204 0 b 254 50 232 0 254 22 l 254 525 b 244 629 254 558 250 589 l 260 631 b 324 419 278 558 288 521 b 468 39 368 299 422 163 b 526 0 478 14 500 0 l 674 0 b 724 50 701 0 724 22 l 724 167 b 674 217 724 194 701 217 l 674 1031 b 622 1081 674 1058 650 1081 l 546 1081 b 496 1031 518 1081 496 1058 z m 469 -154 b 365 -24 469 -81 428 -24 b 271 -126 310 -24 271 -75 b 347 -215 271 -187 307 -215 b 363 -211 354 -215 358 -211 b 369 -235 368 -211 369 -218 b 283 -361 369 -306 332 -329 b 290 -383 279 -362 285 -378 b 311 -397 296 -390 307 -399 b 469 -154 407 -343 469 -261 z "},"Ŏ":{"ha":625,"x_min":0,"x_max":0,"o":"m 229 1081 b 47 789 47 1075 47 924 l 47 257 b 249 0 47 92 86 0 l 392 0 b 583 307 583 0 583 167 l 583 771 b 383 1081 583 964 572 1081 z m 382 217 l 250 217 l 250 864 l 382 864 z m 101 1344 b 315 1151 115 1213 183 1151 b 529 1344 449 1151 514 1211 l 439 1344 b 315 1261 432 1293 397 1261 b 192 1344 240 1261 201 1286 z "},"Ő":{"ha":625,"x_min":0,"x_max":0,"o":"m 229 1081 b 47 789 47 1075 47 924 l 47 257 b 249 0 47 92 86 0 l 392 0 b 583 307 583 0 583 167 l 583 771 b 383 1081 583 964 572 1081 z m 382 217 l 250 217 l 250 864 l 382 864 z m 292 1331 l 171 1156 l 254 1156 l 419 1331 z m 468 1331 l 347 1156 l 431 1156 l 594 1331 z "},"Ō":{"ha":625,"x_min":0,"x_max":0,"o":"m 229 1081 b 47 789 47 1075 47 924 l 47 257 b 249 0 47 92 86 0 l 392 0 b 583 307 583 0 583 167 l 583 771 b 383 1081 583 964 572 1081 z m 382 217 l 250 217 l 250 864 l 382 864 z m 539 1206 l 539 1213 b 489 1263 539 1240 517 1263 l 147 1263 b 97 1213 119 1263 97 1240 l 97 1206 b 147 1156 97 1178 119 1156 l 489 1156 b 539 1206 517 1156 539 1178 z "},"Ǿ":{"ha":625,"x_min":0,"x_max":0,"o":"m 229 1081 b 47 789 47 1075 47 924 l 47 257 b 90 61 47 171 57 104 b 76 18 86 46 81 32 b 81 0 74 10 75 0 l 172 0 b 182 7 176 0 179 3 b 249 0 201 3 224 0 l 392 0 b 583 307 583 0 583 167 l 583 771 b 540 1019 583 882 579 967 l 556 1063 b 550 1081 560 1072 558 1081 l 461 1081 b 450 1074 457 1081 453 1078 b 383 1081 431 1078 408 1081 z m 250 510 l 250 864 l 376 864 z m 382 217 l 257 217 l 382 571 z m 204 1169 b 210 1156 199 1163 201 1156 l 315 1156 b 338 1165 324 1156 331 1158 l 503 1318 b 494 1335 508 1325 506 1335 l 342 1335 b 322 1325 333 1335 326 1332 z "},"Ŕ":{"ha":671,"x_min":0,"x_max":0,"o":"m 413 864 l 413 636 l 276 636 l 276 864 z m 72 217 b 22 167 44 217 22 194 l 22 50 b 72 0 22 22 44 0 l 214 0 b 276 61 249 0 276 28 l 276 444 l 413 444 l 413 107 b 519 0 413 11 443 0 l 613 0 b 663 50 640 0 663 22 l 663 167 b 613 217 663 194 639 217 l 613 339 b 490 543 613 438 588 507 b 613 833 613 599 613 693 b 428 1081 613 975 578 1081 l 122 1081 b 72 1031 94 1081 72 1058 z m 196 1169 b 201 1156 190 1163 193 1156 l 307 1156 b 329 1165 315 1156 322 1158 l 494 1318 b 486 1335 500 1325 497 1335 l 333 1335 b 314 1325 325 1335 318 1332 z "},"Ř":{"ha":671,"x_min":0,"x_max":0,"o":"m 413 864 l 413 636 l 276 636 l 276 864 z m 72 217 b 22 167 44 217 22 194 l 22 50 b 72 0 22 22 44 0 l 214 0 b 276 61 249 0 276 28 l 276 444 l 413 444 l 413 107 b 519 0 413 11 443 0 l 613 0 b 663 50 640 0 663 22 l 663 167 b 613 217 663 194 639 217 l 613 339 b 490 543 613 438 588 507 b 613 833 613 599 613 693 b 428 1081 613 975 578 1081 l 122 1081 b 72 1031 94 1081 72 1058 z m 335 1258 l 264 1363 l 135 1363 l 261 1156 l 413 1156 l 536 1363 l 406 1363 z "},"Ŗ":{"ha":671,"x_min":0,"x_max":0,"o":"m 413 864 l 413 636 l 276 636 l 276 864 z m 72 217 b 22 167 44 217 22 194 l 22 50 b 72 0 22 22 44 0 l 214 0 b 276 61 249 0 276 28 l 276 444 l 413 444 l 413 107 b 519 0 413 11 443 0 l 613 0 b 663 50 640 0 663 22 l 663 167 b 613 217 663 194 639 217 l 613 339 b 490 543 613 438 588 507 b 613 833 613 599 613 693 b 428 1081 613 975 578 1081 l 122 1081 b 72 1031 94 1081 72 1058 z m 435 -154 b 331 -24 435 -81 393 -24 b 236 -126 275 -24 236 -75 b 313 -215 236 -187 272 -215 b 328 -211 319 -215 324 -211 b 335 -235 333 -211 335 -218 b 249 -361 335 -306 297 -329 b 256 -383 244 -362 250 -378 b 276 -397 261 -390 272 -399 b 435 -154 372 -343 435 -261 z "},"Ś":{"ha":625,"x_min":0,"x_max":0,"o":"m 214 1081 b 42 858 85 1081 42 957 l 42 678 b 83 503 42 617 46 556 b 213 447 122 449 169 447 l 379 447 l 379 217 l 244 217 l 244 246 b 194 296 244 274 222 296 l 103 296 b 53 246 75 296 53 274 l 53 50 b 103 0 53 22 75 0 l 401 0 b 581 247 554 0 581 121 l 581 422 b 526 617 581 485 576 568 b 396 653 488 649 436 653 l 244 653 l 244 864 l 379 864 l 379 847 b 429 797 379 819 401 797 l 507 797 b 557 847 535 797 557 819 l 557 1031 b 507 1081 557 1058 535 1081 z m 204 1169 b 210 1156 199 1163 201 1156 l 315 1156 b 338 1165 324 1156 331 1158 l 503 1318 b 494 1335 508 1325 506 1335 l 342 1335 b 322 1325 333 1335 326 1332 z "},"Ş":{"ha":625,"x_min":0,"x_max":0,"o":"m 214 1081 b 42 858 85 1081 42 957 l 42 678 b 83 503 42 617 46 556 b 213 447 122 449 169 447 l 379 447 l 379 217 l 244 217 l 244 246 b 194 296 244 274 222 296 l 103 296 b 53 246 75 296 53 274 l 53 50 b 103 0 53 22 75 0 l 401 0 b 581 247 554 0 581 121 l 581 422 b 526 617 581 485 576 568 b 396 653 488 649 436 653 l 244 653 l 244 864 l 379 864 l 379 847 b 429 797 379 819 401 797 l 507 797 b 557 847 535 797 557 819 l 557 1031 b 507 1081 557 1058 535 1081 z m 342 24 l 246 24 l 246 -104 b 272 -101 256 -101 268 -101 b 332 -162 314 -101 332 -119 b 299 -208 332 -193 321 -208 b 261 -164 275 -208 264 -194 l 181 -164 b 293 -267 183 -236 218 -267 b 443 -147 369 -267 443 -222 b 342 -51 443 -81 413 -51 z "},"Ŝ":{"ha":625,"x_min":0,"x_max":0,"o":"m 214 1081 b 42 858 85 1081 42 957 l 42 678 b 83 503 42 617 46 556 b 213 447 122 449 169 447 l 379 447 l 379 217 l 244 217 l 244 246 b 194 296 244 274 222 296 l 103 296 b 53 246 75 296 53 274 l 53 50 b 103 0 53 22 75 0 l 401 0 b 581 247 554 0 581 121 l 581 422 b 526 617 581 485 576 568 b 396 653 488 649 436 653 l 244 653 l 244 864 l 379 864 l 379 847 b 429 797 379 819 401 797 l 507 797 b 557 847 535 797 557 819 l 557 1031 b 507 1081 557 1058 535 1081 z m 108 1156 l 213 1156 l 326 1265 l 439 1156 l 543 1156 l 413 1361 l 239 1361 z "},"Ŧ":{"ha":694,"x_min":0,"x_max":0,"o":"m 15 1031 l 15 781 b 65 731 15 753 38 731 l 104 731 b 154 781 132 731 154 753 l 154 864 l 249 864 l 249 217 b 196 167 218 217 196 194 l 196 50 b 246 0 196 22 218 0 l 451 0 b 501 50 479 0 501 22 l 501 167 b 451 217 501 194 479 217 l 451 864 l 543 864 l 543 781 b 593 731 543 753 565 731 l 632 731 b 682 781 660 731 682 753 l 682 1031 b 632 1081 682 1058 660 1081 l 65 1081 b 15 1031 38 1081 15 1058 z m 568 596 l 568 603 b 518 653 568 631 546 653 l 176 653 b 126 603 149 653 126 631 l 126 596 b 176 546 126 568 149 546 l 518 546 b 568 596 546 546 568 568 z "},"Ť":{"ha":694,"x_min":0,"x_max":0,"o":"m 15 1031 l 15 781 b 65 731 15 753 38 731 l 104 731 b 154 781 132 731 154 753 l 154 864 l 249 864 l 249 217 b 196 167 218 217 196 194 l 196 50 b 246 0 196 22 218 0 l 451 0 b 501 50 479 0 501 22 l 501 167 b 451 217 501 194 479 217 l 451 864 l 543 864 l 543 781 b 593 731 543 753 565 731 l 632 731 b 682 781 660 731 682 753 l 682 1031 b 632 1081 682 1058 660 1081 l 65 1081 b 15 1031 38 1081 15 1058 z m 346 1258 l 275 1363 l 146 1363 l 272 1156 l 424 1156 l 547 1363 l 417 1363 z "},"Ţ":{"ha":694,"x_min":0,"x_max":0,"o":"m 15 1031 l 15 781 b 65 731 15 753 38 731 l 104 731 b 154 781 132 731 154 753 l 154 864 l 249 864 l 249 217 b 196 167 218 217 196 194 l 196 50 b 246 0 196 22 218 0 l 451 0 b 501 50 479 0 501 22 l 501 167 b 451 217 501 194 479 217 l 451 864 l 543 864 l 543 781 b 593 731 543 753 565 731 l 632 731 b 682 781 660 731 682 753 l 682 1031 b 632 1081 682 1058 660 1081 l 65 1081 b 15 1031 38 1081 15 1058 z m 446 -154 b 342 -24 446 -81 404 -24 b 247 -126 286 -24 247 -75 b 324 -215 247 -187 283 -215 b 339 -211 331 -215 335 -211 b 346 -235 344 -211 346 -218 b 260 -361 346 -306 308 -329 b 267 -383 256 -362 261 -378 b 288 -397 272 -390 283 -399 b 446 -154 383 -343 446 -261 z "},"Ŭ":{"ha":671,"x_min":0,"x_max":0,"o":"m 74 257 b 242 0 74 110 106 0 l 426 0 b 604 289 585 0 604 149 l 604 1018 b 542 1081 604 1053 576 1081 l 463 1081 b 401 1018 429 1081 401 1053 l 401 217 l 276 217 l 276 1018 b 214 1081 276 1053 249 1081 l 135 1081 b 74 1018 101 1081 74 1053 z m 124 1344 b 338 1151 138 1213 206 1151 b 551 1344 471 1151 536 1211 l 461 1344 b 338 1261 454 1293 419 1261 b 214 1344 263 1261 224 1286 z "},"Ű":{"ha":671,"x_min":0,"x_max":0,"o":"m 74 257 b 242 0 74 110 106 0 l 426 0 b 604 289 585 0 604 149 l 604 1018 b 542 1081 604 1053 576 1081 l 463 1081 b 401 1018 429 1081 401 1053 l 401 217 l 276 217 l 276 1018 b 214 1081 276 1053 249 1081 l 135 1081 b 74 1018 101 1081 74 1053 z m 300 1331 l 179 1156 l 263 1156 l 428 1331 z m 476 1331 l 356 1156 l 439 1156 l 603 1331 z "},"Ū":{"ha":671,"x_min":0,"x_max":0,"o":"m 74 257 b 242 0 74 110 106 0 l 426 0 b 604 289 585 0 604 149 l 604 1018 b 542 1081 604 1053 576 1081 l 463 1081 b 401 1018 429 1081 401 1053 l 401 217 l 276 217 l 276 1018 b 214 1081 276 1053 249 1081 l 135 1081 b 74 1018 101 1081 74 1053 z m 561 1206 l 561 1213 b 511 1263 561 1240 539 1263 l 169 1263 b 119 1213 142 1263 119 1240 l 119 1206 b 169 1156 119 1178 142 1156 l 511 1156 b 561 1206 539 1156 561 1178 z "},"Ų":{"ha":671,"x_min":0,"x_max":0,"o":"m 74 257 b 242 0 74 110 106 0 l 426 0 b 604 289 585 0 604 149 l 604 1018 b 542 1081 604 1053 576 1081 l 463 1081 b 401 1018 429 1081 401 1053 l 401 217 l 276 217 l 276 1018 b 214 1081 276 1053 249 1081 l 135 1081 b 74 1018 101 1081 74 1053 z m 371 7 b 331 -110 340 -46 331 -72 b 546 -279 331 -243 436 -294 l 546 -182 b 428 -85 475 -201 428 -156 b 457 7 428 -51 435 -29 z "},"Ů":{"ha":671,"x_min":0,"x_max":0,"o":"m 74 257 b 242 0 74 110 106 0 l 426 0 b 604 289 585 0 604 149 l 604 1018 b 542 1081 604 1053 576 1081 l 463 1081 b 401 1018 429 1081 401 1053 l 401 217 l 276 217 l 276 1018 b 214 1081 276 1053 249 1081 l 135 1081 b 74 1018 101 1081 74 1053 z m 251 1188 b 339 1151 275 1165 307 1151 b 463 1275 406 1151 463 1207 b 339 1399 463 1343 407 1399 b 215 1275 269 1399 215 1342 b 251 1188 215 1243 229 1211 z m 303 1239 b 288 1275 293 1247 288 1261 b 339 1326 288 1303 311 1326 b 390 1275 367 1326 390 1303 b 339 1224 390 1246 367 1224 b 303 1239 325 1224 313 1229 z "},"Ũ":{"ha":671,"x_min":0,"x_max":0,"o":"m 74 257 b 242 0 74 110 106 0 l 426 0 b 604 289 585 0 604 149 l 604 1018 b 542 1081 604 1053 576 1081 l 463 1081 b 401 1018 429 1081 401 1053 l 401 217 l 276 217 l 276 1018 b 214 1081 276 1053 249 1081 l 135 1081 b 74 1018 101 1081 74 1053 z m 424 1303 b 390 1258 421 1282 413 1258 b 261 1303 353 1258 299 1303 b 168 1156 178 1303 169 1208 l 257 1156 b 292 1196 258 1172 263 1196 b 413 1150 333 1196 376 1150 b 511 1303 496 1150 507 1239 z "},"Ẃ":{"ha":1019,"x_min":0,"x_max":0,"o":"m 206 0 l 372 0 b 422 43 397 0 418 18 b 486 492 443 192 467 343 b 503 622 494 549 497 576 l 507 656 l 521 656 b 538 510 521 656 531 554 l 606 43 b 654 0 608 18 629 0 l 822 0 b 872 44 849 0 869 18 b 967 864 903 317 936 593 b 1019 914 997 864 1019 886 l 1019 1031 b 969 1081 1019 1058 997 1081 l 854 1081 b 804 1035 828 1081 807 1061 l 747 449 b 732 222 739 371 738 346 l 718 222 b 690 479 708 332 706 361 l 614 1038 b 564 1081 610 1063 589 1081 l 472 1081 b 422 1038 446 1081 425 1063 l 342 468 b 314 207 324 342 321 303 l 300 207 b 286 442 296 322 294 356 l 228 1036 b 178 1081 225 1061 203 1081 l 86 1081 b 36 1025 56 1081 33 1054 l 156 44 b 206 0 160 18 181 0 z m 463 1169 b 468 1156 457 1163 460 1156 l 574 1156 b 596 1165 582 1156 589 1158 l 761 1318 b 753 1335 767 1325 764 1335 l 600 1335 b 581 1325 592 1335 585 1332 z "},"Ŵ":{"ha":1019,"x_min":0,"x_max":0,"o":"m 206 0 l 372 0 b 422 43 397 0 418 18 b 486 492 443 192 467 343 b 503 622 494 549 497 576 l 507 656 l 521 656 b 538 510 521 656 531 554 l 606 43 b 654 0 608 18 629 0 l 822 0 b 872 44 849 0 869 18 b 967 864 903 317 936 593 b 1019 914 997 864 1019 886 l 1019 1031 b 969 1081 1019 1058 997 1081 l 854 1081 b 804 1035 828 1081 807 1061 l 747 449 b 732 222 739 371 738 346 l 718 222 b 690 479 708 332 706 361 l 614 1038 b 564 1081 610 1063 589 1081 l 472 1081 b 422 1038 446 1081 425 1063 l 342 468 b 314 207 324 342 321 303 l 300 207 b 286 442 296 322 294 356 l 228 1036 b 178 1081 225 1061 203 1081 l 86 1081 b 36 1025 56 1081 33 1054 l 156 44 b 206 0 160 18 181 0 z m 297 1156 l 401 1156 l 515 1265 l 628 1156 l 732 1156 l 601 1361 l 428 1361 z "},"Ẅ":{"ha":1019,"x_min":0,"x_max":0,"o":"m 206 0 l 372 0 b 422 43 397 0 418 18 b 486 492 443 192 467 343 b 503 622 494 549 497 576 l 507 656 l 521 656 b 538 510 521 656 531 554 l 606 43 b 654 0 608 18 629 0 l 822 0 b 872 44 849 0 869 18 b 967 864 903 317 936 593 b 1019 914 997 864 1019 886 l 1019 1031 b 969 1081 1019 1058 997 1081 l 854 1081 b 804 1035 828 1081 807 1061 l 747 449 b 732 222 739 371 738 346 l 718 222 b 690 479 708 332 706 361 l 614 1038 b 564 1081 610 1063 589 1081 l 472 1081 b 422 1038 446 1081 425 1063 l 342 468 b 314 207 324 342 321 303 l 300 207 b 286 442 296 322 294 356 l 228 1036 b 178 1081 225 1061 203 1081 l 86 1081 b 36 1025 56 1081 33 1054 l 156 44 b 206 0 160 18 181 0 z m 288 1247 b 383 1151 288 1194 331 1151 b 479 1247 436 1151 479 1194 b 383 1343 479 1300 436 1343 b 288 1247 331 1343 288 1300 z m 549 1247 b 644 1151 549 1194 592 1151 b 740 1247 697 1151 740 1194 b 644 1343 740 1300 697 1343 b 549 1247 592 1343 549 1300 z "},"Ẁ":{"ha":1019,"x_min":0,"x_max":0,"o":"m 206 0 l 372 0 b 422 43 397 0 418 18 b 486 492 443 192 467 343 b 503 622 494 549 497 576 l 507 656 l 521 656 b 538 510 521 656 531 554 l 606 43 b 654 0 608 18 629 0 l 822 0 b 872 44 849 0 869 18 b 967 864 903 317 936 593 b 1019 914 997 864 1019 886 l 1019 1031 b 969 1081 1019 1058 997 1081 l 854 1081 b 804 1035 828 1081 807 1061 l 747 449 b 732 222 739 371 738 346 l 718 222 b 690 479 708 332 706 361 l 614 1038 b 564 1081 610 1063 589 1081 l 472 1081 b 422 1038 446 1081 425 1063 l 342 468 b 314 207 324 342 321 303 l 300 207 b 286 442 296 322 294 356 l 228 1036 b 178 1081 225 1061 203 1081 l 86 1081 b 36 1025 56 1081 33 1054 l 156 44 b 206 0 160 18 181 0 z m 589 1169 l 471 1325 b 451 1335 467 1332 460 1335 l 299 1335 b 290 1318 288 1335 285 1325 l 456 1165 b 478 1156 463 1158 469 1156 l 583 1156 b 589 1169 592 1156 594 1163 z "},"Ŷ":{"ha":603,"x_min":0,"x_max":0,"o":"m 204 440 l 204 217 l 197 217 b 149 168 171 217 149 194 l 149 49 b 197 0 149 22 171 0 l 406 0 b 454 49 433 0 454 22 l 454 168 b 406 217 454 194 433 217 l 400 217 l 400 440 l 596 1017 b 549 1081 606 1047 582 1081 l 444 1081 b 399 1046 424 1081 404 1067 b 311 717 319 771 317 757 b 310 708 311 714 310 710 l 296 708 b 283 783 292 740 290 751 l 214 1044 b 167 1081 208 1067 189 1081 l 56 1081 b 10 1017 22 1081 -1 1047 z m 86 1156 l 190 1156 l 304 1265 l 417 1156 l 521 1156 l 390 1361 l 217 1361 z "},"Ỳ":{"ha":603,"x_min":0,"x_max":0,"o":"m 204 440 l 204 217 l 197 217 b 149 168 171 217 149 194 l 149 49 b 197 0 149 22 171 0 l 406 0 b 454 49 433 0 454 22 l 454 168 b 406 217 454 194 433 217 l 400 217 l 400 440 l 596 1017 b 549 1081 606 1047 582 1081 l 444 1081 b 399 1046 424 1081 404 1067 b 311 717 319 771 317 757 b 310 708 311 714 310 710 l 296 708 b 283 783 292 740 290 751 l 214 1044 b 167 1081 208 1067 189 1081 l 56 1081 b 10 1017 22 1081 -1 1047 z m 408 1169 l 290 1325 b 271 1335 286 1332 279 1335 l 118 1335 b 110 1318 107 1335 104 1325 l 275 1165 b 297 1156 282 1158 289 1156 l 403 1156 b 408 1169 411 1156 414 1163 z "},"Ź":{"ha":579,"x_min":0,"x_max":0,"o":"m 79 810 l 135 810 b 185 864 163 810 185 832 l 315 864 l 19 219 l 19 50 b 69 0 19 22 42 0 l 506 0 b 556 50 533 0 556 22 l 556 256 b 506 306 556 283 533 306 l 447 306 b 397 256 419 306 397 283 l 397 217 l 251 217 l 547 874 l 547 1031 b 497 1081 547 1058 525 1081 l 79 1081 b 29 1031 51 1081 29 1058 l 29 860 b 79 810 29 832 51 810 z m 182 1169 b 188 1156 176 1163 179 1156 l 293 1156 b 315 1165 301 1156 308 1158 l 481 1318 b 472 1335 486 1325 483 1335 l 319 1335 b 300 1325 311 1335 304 1332 z "},"Ż":{"ha":579,"x_min":0,"x_max":0,"o":"m 79 810 l 135 810 b 185 864 163 810 185 832 l 315 864 l 19 219 l 19 50 b 69 0 19 22 42 0 l 506 0 b 556 50 533 0 556 22 l 556 256 b 506 306 556 283 533 306 l 447 306 b 397 256 419 306 397 283 l 397 217 l 251 217 l 547 874 l 547 1031 b 497 1081 547 1058 525 1081 l 79 1081 b 29 1031 51 1081 29 1058 l 29 860 b 79 810 29 832 51 810 z m 221 1176 b 289 1149 239 1158 264 1149 b 385 1244 342 1149 385 1192 b 289 1340 385 1297 342 1340 b 193 1244 236 1340 193 1297 b 221 1176 193 1219 203 1194 z "},"ă":{"ha":556,"x_min":0,"x_max":0,"o":"m 321 283 l 321 165 l 199 165 l 199 283 z m 321 97 l 321 0 l 504 0 b 547 43 528 0 547 19 l 547 143 b 504 186 547 167 528 186 l 496 186 l 496 556 b 376 721 496 635 463 721 l 164 721 b 47 558 72 721 47 646 l 47 544 b 90 501 47 521 67 501 l 156 501 b 199 544 179 501 199 521 l 199 554 l 321 554 l 321 407 l 139 407 b 32 261 67 407 32 382 l 32 156 b 132 0 32 79 46 0 l 203 0 b 242 19 218 0 229 7 z m 58 964 b 272 771 72 832 140 771 b 486 964 406 771 471 831 l 396 964 b 272 881 389 913 354 881 b 149 964 197 881 158 906 z "},"ā":{"ha":556,"x_min":0,"x_max":0,"o":"m 321 283 l 321 165 l 199 165 l 199 283 z m 321 97 l 321 0 l 504 0 b 547 43 528 0 547 19 l 547 143 b 504 186 547 167 528 186 l 496 186 l 496 556 b 376 721 496 635 463 721 l 164 721 b 47 558 72 721 47 646 l 47 544 b 90 501 47 521 67 501 l 156 501 b 199 544 179 501 199 521 l 199 554 l 321 554 l 321 407 l 139 407 b 32 261 67 407 32 382 l 32 156 b 132 0 32 79 46 0 l 203 0 b 242 19 218 0 229 7 z m 499 825 l 499 832 b 449 882 499 860 476 882 l 107 882 b 57 832 79 882 57 860 l 57 825 b 107 775 57 797 79 775 l 449 775 b 499 825 476 775 499 797 z "},"ą":{"ha":556,"x_min":0,"x_max":0,"o":"m 321 283 l 321 165 l 199 165 l 199 283 z m 321 97 l 321 0 l 504 0 b 547 43 528 0 547 19 l 547 143 b 504 186 547 167 528 186 l 496 186 l 496 556 b 376 721 496 635 463 721 l 164 721 b 47 558 72 721 47 646 l 47 544 b 90 501 47 521 67 501 l 156 501 b 199 544 179 501 199 521 l 199 554 l 321 554 l 321 407 l 139 407 b 32 261 67 407 32 382 l 32 156 b 132 0 32 79 46 0 l 203 0 b 242 19 218 0 229 7 z m 372 7 b 332 -110 342 -46 332 -72 b 547 -279 332 -243 438 -294 l 547 -182 b 429 -85 476 -201 429 -156 b 458 7 429 -51 436 -29 z "},"ǽ":{"ha":1088,"x_min":0,"x_max":0,"o":"m 761 553 b 628 721 761 689 729 721 l 164 721 b 47 558 72 721 47 646 l 47 544 b 90 501 47 521 67 501 l 156 501 b 199 544 179 501 199 521 l 199 554 l 321 554 l 321 407 l 139 407 b 32 261 67 407 32 382 l 32 156 b 132 0 32 79 46 0 l 242 0 l 318 94 b 442 0 331 19 369 0 l 650 0 b 735 36 678 0 708 0 b 761 165 761 74 761 118 l 761 186 b 713 235 761 213 739 235 l 643 235 b 594 186 617 235 594 213 l 594 165 l 496 165 l 496 314 l 713 314 b 761 363 739 314 761 336 z m 594 442 l 496 442 l 496 557 l 594 557 z m 321 283 l 321 165 l 199 165 l 199 283 z m 261 789 b 267 775 256 782 258 775 l 372 775 b 394 785 381 775 388 778 l 560 938 b 551 954 565 944 563 954 l 399 954 b 379 944 390 954 383 951 z "},"ć":{"ha":486,"x_min":0,"x_max":0,"o":"m 457 558 b 331 721 457 649 422 721 l 169 721 b 43 474 49 721 43 653 l 43 175 b 181 0 43 81 63 0 l 339 0 b 457 174 442 0 457 51 l 457 192 b 414 235 457 215 438 235 l 347 235 b 304 192 324 235 304 215 l 304 186 l 219 186 l 219 533 l 304 533 l 304 528 b 347 485 304 504 324 485 l 414 485 b 457 528 438 485 457 504 z m 135 789 b 140 775 129 782 132 775 l 246 775 b 268 785 254 775 261 778 l 433 938 b 425 954 439 944 436 954 l 272 954 b 253 944 264 954 257 951 z "},"č":{"ha":486,"x_min":0,"x_max":0,"o":"m 457 558 b 331 721 457 649 422 721 l 169 721 b 43 474 49 721 43 653 l 43 175 b 181 0 43 81 63 0 l 339 0 b 457 174 442 0 457 51 l 457 192 b 414 235 457 215 438 235 l 347 235 b 304 192 324 235 304 215 l 304 186 l 219 186 l 219 533 l 304 533 l 304 528 b 347 485 304 504 324 485 l 414 485 b 457 528 438 485 457 504 z m 242 878 l 171 982 l 42 982 l 168 775 l 319 775 l 443 982 l 313 982 z "},"ĉ":{"ha":486,"x_min":0,"x_max":0,"o":"m 457 558 b 331 721 457 649 422 721 l 169 721 b 43 474 49 721 43 653 l 43 175 b 181 0 43 81 63 0 l 339 0 b 457 174 442 0 457 51 l 457 192 b 414 235 457 215 438 235 l 347 235 b 304 192 324 235 304 215 l 304 186 l 219 186 l 219 533 l 304 533 l 304 528 b 347 485 304 504 324 485 l 414 485 b 457 528 438 485 457 504 z m 25 775 l 129 775 l 243 885 l 356 775 l 460 775 l 329 981 l 156 981 z "},"ċ":{"ha":486,"x_min":0,"x_max":0,"o":"m 457 558 b 331 721 457 649 422 721 l 169 721 b 43 474 49 721 43 653 l 43 175 b 181 0 43 81 63 0 l 339 0 b 457 174 442 0 457 51 l 457 192 b 414 235 457 215 438 235 l 347 235 b 304 192 324 235 304 215 l 304 186 l 219 186 l 219 533 l 304 533 l 304 528 b 347 485 304 504 324 485 l 414 485 b 457 528 438 485 457 504 z m 175 789 b 243 761 193 771 218 761 b 339 857 296 761 339 804 b 243 953 339 910 296 953 b 147 857 190 953 147 910 b 175 789 147 832 157 807 z "},"ď":{"ha":751,"x_min":0,"x_max":0,"o":"m 324 186 l 222 186 l 222 539 l 324 539 z m 324 1043 l 324 628 l 264 703 b 225 721 254 714 240 721 l 153 721 b 46 558 67 721 46 636 l 46 154 b 168 0 46 68 72 0 l 217 0 b 256 19 232 0 246 6 l 324 107 l 324 43 b 367 0 324 19 343 0 l 504 0 b 547 43 528 0 547 19 l 547 143 b 504 186 547 167 528 186 l 496 186 l 496 1043 b 453 1086 496 1067 476 1086 l 367 1086 b 324 1043 343 1086 324 1067 z m 732 960 b 628 1090 732 1033 690 1090 b 533 988 572 1090 533 1039 b 610 899 533 926 569 899 b 625 903 617 899 621 903 b 632 879 631 903 632 896 b 546 753 632 808 594 785 b 553 731 542 751 547 736 b 574 717 558 724 569 715 b 732 960 669 771 732 853 z "},"đ":{"ha":556,"x_min":0,"x_max":0,"o":"m 192 844 l 489 844 l 489 981 l 192 981 z m 324 186 l 222 186 l 222 539 l 324 539 z m 324 1043 l 324 628 l 264 703 b 225 721 254 714 240 721 l 153 721 b 46 558 67 721 46 636 l 46 154 b 168 0 46 68 72 0 l 217 0 b 256 19 232 0 246 6 l 324 107 l 324 43 b 367 0 324 19 343 0 l 504 0 b 547 43 528 0 547 19 l 547 143 b 504 186 547 167 528 186 l 496 186 l 496 1043 b 453 1086 496 1067 476 1086 l 367 1086 b 324 1043 343 1086 324 1067 z "},"ĕ":{"ha":532,"x_min":0,"x_max":0,"o":"m 324 442 l 225 442 l 225 557 l 324 557 z m 490 553 b 357 721 490 689 458 721 l 160 721 b 44 522 58 721 44 619 l 44 176 b 171 0 44 32 78 0 l 379 0 b 464 36 407 0 438 0 b 490 165 490 74 490 118 l 490 186 b 442 235 490 213 468 235 l 372 235 b 324 186 346 235 324 213 l 324 165 l 225 165 l 225 314 l 442 314 b 490 363 468 314 490 336 z m 47 964 b 261 771 61 832 129 771 b 475 964 394 771 460 831 l 385 964 b 261 881 378 913 343 881 b 138 964 186 881 147 906 z "},"ě":{"ha":532,"x_min":0,"x_max":0,"o":"m 324 442 l 225 442 l 225 557 l 324 557 z m 490 553 b 357 721 490 689 458 721 l 160 721 b 44 522 58 721 44 619 l 44 176 b 171 0 44 32 78 0 l 379 0 b 464 36 407 0 438 0 b 490 165 490 74 490 118 l 490 186 b 442 235 490 213 468 235 l 372 235 b 324 186 346 235 324 213 l 324 165 l 225 165 l 225 314 l 442 314 b 490 363 468 314 490 336 z m 265 878 l 194 982 l 65 982 l 192 775 l 343 775 l 467 982 l 336 982 z "},"ė":{"ha":532,"x_min":0,"x_max":0,"o":"m 324 442 l 225 442 l 225 557 l 324 557 z m 490 553 b 357 721 490 689 458 721 l 160 721 b 44 522 58 721 44 619 l 44 176 b 171 0 44 32 78 0 l 379 0 b 464 36 407 0 438 0 b 490 165 490 74 490 118 l 490 186 b 442 235 490 213 468 235 l 372 235 b 324 186 346 235 324 213 l 324 165 l 225 165 l 225 314 l 442 314 b 490 363 468 314 490 336 z m 197 789 b 265 761 215 771 240 761 b 361 857 318 761 361 804 b 265 953 361 910 318 953 b 169 857 213 953 169 910 b 197 789 169 832 179 807 z "},"ē":{"ha":532,"x_min":0,"x_max":0,"o":"m 324 442 l 225 442 l 225 557 l 324 557 z m 490 553 b 357 721 490 689 458 721 l 160 721 b 44 522 58 721 44 619 l 44 176 b 171 0 44 32 78 0 l 379 0 b 464 36 407 0 438 0 b 490 165 490 74 490 118 l 490 186 b 442 235 490 213 468 235 l 372 235 b 324 186 346 235 324 213 l 324 165 l 225 165 l 225 314 l 442 314 b 490 363 468 314 490 336 z m 486 825 l 486 832 b 436 882 486 860 464 882 l 94 882 b 44 832 67 882 44 860 l 44 825 b 94 775 44 797 67 775 l 436 775 b 486 825 464 775 486 797 z "},"ę":{"ha":532,"x_min":0,"x_max":0,"o":"m 324 442 l 225 442 l 225 557 l 324 557 z m 490 553 b 357 721 490 689 458 721 l 160 721 b 44 522 58 721 44 619 l 44 176 b 171 0 44 32 78 0 l 379 0 b 464 36 407 0 438 0 b 490 165 490 74 490 118 l 490 186 b 442 235 490 213 468 235 l 372 235 b 324 186 346 235 324 213 l 324 165 l 225 165 l 225 314 l 442 314 b 490 363 468 314 490 336 z m 315 7 b 275 -110 285 -46 275 -72 b 490 -279 275 -243 381 -294 l 490 -182 b 372 -85 419 -201 372 -156 b 401 7 372 -51 379 -29 z "},"ğ":{"ha":556,"x_min":0,"x_max":0,"o":"m 321 186 l 219 186 l 219 533 l 321 533 z m 315 672 l 315 626 l 251 703 b 214 721 243 715 229 721 l 172 721 b 44 536 54 721 44 653 l 44 139 b 150 0 44 29 75 0 l 215 0 b 253 18 229 0 243 6 b 321 103 275 46 304 81 l 321 -139 l 219 -139 l 219 -118 b 171 -69 219 -92 197 -69 l 107 -69 b 58 -118 81 -69 58 -92 l 58 -157 b 163 -290 58 -274 94 -290 l 369 -290 b 496 -108 486 -290 496 -214 l 496 672 b 447 721 496 699 474 721 l 364 721 b 315 672 338 721 315 699 z m 58 964 b 272 771 72 832 140 771 b 486 964 406 771 471 831 l 396 964 b 272 881 389 913 354 881 b 149 964 197 881 158 906 z "},"ĝ":{"ha":556,"x_min":0,"x_max":0,"o":"m 321 186 l 219 186 l 219 533 l 321 533 z m 315 672 l 315 626 l 251 703 b 214 721 243 715 229 721 l 172 721 b 44 536 54 721 44 653 l 44 139 b 150 0 44 29 75 0 l 215 0 b 253 18 229 0 243 6 b 321 103 275 46 304 81 l 321 -139 l 219 -139 l 219 -118 b 171 -69 219 -92 197 -69 l 107 -69 b 58 -118 81 -69 58 -92 l 58 -157 b 163 -290 58 -274 94 -290 l 369 -290 b 496 -108 486 -290 496 -214 l 496 672 b 447 721 496 699 474 721 l 364 721 b 315 672 338 721 315 699 z m 60 775 l 164 775 l 278 885 l 390 775 l 494 775 l 364 981 l 190 981 z "},"ģ":{"ha":556,"x_min":0,"x_max":0,"o":"m 321 186 l 219 186 l 219 533 l 321 533 z m 315 672 l 315 626 l 251 703 b 214 721 243 715 229 721 l 172 721 b 44 536 54 721 44 653 l 44 139 b 150 0 44 29 75 0 l 215 0 b 253 18 229 0 243 6 b 321 103 275 46 304 81 l 321 -139 l 219 -139 l 219 -118 b 171 -69 219 -92 197 -69 l 107 -69 b 58 -118 81 -69 58 -92 l 58 -157 b 163 -290 58 -274 94 -290 l 369 -290 b 496 -108 486 -290 496 -214 l 496 672 b 447 721 496 699 474 721 l 364 721 b 315 672 338 721 315 699 z m 178 911 b 282 781 178 838 219 781 b 376 883 338 781 376 832 b 300 972 376 944 340 972 b 285 968 293 972 289 968 b 278 992 279 968 278 975 b 364 1118 278 1063 315 1086 b 357 1140 368 1119 363 1135 b 336 1154 351 1147 340 1156 b 178 911 240 1100 178 1018 z "},"ġ":{"ha":556,"x_min":0,"x_max":0,"o":"m 321 186 l 219 186 l 219 533 l 321 533 z m 315 672 l 315 626 l 251 703 b 214 721 243 715 229 721 l 172 721 b 44 536 54 721 44 653 l 44 139 b 150 0 44 29 75 0 l 215 0 b 253 18 229 0 243 6 b 321 103 275 46 304 81 l 321 -139 l 219 -139 l 219 -118 b 171 -69 219 -92 197 -69 l 107 -69 b 58 -118 81 -69 58 -92 l 58 -157 b 163 -290 58 -274 94 -290 l 369 -290 b 496 -108 486 -290 496 -214 l 496 672 b 447 721 496 699 474 721 l 364 721 b 315 672 338 721 315 699 z m 210 799 b 278 771 228 781 253 771 b 374 867 331 771 374 814 b 278 963 374 919 331 963 b 182 867 225 963 182 919 b 210 799 182 842 192 817 z "},"ħ":{"ha":579,"x_min":0,"x_max":0,"o":"m 113 0 l 193 0 b 242 49 219 0 242 22 l 242 533 l 343 533 l 343 49 b 392 0 343 22 365 0 l 519 0 b 568 49 546 0 568 22 l 568 138 b 519 186 568 164 546 186 l 519 574 b 417 721 519 650 503 721 l 340 721 b 301 701 325 721 311 714 b 242 626 282 676 257 647 l 242 1038 b 193 1086 242 1064 219 1086 l 113 1086 b 64 1038 86 1086 64 1064 l 64 49 b 113 0 64 22 86 0 z m 442 924 l 442 931 b 392 981 442 958 419 981 l 50 981 b 0 931 22 981 0 958 l 0 924 b 50 874 0 896 22 874 l 392 874 b 442 924 419 874 442 896 z "},"ĥ":{"ha":579,"x_min":0,"x_max":0,"o":"m 113 0 l 193 0 b 242 49 219 0 242 22 l 242 533 l 343 533 l 343 49 b 392 0 343 22 365 0 l 519 0 b 568 49 546 0 568 22 l 568 138 b 519 186 568 164 546 186 l 519 574 b 417 721 519 650 503 721 l 340 721 b 301 701 325 721 311 714 b 242 626 282 676 257 647 l 242 1038 b 193 1086 242 1064 219 1086 l 113 1086 b 64 1038 86 1086 64 1064 l 64 49 b 113 0 64 22 86 0 z m -62 1156 l 42 1156 l 156 1265 l 268 1156 l 372 1156 l 242 1361 l 68 1361 z "},"ĭ":{"ha":301,"x_min":0,"x_max":0,"o":"m 65 186 b 14 138 36 186 14 164 l 14 49 b 63 0 14 22 36 0 l 243 0 b 292 49 269 0 292 22 l 292 138 b 240 186 292 164 267 186 l 240 672 b 192 721 240 699 218 721 l 114 721 b 65 672 88 721 65 699 z m -68 964 b 146 771 -54 832 14 771 b 360 964 279 771 344 831 l 269 964 b 146 881 263 913 228 881 b 22 964 71 881 32 906 z "},"ī":{"ha":301,"x_min":0,"x_max":0,"o":"m 65 186 b 14 138 36 186 14 164 l 14 49 b 63 0 14 22 36 0 l 243 0 b 292 49 269 0 292 22 l 292 138 b 240 186 292 164 267 186 l 240 672 b 192 721 240 699 218 721 l 114 721 b 65 672 88 721 65 699 z m 372 825 l 372 832 b 322 882 372 860 350 882 l -19 882 b -69 832 -47 882 -69 860 l -69 825 b -19 775 -69 797 -47 775 l 322 775 b 372 825 350 775 372 797 z "},"į":{"ha":301,"x_min":0,"x_max":0,"o":"m 65 186 b 14 138 36 186 14 164 l 14 49 b 63 0 14 22 36 0 l 243 0 b 292 49 269 0 292 22 l 292 138 b 240 186 292 164 267 186 l 240 672 b 192 721 240 699 218 721 l 114 721 b 65 672 88 721 65 699 z m 85 856 b 153 828 103 838 128 828 b 249 924 206 828 249 871 b 153 1019 249 976 206 1019 b 57 924 100 1019 57 976 b 85 856 57 899 67 874 z m 83 7 b 43 -110 53 -46 43 -72 b 258 -279 43 -243 149 -294 l 258 -182 b 140 -85 188 -201 140 -156 b 169 7 140 -51 147 -29 z "},"ĩ":{"ha":301,"x_min":0,"x_max":0,"o":"m 65 186 b 14 138 36 186 14 164 l 14 49 b 63 0 14 22 36 0 l 243 0 b 292 49 269 0 292 22 l 292 138 b 240 186 292 164 267 186 l 240 672 b 192 721 240 699 218 721 l 114 721 b 65 672 88 721 65 699 z m 235 922 b 201 878 232 901 224 878 b 72 922 164 878 110 922 b -21 775 -11 922 -19 828 l 68 775 b 103 815 69 792 74 815 b 224 769 144 815 188 769 b 322 922 307 769 318 858 z "},"ĵ":{"ha":301,"x_min":0,"x_max":0,"o":"m 65 -106 l 54 -106 b 4 -156 26 -106 4 -128 l 4 -235 b 54 -285 4 -262 26 -285 l 117 -285 b 240 -114 203 -285 240 -265 l 240 671 b 190 721 240 699 218 721 l 115 721 b 65 671 88 721 65 699 z m -67 775 l 38 775 l 151 885 l 264 775 l 368 775 l 238 981 l 64 981 z "},"ķ":{"ha":579,"x_min":0,"x_max":0,"o":"m 64 1036 l 64 50 b 114 0 64 22 86 0 l 189 0 b 239 50 217 0 239 22 l 239 263 l 340 263 l 340 50 b 390 0 340 22 363 0 l 518 0 b 568 50 546 0 568 22 l 568 136 b 518 186 568 164 546 186 l 508 186 l 508 363 b 458 413 508 390 486 413 l 404 413 l 453 533 l 496 533 b 546 583 524 533 546 556 l 546 671 b 496 721 546 699 524 721 l 414 721 b 367 689 393 721 374 708 l 251 382 l 239 383 l 239 1036 b 189 1086 239 1064 217 1086 l 114 1086 b 64 1036 86 1086 64 1064 z m 389 -154 b 285 -24 389 -81 347 -24 b 190 -126 229 -24 190 -75 b 267 -215 190 -187 226 -215 b 282 -211 274 -215 278 -211 b 289 -235 288 -211 289 -218 b 203 -361 289 -306 251 -329 b 210 -383 199 -362 204 -378 b 231 -397 215 -390 226 -399 b 389 -154 326 -343 389 -261 z "},"ĸ":{"ha":579,"x_min":0,"x_max":0,"o":"m 64 671 l 64 50 b 114 0 64 22 86 0 l 189 0 b 239 50 217 0 239 22 l 239 263 l 340 263 l 340 50 b 390 0 340 22 363 0 l 518 0 b 568 50 546 0 568 22 l 568 136 b 518 186 568 164 546 186 l 508 186 l 508 363 b 458 413 508 390 486 413 l 404 413 l 453 533 l 496 533 b 546 583 524 533 546 556 l 546 671 b 496 721 546 699 524 721 l 414 721 b 367 689 393 721 374 708 l 251 382 l 239 383 l 239 671 b 189 721 239 699 217 721 l 114 721 b 64 671 86 721 64 699 z "},"ĺ":{"ha":301,"x_min":0,"x_max":0,"o":"m 115 0 l 242 0 b 292 50 269 0 292 22 l 292 136 b 242 186 292 164 269 186 l 239 186 l 239 1036 b 189 1086 239 1064 217 1086 l 115 1086 b 65 1036 88 1086 65 1064 l 65 50 b 115 0 65 22 88 0 z m 93 1169 b 99 1156 88 1163 90 1156 l 204 1156 b 226 1165 213 1156 219 1158 l 392 1318 b 383 1335 397 1325 394 1335 l 231 1335 b 211 1325 222 1335 215 1332 z "},"ľ":{"ha":590,"x_min":0,"x_max":0,"o":"m 115 0 l 242 0 b 292 50 269 0 292 22 l 292 136 b 242 186 292 164 269 186 l 239 186 l 239 1036 b 189 1086 239 1064 217 1086 l 115 1086 b 65 1036 88 1086 65 1064 l 65 50 b 115 0 65 22 88 0 z m 531 960 b 426 1090 531 1033 489 1090 b 332 988 371 1090 332 1039 b 408 899 332 926 368 899 b 424 903 415 899 419 903 b 431 879 429 903 431 896 b 344 753 431 808 393 785 b 351 731 340 751 346 736 b 372 717 357 724 368 715 b 531 960 468 771 531 853 z "},"ļ":{"ha":301,"x_min":0,"x_max":0,"o":"m 115 0 l 242 0 b 292 50 269 0 292 22 l 292 136 b 242 186 292 164 269 186 l 239 186 l 239 1036 b 189 1086 239 1064 217 1086 l 115 1086 b 65 1036 88 1086 65 1064 l 65 50 b 115 0 65 22 88 0 z m 250 -154 b 146 -24 250 -81 208 -24 b 51 -126 90 -24 51 -75 b 128 -215 51 -187 88 -215 b 143 -211 135 -215 139 -211 b 150 -235 149 -211 150 -218 b 64 -361 150 -306 113 -329 b 71 -383 60 -362 65 -378 b 92 -397 76 -390 88 -399 b 250 -154 188 -343 250 -261 z "},"ŀ":{"ha":590,"x_min":0,"x_max":0,"o":"m 115 0 l 242 0 b 292 50 269 0 292 22 l 292 136 b 242 186 292 164 269 186 l 239 186 l 239 1036 b 189 1086 239 1064 217 1086 l 115 1086 b 65 1036 88 1086 65 1064 l 65 50 b 115 0 65 22 88 0 z m 267 882 b 374 775 267 822 314 775 b 479 882 432 775 479 822 b 374 988 479 940 432 988 b 267 882 314 988 267 940 z "},"ł":{"ha":301,"x_min":0,"x_max":0,"o":"m -68 688 l -68 550 l 372 847 l 372 985 z m 115 0 l 242 0 b 292 50 269 0 292 22 l 292 136 b 242 186 292 164 269 186 l 239 186 l 239 1036 b 189 1086 239 1064 217 1086 l 115 1086 b 65 1036 88 1086 65 1064 l 65 50 b 115 0 65 22 88 0 z "},"ń":{"ha":579,"x_min":0,"x_max":0,"o":"m 240 597 l 240 671 b 190 721 240 699 218 721 l 114 721 b 64 671 86 721 64 699 l 64 50 b 114 0 64 22 86 0 l 190 0 b 240 50 218 0 240 22 l 240 533 l 344 533 l 344 50 b 394 0 344 22 367 0 l 521 0 b 571 50 549 0 571 22 l 571 136 b 519 186 571 164 547 186 l 519 535 b 394 721 519 633 503 721 l 331 721 z m 182 789 b 188 775 176 782 179 775 l 293 775 b 315 785 301 775 308 778 l 481 938 b 472 954 486 944 483 954 l 319 954 b 300 944 311 954 304 951 z "},"ŉ":{"ha":579,"x_min":0,"x_max":0,"o":"m 240 597 l 240 671 b 190 721 240 699 218 721 l 114 721 b 64 671 86 721 64 699 l 64 50 b 114 0 64 22 86 0 l 190 0 b 240 50 218 0 240 22 l 240 533 l 344 533 l 344 50 b 394 0 344 22 367 0 l 521 0 b 571 50 549 0 571 22 l 571 136 b 519 186 571 164 547 186 l 519 535 b 394 721 519 633 503 721 l 331 721 z m 263 988 b 158 1118 263 1061 221 1118 b 64 1015 103 1118 64 1067 b 140 926 64 954 100 926 b 156 931 147 926 151 931 b 163 907 161 931 163 924 b 76 781 163 836 125 813 b 83 758 72 779 78 764 b 104 744 89 751 100 743 b 263 988 200 799 263 881 z "},"ň":{"ha":579,"x_min":0,"x_max":0,"o":"m 240 597 l 240 671 b 190 721 240 699 218 721 l 114 721 b 64 671 86 721 64 699 l 64 50 b 114 0 64 22 86 0 l 190 0 b 240 50 218 0 240 22 l 240 533 l 344 533 l 344 50 b 394 0 344 22 367 0 l 521 0 b 571 50 549 0 571 22 l 571 136 b 519 186 571 164 547 186 l 519 535 b 394 721 519 633 503 721 l 331 721 z m 289 878 l 218 982 l 89 982 l 215 775 l 367 775 l 490 982 l 360 982 z "},"ņ":{"ha":579,"x_min":0,"x_max":0,"o":"m 240 597 l 240 671 b 190 721 240 699 218 721 l 114 721 b 64 671 86 721 64 699 l 64 50 b 114 0 64 22 86 0 l 190 0 b 240 50 218 0 240 22 l 240 533 l 344 533 l 344 50 b 394 0 344 22 367 0 l 521 0 b 571 50 549 0 571 22 l 571 136 b 519 186 571 164 547 186 l 519 535 b 394 721 519 633 503 721 l 331 721 z m 389 -154 b 285 -24 389 -81 347 -24 b 190 -126 229 -24 190 -75 b 267 -215 190 -187 226 -215 b 282 -211 274 -215 278 -211 b 289 -235 288 -211 289 -218 b 203 -361 289 -306 251 -329 b 210 -383 199 -362 204 -378 b 231 -397 215 -390 226 -399 b 389 -154 326 -343 389 -261 z "},"ŏ":{"ha":532,"x_min":0,"x_max":0,"o":"m 315 539 l 315 186 l 219 186 l 219 539 z m 169 721 b 43 518 53 721 43 603 l 43 188 b 171 0 43 81 65 0 l 354 0 b 492 222 486 0 492 126 l 492 519 b 354 721 492 647 468 721 z m 47 964 b 261 771 61 832 129 771 b 475 964 394 771 460 831 l 385 964 b 261 881 378 913 343 881 b 138 964 186 881 147 906 z "},"ő":{"ha":532,"x_min":0,"x_max":0,"o":"m 315 539 l 315 186 l 219 186 l 219 539 z m 169 721 b 43 518 53 721 43 603 l 43 188 b 171 0 43 81 65 0 l 354 0 b 492 222 486 0 492 126 l 492 519 b 354 721 492 647 468 721 z m 243 950 l 122 775 l 206 775 l 371 950 z m 419 950 l 299 775 l 382 775 l 546 950 z "},"ō":{"ha":532,"x_min":0,"x_max":0,"o":"m 315 539 l 315 186 l 219 186 l 219 539 z m 169 721 b 43 518 53 721 43 603 l 43 188 b 171 0 43 81 65 0 l 354 0 b 492 222 486 0 492 126 l 492 519 b 354 721 492 647 468 721 z m 486 825 l 486 832 b 436 882 486 860 464 882 l 94 882 b 44 832 67 882 44 860 l 44 825 b 94 775 44 797 67 775 l 436 775 b 486 825 464 775 486 797 z "},"ǿ":{"ha":532,"x_min":0,"x_max":0,"o":"m 483 704 b 474 721 489 714 485 721 l 169 721 b 43 518 53 721 43 603 l 43 188 b 64 60 43 138 47 92 l 43 17 b 53 0 40 8 44 0 l 354 0 b 492 222 486 0 492 126 l 492 519 b 465 668 492 583 486 633 z m 236 186 l 315 351 l 315 186 z m 219 539 l 293 539 l 219 385 z m 158 789 b 164 775 153 782 156 775 l 269 775 b 292 785 278 775 285 778 l 457 938 b 449 954 463 944 460 954 l 296 954 b 276 944 288 954 281 951 z "},"ŕ":{"ha":464,"x_min":0,"x_max":0,"o":"m 64 186 l 49 186 b 14 151 29 186 14 171 l 14 35 b 49 0 14 15 29 0 l 208 0 b 243 35 228 0 243 15 l 243 535 l 319 535 l 319 449 b 354 414 319 429 335 414 l 419 414 b 454 449 439 414 454 429 l 454 596 b 354 721 454 676 432 721 l 338 721 b 297 700 321 721 307 714 b 243 625 279 675 257 646 l 243 686 b 208 721 243 706 228 721 l 99 721 b 64 686 79 721 64 706 z m 124 789 b 129 775 118 782 121 775 l 235 775 b 257 785 243 775 250 778 l 422 938 b 414 954 428 944 425 954 l 261 954 b 242 944 253 954 246 951 z "},"ř":{"ha":464,"x_min":0,"x_max":0,"o":"m 64 186 l 49 186 b 14 151 29 186 14 171 l 14 35 b 49 0 14 15 29 0 l 208 0 b 243 35 228 0 243 15 l 243 535 l 319 535 l 319 449 b 354 414 319 429 335 414 l 419 414 b 454 449 439 414 454 429 l 454 596 b 354 721 454 676 432 721 l 338 721 b 297 700 321 721 307 714 b 243 625 279 675 257 646 l 243 686 b 208 721 243 706 228 721 l 99 721 b 64 686 79 721 64 706 z m 231 878 l 160 982 l 31 982 l 157 775 l 308 775 l 432 982 l 301 982 z "},"ŗ":{"ha":464,"x_min":0,"x_max":0,"o":"m 64 186 l 49 186 b 14 151 29 186 14 171 l 14 35 b 49 0 14 15 29 0 l 208 0 b 243 35 228 0 243 15 l 243 535 l 319 535 l 319 449 b 354 414 319 429 335 414 l 419 414 b 454 449 439 414 454 429 l 454 596 b 354 721 454 676 432 721 l 338 721 b 297 700 321 721 307 714 b 243 625 279 675 257 646 l 243 686 b 208 721 243 706 228 721 l 99 721 b 64 686 79 721 64 706 z m 229 -154 b 125 -24 229 -81 188 -24 b 31 -126 69 -24 31 -75 b 107 -215 31 -187 67 -215 b 122 -211 114 -215 118 -211 b 129 -235 128 -211 129 -218 b 43 -361 129 -306 92 -329 b 50 -383 39 -362 44 -378 b 71 -397 56 -390 67 -399 b 229 -154 167 -343 229 -261 z "},"ś":{"ha":508,"x_min":0,"x_max":0,"o":"m 156 721 b 33 550 58 721 33 682 l 33 374 b 57 340 33 358 43 346 l 301 260 l 301 163 l 206 163 l 206 169 b 171 204 206 189 190 204 l 68 204 b 33 169 49 204 33 189 l 33 35 b 68 0 33 15 49 0 l 364 0 b 476 168 442 0 476 26 l 476 364 b 453 397 476 379 467 392 l 206 479 l 206 557 l 307 557 b 342 522 307 538 322 522 l 432 522 b 467 557 451 522 467 538 l 467 686 b 432 721 467 706 451 721 z m 146 789 b 151 775 140 782 143 775 l 257 775 b 279 785 265 775 272 778 l 444 938 b 436 954 450 944 447 954 l 283 954 b 264 944 275 954 268 951 z "},"ş":{"ha":508,"x_min":0,"x_max":0,"o":"m 156 721 b 33 550 58 721 33 682 l 33 374 b 57 340 33 358 43 346 l 301 260 l 301 163 l 206 163 l 206 169 b 171 204 206 189 190 204 l 68 204 b 33 169 49 204 33 189 l 33 35 b 68 0 33 15 49 0 l 364 0 b 476 168 442 0 476 26 l 476 364 b 453 397 476 379 467 392 l 206 479 l 206 557 l 307 557 b 342 522 307 538 322 522 l 432 522 b 467 557 451 522 467 538 l 467 686 b 432 721 467 706 451 721 z m 283 24 l 188 24 l 188 -104 b 214 -101 197 -101 210 -101 b 274 -162 256 -101 274 -119 b 240 -208 274 -193 263 -208 b 203 -164 217 -208 206 -194 l 122 -164 b 235 -267 125 -236 160 -267 b 385 -147 311 -267 385 -222 b 283 -51 385 -81 354 -51 z "},"ŝ":{"ha":508,"x_min":0,"x_max":0,"o":"m 156 721 b 33 550 58 721 33 682 l 33 374 b 57 340 33 358 43 346 l 301 260 l 301 163 l 206 163 l 206 169 b 171 204 206 189 190 204 l 68 204 b 33 169 49 204 33 189 l 33 35 b 68 0 33 15 49 0 l 364 0 b 476 168 442 0 476 26 l 476 364 b 453 397 476 379 467 392 l 206 479 l 206 557 l 307 557 b 342 522 307 538 322 522 l 432 522 b 467 557 451 522 467 538 l 467 686 b 432 721 467 706 451 721 z m 36 775 l 140 775 l 254 885 l 367 775 l 471 775 l 340 981 l 167 981 z "},"ș":{"ha":508,"x_min":0,"x_max":0,"o":"m 156 721 b 33 550 58 721 33 682 l 33 374 b 57 340 33 358 43 346 l 301 260 l 301 163 l 206 163 l 206 169 b 171 204 206 189 190 204 l 68 204 b 33 169 49 204 33 189 l 33 35 b 68 0 33 15 49 0 l 364 0 b 476 168 442 0 476 26 l 476 364 b 453 397 476 379 467 392 l 206 479 l 206 557 l 307 557 b 342 522 307 538 322 522 l 432 522 b 467 557 451 522 467 538 l 467 686 b 432 721 467 706 451 721 z m 353 -154 b 249 -24 353 -81 311 -24 b 154 -126 193 -24 154 -75 b 231 -215 154 -187 190 -215 b 246 -211 238 -215 242 -211 b 253 -235 251 -211 253 -218 b 167 -361 253 -306 215 -329 b 174 -383 163 -362 168 -378 b 194 -397 179 -390 190 -399 b 353 -154 290 -343 353 -261 z "},"ﬆ":{"ha":833,"x_min":0,"x_max":0,"o":"m 156 721 b 33 550 58 721 33 682 l 33 374 b 57 340 33 358 43 346 l 301 260 l 301 163 l 206 163 l 206 169 b 171 204 206 189 190 204 l 68 204 b 33 169 49 204 33 189 l 33 35 b 68 0 33 15 49 0 l 364 0 b 476 168 442 0 476 26 l 476 364 b 453 397 476 379 467 392 l 206 479 l 206 557 l 307 557 b 342 522 307 538 322 522 l 432 522 b 467 557 451 522 467 538 l 467 686 b 432 721 467 706 451 721 z m 581 911 l 581 721 l 574 721 b 529 676 549 721 529 701 l 529 579 b 574 535 529 554 549 535 l 581 535 l 581 44 b 625 0 581 19 600 0 l 764 0 b 808 44 789 0 808 19 l 808 142 b 764 186 808 167 789 186 l 756 186 l 756 535 l 764 535 b 808 579 789 535 808 554 l 808 676 b 764 721 808 701 789 721 l 756 721 l 756 911 b 711 956 756 936 736 956 l 625 956 b 581 911 600 956 581 936 z "},"ŧ":{"ha":325,"x_min":0,"x_max":0,"o":"m 297 364 l 297 371 b 247 421 297 399 275 421 l 72 421 b 22 371 44 421 22 399 l 22 364 b 72 314 22 336 44 314 l 247 314 b 297 364 275 314 297 336 z m 72 911 l 72 721 l 65 721 b 21 676 40 721 21 701 l 21 579 b 65 535 21 554 40 535 l 72 535 l 72 44 b 117 0 72 19 92 0 l 256 0 b 300 44 281 0 300 19 l 300 142 b 256 186 300 167 281 186 l 247 186 l 247 535 l 256 535 b 300 579 281 535 300 554 l 300 676 b 256 721 300 701 281 721 l 247 721 l 247 911 b 203 956 247 936 228 956 l 117 956 b 72 911 92 956 72 936 z "},"ť":{"ha":614,"x_min":0,"x_max":0,"o":"m 72 911 l 72 721 l 65 721 b 21 676 40 721 21 701 l 21 579 b 65 535 21 554 40 535 l 72 535 l 72 44 b 117 0 72 19 92 0 l 256 0 b 300 44 281 0 300 19 l 300 142 b 256 186 300 167 281 186 l 247 186 l 247 535 l 256 535 b 300 579 281 535 300 554 l 300 676 b 256 721 300 701 281 721 l 247 721 l 247 911 b 203 956 247 936 228 956 l 117 956 b 72 911 92 956 72 936 z m 554 960 b 450 1090 554 1033 513 1090 b 356 988 394 1090 356 1039 b 432 899 356 926 392 899 b 447 903 439 899 443 903 b 454 879 453 903 454 896 b 368 753 454 808 417 785 b 375 731 364 751 369 736 b 396 717 381 724 392 715 b 554 960 492 771 554 853 z "},"ţ":{"ha":325,"x_min":0,"x_max":0,"o":"m 72 911 l 72 721 l 65 721 b 21 676 40 721 21 701 l 21 579 b 65 535 21 554 40 535 l 72 535 l 72 44 b 117 0 72 19 92 0 l 256 0 b 300 44 281 0 300 19 l 300 142 b 256 186 300 167 281 186 l 247 186 l 247 535 l 256 535 b 300 579 281 535 300 554 l 300 676 b 256 721 300 701 281 721 l 247 721 l 247 911 b 203 956 247 936 228 956 l 117 956 b 72 911 92 956 72 936 z m 263 -154 b 158 -24 263 -81 221 -24 b 64 -126 103 -24 64 -75 b 140 -215 64 -187 100 -215 b 156 -211 147 -215 151 -211 b 163 -235 161 -211 163 -218 b 76 -361 163 -306 125 -329 b 83 -383 72 -362 78 -378 b 104 -397 89 -390 100 -399 b 263 -154 200 -343 263 -261 z "},"ŭ":{"ha":579,"x_min":0,"x_max":0,"o":"m 521 0 b 571 50 549 0 571 22 l 571 136 b 519 186 571 164 547 186 l 519 676 b 475 721 519 701 500 721 l 386 721 b 342 676 361 721 342 701 l 342 186 l 238 186 l 238 676 b 193 721 238 701 218 721 l 108 721 b 64 676 83 721 64 701 l 64 168 b 194 0 64 71 99 0 l 225 0 b 265 21 242 0 256 7 l 342 124 l 342 44 b 386 0 342 19 361 0 z m 71 964 b 285 771 85 832 153 771 b 499 964 418 771 483 831 l 408 964 b 285 881 401 913 367 881 b 161 964 210 881 171 906 z "},"ű":{"ha":579,"x_min":0,"x_max":0,"o":"m 521 0 b 571 50 549 0 571 22 l 571 136 b 519 186 571 164 547 186 l 519 676 b 475 721 519 701 500 721 l 386 721 b 342 676 361 721 342 701 l 342 186 l 238 186 l 238 676 b 193 721 238 701 218 721 l 108 721 b 64 676 83 721 64 701 l 64 168 b 194 0 64 71 99 0 l 225 0 b 265 21 242 0 256 7 l 342 124 l 342 44 b 386 0 342 19 361 0 z m 199 950 l 78 775 l 161 775 l 326 950 z m 375 950 l 254 775 l 338 775 l 501 950 z "},"ū":{"ha":579,"x_min":0,"x_max":0,"o":"m 521 0 b 571 50 549 0 571 22 l 571 136 b 519 186 571 164 547 186 l 519 676 b 475 721 519 701 500 721 l 386 721 b 342 676 361 721 342 701 l 342 186 l 238 186 l 238 676 b 193 721 238 701 218 721 l 108 721 b 64 676 83 721 64 701 l 64 168 b 194 0 64 71 99 0 l 225 0 b 265 21 242 0 256 7 l 342 124 l 342 44 b 386 0 342 19 361 0 z m 510 825 l 510 832 b 460 882 510 860 488 882 l 118 882 b 68 832 90 882 68 860 l 68 825 b 118 775 68 797 90 775 l 460 775 b 510 825 488 775 510 797 z "},"ų":{"ha":579,"x_min":0,"x_max":0,"o":"m 521 0 b 571 50 549 0 571 22 l 571 136 b 519 186 571 164 547 186 l 519 676 b 475 721 519 701 500 721 l 386 721 b 342 676 361 721 342 701 l 342 186 l 238 186 l 238 676 b 193 721 238 701 218 721 l 108 721 b 64 676 83 721 64 701 l 64 168 b 194 0 64 71 99 0 l 225 0 b 265 21 242 0 256 7 l 342 124 l 342 44 b 386 0 342 19 361 0 z m 396 7 b 356 -110 365 -46 356 -72 b 571 -279 356 -243 461 -294 l 571 -182 b 453 -85 500 -201 453 -156 b 482 7 453 -51 460 -29 z "},"ů":{"ha":579,"x_min":0,"x_max":0,"o":"m 521 0 b 571 50 549 0 571 22 l 571 136 b 519 186 571 164 547 186 l 519 676 b 475 721 519 701 500 721 l 386 721 b 342 676 361 721 342 701 l 342 186 l 238 186 l 238 676 b 193 721 238 701 218 721 l 108 721 b 64 676 83 721 64 701 l 64 168 b 194 0 64 71 99 0 l 225 0 b 265 21 242 0 256 7 l 342 124 l 342 44 b 386 0 342 19 361 0 z m 201 806 b 289 769 225 783 257 769 b 413 893 356 769 413 825 b 289 1017 413 961 357 1017 b 165 893 219 1017 165 960 b 201 806 165 861 179 829 z m 253 857 b 238 893 243 865 238 879 b 289 944 238 921 261 944 b 340 893 317 944 340 921 b 289 842 340 864 317 842 b 253 857 275 842 263 847 z "},"ũ":{"ha":579,"x_min":0,"x_max":0,"o":"m 521 0 b 571 50 549 0 571 22 l 571 136 b 519 186 571 164 547 186 l 519 676 b 475 721 519 701 500 721 l 386 721 b 342 676 361 721 342 701 l 342 186 l 238 186 l 238 676 b 193 721 238 701 218 721 l 108 721 b 64 676 83 721 64 701 l 64 168 b 194 0 64 71 99 0 l 225 0 b 265 21 242 0 256 7 l 342 124 l 342 44 b 386 0 342 19 361 0 z m 374 922 b 340 878 371 901 363 878 b 211 922 303 878 249 922 b 118 775 128 922 119 828 l 207 775 b 242 815 208 792 213 815 b 363 769 283 815 326 769 b 461 922 446 769 457 858 z "},"ẃ":{"ha":786,"x_min":0,"x_max":0,"o":"m 238 231 l 222 231 b 211 413 218 314 215 347 l 190 679 b 146 721 189 703 169 721 l 68 721 b 24 671 42 721 21 697 l 100 39 b 143 0 101 17 121 0 l 276 0 b 319 38 299 0 315 15 l 375 358 l 390 358 l 449 36 b 493 0 453 15 471 0 l 624 0 b 667 39 646 0 664 17 l 728 535 l 731 535 b 775 579 756 535 775 554 l 775 676 b 731 721 775 701 756 721 l 622 721 b 578 679 599 721 579 703 b 553 353 556 385 554 365 b 546 240 550 315 549 292 l 532 240 b 508 431 524 335 521 353 l 468 683 b 425 721 465 706 446 721 l 344 721 b 301 683 322 721 304 704 b 253 374 285 579 268 478 b 238 231 246 326 240 278 z m 285 789 b 290 775 279 782 282 775 l 396 775 b 418 785 404 775 411 778 l 583 938 b 575 954 589 944 586 954 l 422 954 b 403 944 414 954 407 951 z "},"ŵ":{"ha":786,"x_min":0,"x_max":0,"o":"m 238 231 l 222 231 b 211 413 218 314 215 347 l 190 679 b 146 721 189 703 169 721 l 68 721 b 24 671 42 721 21 697 l 100 39 b 143 0 101 17 121 0 l 276 0 b 319 38 299 0 315 15 l 375 358 l 390 358 l 449 36 b 493 0 453 15 471 0 l 624 0 b 667 39 646 0 664 17 l 728 535 l 731 535 b 775 579 756 535 775 554 l 775 676 b 731 721 775 701 756 721 l 622 721 b 578 679 599 721 579 703 b 553 353 556 385 554 365 b 546 240 550 315 549 292 l 532 240 b 508 431 524 335 521 353 l 468 683 b 425 721 465 706 446 721 l 344 721 b 301 683 322 721 304 704 b 253 374 285 579 268 478 b 238 231 246 326 240 278 z m 175 775 l 279 775 l 393 885 l 506 775 l 610 775 l 479 981 l 306 981 z "},"ẅ":{"ha":786,"x_min":0,"x_max":0,"o":"m 238 231 l 222 231 b 211 413 218 314 215 347 l 190 679 b 146 721 189 703 169 721 l 68 721 b 24 671 42 721 21 697 l 100 39 b 143 0 101 17 121 0 l 276 0 b 319 38 299 0 315 15 l 375 358 l 390 358 l 449 36 b 493 0 453 15 471 0 l 624 0 b 667 39 646 0 664 17 l 728 535 l 731 535 b 775 579 756 535 775 554 l 775 676 b 731 721 775 701 756 721 l 622 721 b 578 679 599 721 579 703 b 553 353 556 385 554 365 b 546 240 550 315 549 292 l 532 240 b 508 431 524 335 521 353 l 468 683 b 425 721 465 706 446 721 l 344 721 b 301 683 322 721 304 704 b 253 374 285 579 268 478 b 238 231 246 326 240 278 z m 167 867 b 263 771 167 814 210 771 b 358 867 315 771 358 814 b 263 963 358 919 315 963 b 167 867 210 963 167 919 z m 428 867 b 524 771 428 814 471 771 b 619 867 576 771 619 814 b 524 963 619 919 576 963 b 428 867 471 963 428 919 z "},"ẁ":{"ha":786,"x_min":0,"x_max":0,"o":"m 238 231 l 222 231 b 211 413 218 314 215 347 l 190 679 b 146 721 189 703 169 721 l 68 721 b 24 671 42 721 21 697 l 100 39 b 143 0 101 17 121 0 l 276 0 b 319 38 299 0 315 15 l 375 358 l 390 358 l 449 36 b 493 0 453 15 471 0 l 624 0 b 667 39 646 0 664 17 l 728 535 l 731 535 b 775 579 756 535 775 554 l 775 676 b 731 721 775 701 756 721 l 622 721 b 578 679 599 721 579 703 b 553 353 556 385 554 365 b 546 240 550 315 549 292 l 532 240 b 508 431 524 335 521 353 l 468 683 b 425 721 465 706 446 721 l 344 721 b 301 683 322 721 304 704 b 253 374 285 579 268 478 b 238 231 246 326 240 278 z m 500 789 l 382 944 b 363 954 378 951 371 954 l 210 954 b 201 938 199 954 196 944 l 367 785 b 389 775 374 778 381 775 l 494 775 b 500 789 503 775 506 782 z "},"ŷ":{"ha":486,"x_min":0,"x_max":0,"o":"m 11 663 l 147 -17 l 126 -108 l 126 -108 b 78 -157 100 -108 78 -131 l 78 -242 b 126 -290 78 -268 100 -290 l 225 -290 b 272 -251 249 -290 268 -274 l 451 663 b 404 721 457 693 435 721 l 328 721 b 281 678 304 721 283 703 b 236 278 246 400 243 372 l 221 278 b 178 678 213 414 197 531 b 129 721 175 703 154 721 l 58 721 b 11 663 28 721 4 693 z m 25 775 l 129 775 l 243 885 l 356 775 l 460 775 l 329 981 l 156 981 z "},"ỳ":{"ha":486,"x_min":0,"x_max":0,"o":"m 11 663 l 147 -17 l 126 -108 l 126 -108 b 78 -157 100 -108 78 -131 l 78 -242 b 126 -290 78 -268 100 -290 l 225 -290 b 272 -251 249 -290 268 -274 l 451 663 b 404 721 457 693 435 721 l 328 721 b 281 678 304 721 283 703 b 236 278 246 400 243 372 l 221 278 b 178 678 213 414 197 531 b 129 721 175 703 154 721 l 58 721 b 11 663 28 721 4 693 z m 350 789 l 232 944 b 213 954 228 951 221 954 l 60 954 b 51 938 49 954 46 944 l 217 785 b 239 775 224 778 231 775 l 344 775 b 350 789 353 775 356 782 z "},"ź":{"ha":508,"x_min":0,"x_max":0,"o":"m 28 672 l 28 546 b 76 497 28 519 50 497 l 110 497 b 158 546 136 497 158 519 l 158 558 l 288 558 l 19 171 l 19 50 b 69 0 19 22 42 0 l 433 0 b 482 49 460 0 482 22 l 482 181 b 433 229 482 207 460 229 l 399 229 b 350 181 372 229 350 207 l 350 165 l 217 165 l 482 554 l 482 671 b 432 721 482 699 460 721 b 76 721 388 721 76 721 b 28 672 50 721 28 699 z m 146 789 b 151 775 140 782 143 775 l 257 775 b 279 785 265 775 272 778 l 444 938 b 436 954 450 944 447 954 l 283 954 b 264 944 275 954 268 951 z "},"ż":{"ha":508,"x_min":0,"x_max":0,"o":"m 28 672 l 28 546 b 76 497 28 519 50 497 l 110 497 b 158 546 136 497 158 519 l 158 558 l 288 558 l 19 171 l 19 50 b 69 0 19 22 42 0 l 433 0 b 482 49 460 0 482 22 l 482 181 b 433 229 482 207 460 229 l 399 229 b 350 181 372 229 350 207 l 350 165 l 217 165 l 482 554 l 482 671 b 432 721 482 699 460 721 b 76 721 388 721 76 721 b 28 672 50 721 28 699 z m 186 789 b 254 761 204 771 229 761 b 350 857 307 761 350 804 b 254 953 350 910 307 953 b 158 857 201 953 158 910 b 186 789 158 832 168 807 z "},"ſ":{"ha":347,"x_min":0,"x_max":0,"o":"m 199 1086 b 86 924 103 1086 86 990 l 86 721 l 79 721 b 31 672 53 721 31 699 l 31 582 b 79 533 31 556 53 533 l 86 533 l 86 -78 l 79 -78 b 31 -126 53 -78 31 -100 l 31 -215 b 79 -264 31 -242 53 -264 l 211 -264 b 261 -214 239 -264 261 -242 l 261 533 b 314 582 292 533 314 556 l 314 672 b 261 721 314 699 292 721 l 261 900 l 282 900 b 331 949 308 900 331 922 l 331 1038 b 282 1086 331 1064 308 1086 z "},"ﬂ":{"ha":649,"x_min":0,"x_max":0,"o":"m 199 1086 b 86 924 103 1086 86 990 l 86 721 l 79 721 b 31 672 53 721 31 699 l 31 582 b 79 533 31 556 53 533 l 86 533 l 86 186 l 79 186 b 31 138 53 186 31 164 l 31 49 b 79 0 31 22 53 0 l 211 0 b 261 50 239 0 261 22 l 261 533 b 314 582 292 533 314 556 l 314 672 b 261 721 314 699 292 721 l 261 900 l 282 900 b 331 949 308 900 331 922 l 331 1038 b 282 1086 331 1064 308 1086 z m 463 0 l 589 0 b 639 50 617 0 639 22 l 639 136 b 589 186 639 164 617 186 l 586 186 l 586 1036 b 536 1086 586 1064 564 1086 l 463 1086 b 413 1036 435 1086 413 1064 l 413 50 b 463 0 413 22 435 0 z "},"ﬁ":{"ha":649,"x_min":0,"x_max":0,"o":"m 199 1086 b 86 924 103 1086 86 990 l 86 721 l 79 721 b 31 672 53 721 31 699 l 31 582 b 79 533 31 556 53 533 l 86 533 l 86 186 l 79 186 b 31 138 53 186 31 164 l 31 49 b 79 0 31 22 53 0 l 211 0 b 261 50 239 0 261 22 l 261 533 b 314 582 292 533 314 556 l 314 672 b 261 721 314 699 292 721 l 261 900 l 282 900 b 331 949 308 900 331 922 l 331 1038 b 282 1086 331 1064 308 1086 z m 413 186 b 361 138 383 186 361 164 l 361 49 b 410 0 361 22 383 0 l 590 0 b 639 49 617 0 639 22 l 639 138 b 588 186 639 164 614 186 l 588 672 b 539 721 588 699 565 721 l 461 721 b 413 672 435 721 413 699 z m 432 856 b 500 828 450 838 475 828 b 596 924 553 828 596 871 b 500 1019 596 976 553 1019 b 404 924 447 1019 404 976 b 432 856 404 899 414 874 z "},"ﬄ":{"ha":996,"x_min":0,"x_max":0,"o":"m 199 1086 b 86 924 103 1086 86 990 l 86 721 l 79 721 b 31 672 53 721 31 699 l 31 582 b 79 533 31 556 53 533 l 86 533 l 86 186 l 79 186 b 31 138 53 186 31 164 l 31 49 b 79 0 31 22 53 0 l 211 0 b 261 50 239 0 261 22 l 261 533 b 314 582 292 533 314 556 l 314 672 b 261 721 314 699 292 721 l 261 900 l 282 900 b 331 949 308 900 331 922 l 331 1038 b 282 1086 331 1064 308 1086 z m 546 1086 b 433 924 450 1086 433 990 l 433 721 l 426 721 b 378 672 400 721 378 699 l 378 582 b 426 533 378 556 400 533 l 433 533 l 433 186 l 426 186 b 378 138 400 186 378 164 l 378 49 b 426 0 378 22 400 0 l 558 0 b 608 50 586 0 608 22 l 608 533 b 661 582 639 533 661 556 l 661 672 b 608 721 661 699 639 721 l 608 900 l 629 900 b 678 949 656 900 678 922 l 678 1038 b 629 1086 678 1064 656 1086 z m 810 0 l 936 0 b 986 50 964 0 986 22 l 986 136 b 936 186 986 164 964 186 l 933 186 l 933 1036 b 883 1086 933 1064 911 1086 l 810 1086 b 760 1036 782 1086 760 1064 l 760 50 b 810 0 760 22 782 0 z "},"ﬃ":{"ha":996,"x_min":0,"x_max":0,"o":"m 199 1086 b 86 924 103 1086 86 990 l 86 721 l 79 721 b 31 672 53 721 31 699 l 31 582 b 79 533 31 556 53 533 l 86 533 l 86 186 l 79 186 b 31 138 53 186 31 164 l 31 49 b 79 0 31 22 53 0 l 211 0 b 261 50 239 0 261 22 l 261 533 b 314 582 292 533 314 556 l 314 672 b 261 721 314 699 292 721 l 261 900 l 282 900 b 331 949 308 900 331 922 l 331 1038 b 282 1086 331 1064 308 1086 z m 546 1086 b 433 924 450 1086 433 990 l 433 721 l 426 721 b 378 672 400 721 378 699 l 378 582 b 426 533 378 556 400 533 l 433 533 l 433 186 l 426 186 b 378 138 400 186 378 164 l 378 49 b 426 0 378 22 400 0 l 558 0 b 608 50 586 0 608 22 l 608 533 b 661 582 639 533 661 556 l 661 672 b 608 721 661 699 639 721 l 608 900 l 629 900 b 678 949 656 900 678 922 l 678 1038 b 629 1086 678 1064 656 1086 z m 760 186 b 708 138 731 186 708 164 l 708 49 b 757 0 708 22 731 0 l 938 0 b 986 49 964 0 986 22 l 986 138 b 935 186 986 164 961 186 l 935 672 b 886 721 935 699 913 721 l 808 721 b 760 672 782 721 760 699 z m 779 856 b 847 828 797 838 822 828 b 943 924 900 828 943 871 b 847 1019 943 976 900 1019 b 751 924 794 1019 751 976 b 779 856 751 899 761 874 z "},"ﬀ":{"ha":694,"x_min":0,"x_max":0,"o":"m 199 1086 b 86 924 103 1086 86 990 l 86 721 l 79 721 b 31 672 53 721 31 699 l 31 582 b 79 533 31 556 53 533 l 86 533 l 86 186 l 79 186 b 31 138 53 186 31 164 l 31 49 b 79 0 31 22 53 0 l 211 0 b 261 50 239 0 261 22 l 261 533 b 314 582 292 533 314 556 l 314 672 b 261 721 314 699 292 721 l 261 900 l 282 900 b 331 949 308 900 331 922 l 331 1038 b 282 1086 331 1064 308 1086 z m 546 1086 b 433 924 450 1086 433 990 l 433 721 l 426 721 b 378 672 400 721 378 699 l 378 582 b 426 533 378 556 400 533 l 433 533 l 433 186 l 426 186 b 378 138 400 186 378 164 l 378 49 b 426 0 378 22 400 0 l 558 0 b 608 50 586 0 608 22 l 608 533 b 661 582 639 533 661 556 l 661 672 b 608 721 661 699 639 721 l 608 900 l 629 900 b 678 949 656 900 678 922 l 678 1038 b 629 1086 678 1064 656 1086 z "},"ﬅ":{"ha":672,"x_min":0,"x_max":0,"o":"m 199 1086 b 86 924 103 1086 86 990 l 86 721 l 79 721 b 31 672 53 721 31 699 l 31 582 b 79 533 31 556 53 533 l 86 533 l 86 -78 l 79 -78 b 31 -126 53 -78 31 -100 l 31 -215 b 79 -264 31 -242 53 -264 l 211 -264 b 261 -214 239 -264 261 -242 l 261 533 b 314 582 292 533 314 556 l 314 672 b 261 721 314 699 292 721 l 261 900 l 282 900 b 331 949 308 900 331 922 l 331 1038 b 282 1086 331 1064 308 1086 z m 419 911 l 419 721 l 413 721 b 368 676 388 721 368 701 l 368 579 b 413 535 368 554 388 535 l 419 535 l 419 44 b 464 0 419 19 439 0 l 603 0 b 647 44 628 0 647 19 l 647 142 b 603 186 647 167 628 186 l 594 186 l 594 535 l 603 535 b 647 579 628 535 647 554 l 647 676 b 603 721 647 701 628 721 l 594 721 l 594 911 b 550 956 594 936 575 956 l 464 956 b 419 911 439 956 419 936 z "},"‼":{"ha":792,"x_min":0,"x_max":0,"o":"m 90 104 b 199 -4 90 44 139 -4 b 307 104 258 -4 307 44 b 199 213 307 164 258 213 b 90 104 139 213 90 164 z m 161 268 l 233 268 l 311 751 b 318 849 314 776 318 822 b 197 986 318 929 268 986 b 75 849 125 986 75 929 b 83 751 75 824 79 779 z m 494 104 b 603 -4 494 44 543 -4 b 711 104 663 -4 711 44 b 603 213 711 164 663 213 b 494 104 543 213 494 164 z m 565 268 l 638 268 l 715 751 b 722 849 718 776 722 822 b 601 986 722 929 672 986 b 479 849 529 986 479 929 b 488 751 479 824 483 779 z "},"ⁿ":{"ha":382,"x_min":0,"x_max":0,"o":"m 171 1007 l 171 1051 b 142 1081 171 1068 158 1081 l 96 1081 b 67 1051 79 1081 67 1068 l 67 683 b 96 654 67 667 79 654 l 142 654 b 171 683 158 654 171 667 l 171 969 l 232 969 l 232 683 b 263 654 232 667 246 654 l 338 654 b 367 683 353 654 367 667 l 367 735 b 336 764 367 751 353 764 l 336 971 b 263 1081 336 1029 326 1081 l 225 1081 z "},"ĳ":{"ha":603,"x_min":0,"x_max":0,"o":"m 65 186 b 14 138 36 186 14 164 l 14 49 b 63 0 14 22 36 0 l 243 0 b 292 49 269 0 292 22 l 292 138 b 240 186 292 164 267 186 l 240 672 b 192 721 240 699 218 721 l 114 721 b 65 672 88 721 65 699 z m 85 856 b 153 828 103 838 128 828 b 249 924 206 828 249 871 b 153 1019 249 976 206 1019 b 57 924 100 1019 57 976 b 85 856 57 899 67 874 z m 386 856 b 454 828 404 838 429 828 b 550 924 507 828 550 871 b 454 1019 550 976 507 1019 b 358 924 401 1019 358 976 b 386 856 358 899 368 874 z m 367 -106 l 356 -106 b 306 -156 328 -106 306 -128 l 306 -235 b 356 -285 306 -262 328 -285 l 418 -285 b 542 -114 504 -285 542 -265 l 542 671 b 492 721 542 699 519 721 l 417 721 b 367 671 389 721 367 699 z "},"Ŋ":{"ha":742,"x_min":0,"x_max":0,"o":"m 496 1031 b 499 504 496 585 496 554 l 499 444 l 488 444 b 439 606 468 504 458 556 l 276 1047 b 229 1081 268 1068 250 1081 l 124 1081 b 74 1031 96 1081 74 1058 l 74 217 b 22 167 44 217 22 194 l 22 50 b 72 0 22 22 44 0 l 204 0 b 254 50 232 0 254 22 l 254 525 b 244 629 254 558 250 589 l 260 631 b 324 419 278 558 288 521 b 468 39 368 299 422 163 b 499 6 474 22 485 11 l 499 -86 l 488 -86 b 438 -136 460 -86 438 -108 l 438 -215 b 488 -265 438 -243 460 -265 l 550 -265 b 674 -94 636 -265 674 -246 l 674 1031 b 622 1081 674 1058 650 1081 l 546 1081 b 496 1031 518 1081 496 1058 z "},"ŋ":{"ha":579,"x_min":0,"x_max":0,"o":"m 343 -86 l 332 -86 b 282 -136 304 -86 282 -108 l 282 -215 b 332 -265 282 -243 304 -265 l 394 -265 b 518 -94 481 -265 518 -246 l 518 535 b 394 721 518 633 503 721 l 331 721 l 240 597 l 240 671 b 190 721 240 699 218 721 l 114 721 b 64 671 86 721 64 699 l 64 50 b 114 0 64 22 86 0 l 190 0 b 240 50 218 0 240 22 l 240 533 l 344 533 z "},"⁰":{"ha":321,"x_min":0,"x_max":0,"o":"m 128 1086 b 68 1054 110 1086 85 1086 b 58 985 58 1035 58 1007 l 58 747 b 79 671 58 725 58 692 b 125 654 94 656 110 654 l 201 654 b 260 688 221 654 243 656 b 271 763 269 708 271 731 l 271 989 b 246 1074 271 1011 271 1051 b 200 1086 231 1086 215 1086 z m 192 1000 l 192 740 l 139 740 l 139 1000 z "},"¹":{"ha":313,"x_min":0,"x_max":0,"o":"m 97 1000 b 106 978 100 992 103 985 b 140 972 111 964 132 961 l 154 992 l 154 740 l 140 740 b 121 721 129 740 121 732 l 121 674 b 140 654 121 663 129 654 l 244 654 b 264 674 256 654 264 663 l 264 721 b 244 740 264 732 256 740 l 235 740 l 235 1067 b 215 1086 235 1078 226 1086 l 164 1086 b 147 1079 157 1086 151 1083 b 100 1021 142 1072 100 1021 b 97 1000 96 1014 94 1007 z "},"²":{"ha":319,"x_min":0,"x_max":0,"o":"m 264 985 b 193 1086 264 1036 247 1086 l 119 1086 b 53 989 65 1085 54 1039 l 53 939 b 72 918 53 928 63 918 l 108 918 b 128 939 119 918 128 928 l 128 1001 l 185 1001 l 185 888 l 63 718 b 58 707 60 715 58 711 l 58 674 b 78 654 58 663 68 654 l 254 654 b 274 674 265 654 274 663 l 274 721 b 254 740 274 732 265 740 l 171 740 l 264 865 l 264 985 z "},"³":{"ha":308,"x_min":0,"x_max":0,"o":"m 78 968 l 103 968 b 124 988 114 968 124 976 l 124 1004 l 186 1004 l 131 897 l 131 867 b 150 846 131 856 139 846 l 181 846 l 181 740 l 125 740 l 125 763 b 104 782 125 774 115 782 l 71 782 b 50 763 60 782 50 774 l 50 742 b 69 672 51 719 51 692 b 117 654 85 657 100 656 l 186 654 b 260 751 238 654 260 697 l 260 854 b 246 906 260 869 260 889 b 217 918 238 915 228 917 l 265 1008 l 265 1067 b 246 1086 265 1078 257 1086 l 78 1086 b 57 1067 67 1086 57 1078 b 57 988 57 1050 57 988 b 78 968 57 976 67 968 z "},"⁴":{"ha":304,"x_min":0,"x_max":0,"o":"m 150 871 l 88 871 l 138 974 l 138 972 l 144 992 l 149 1001 l 153 1000 b 150 961 153 993 150 963 l 150 871 z m 135 1076 l 33 886 l 33 813 b 53 792 33 801 42 792 l 150 792 l 150 742 l 136 742 b 115 721 125 742 115 732 l 115 674 b 136 654 115 663 125 654 l 238 654 b 258 674 249 654 258 663 l 258 721 b 238 742 258 732 249 742 l 225 742 l 225 792 l 238 792 b 258 813 249 792 258 801 l 258 850 b 238 871 258 861 249 871 l 225 871 l 225 1068 b 204 1088 225 1079 215 1088 l 151 1088 b 135 1076 144 1088 138 1083 z "},"⁵":{"ha":325,"x_min":0,"x_max":0,"o":"m 65 1067 l 65 878 b 85 857 65 867 74 857 l 194 857 l 194 740 l 138 740 l 138 771 b 117 790 138 781 128 790 l 81 790 b 61 771 69 790 61 781 l 61 757 b 132 654 61 703 72 654 l 196 654 b 275 751 254 654 275 693 l 275 856 b 203 951 274 906 263 951 l 142 951 l 142 1000 l 250 1000 b 269 1019 261 1000 269 1008 l 269 1067 b 250 1086 269 1078 261 1086 l 85 1086 b 65 1067 74 1086 65 1078 z "},"⁶":{"ha":318,"x_min":0,"x_max":0,"o":"m 142 833 l 196 833 l 196 740 l 142 740 l 142 833 z m 271 994 b 200 1086 271 1042 251 1083 l 133 1086 b 60 981 71 1086 60 1033 l 60 754 b 132 654 60 700 76 654 l 211 654 b 276 754 264 654 276 706 l 276 822 b 206 917 276 872 263 917 l 142 917 l 142 1000 l 196 1000 l 196 986 b 217 965 196 975 206 965 l 250 965 b 271 986 261 965 271 975 l 271 994 z "},"⁷":{"ha":313,"x_min":0,"x_max":0,"o":"m 68 946 l 100 946 b 119 965 111 946 119 954 l 119 1000 l 188 1000 l 97 679 b 117 654 93 667 103 654 l 163 654 b 182 669 172 654 181 660 l 272 1019 l 272 1067 b 253 1086 272 1078 264 1086 l 68 1086 b 47 1067 57 1086 47 1078 b 47 965 47 1050 47 965 b 68 946 47 954 57 946 z "},"⁸":{"ha":322,"x_min":0,"x_max":0,"o":"m 267 999 b 203 1086 265 1054 253 1086 l 125 1086 b 58 994 65 1082 60 1039 l 58 960 b 101 875 58 932 60 897 b 56 782 65 856 56 838 l 56 744 b 128 654 56 689 71 654 l 194 654 b 271 747 258 654 269 696 l 271 785 b 231 872 271 821 263 857 b 228 874 231 872 228 874 l 226 878 b 267 961 249 889 267 903 z m 190 1000 l 190 917 l 136 917 l 136 1000 z m 190 835 l 190 740 l 136 740 l 136 835 z "},"⁹":{"ha":314,"x_min":0,"x_max":0,"o":"m 185 907 l 132 907 l 132 1000 l 185 1000 z m 57 740 b 128 654 57 696 78 654 l 194 654 b 267 760 253 654 267 703 l 267 986 b 196 1086 267 1040 250 1086 l 117 1086 b 50 986 64 1086 50 1035 l 50 918 b 121 824 50 869 68 824 l 185 824 l 185 740 l 132 740 l 132 765 b 111 786 132 776 122 786 l 76 786 b 57 765 65 786 57 776 z "},"º":{"ha":343,"x_min":0,"x_max":0,"o":"m 204 974 l 204 764 l 147 764 l 147 974 z m 118 1081 b 43 961 49 1081 43 1011 l 43 765 b 119 654 43 701 57 654 l 228 654 b 308 786 306 654 308 729 l 308 961 b 228 1081 308 1038 294 1081 z "},"%":{"ha":736,"x_min":0,"x_max":0,"o":"m 594 1063 b 589 1081 599 1072 597 1081 l 500 1081 b 486 1067 494 1081 489 1075 l 486 1068 b 115 18 365 717 236 371 b 119 0 113 10 114 0 l 211 0 b 224 13 217 0 221 6 z m 128 1086 b 68 1054 110 1086 85 1086 b 58 985 58 1035 58 1007 l 58 747 b 79 671 58 725 58 692 b 125 654 94 656 110 654 l 201 654 b 260 688 221 654 243 656 b 271 763 269 708 271 731 l 271 989 b 246 1074 271 1011 271 1051 b 200 1086 231 1086 215 1086 z m 192 1000 l 192 740 l 139 740 l 139 1000 z m 518 432 b 458 400 500 432 475 432 b 449 331 449 381 449 353 l 449 93 b 469 17 449 71 449 38 b 515 0 485 1 500 0 l 592 0 b 650 33 611 0 633 1 b 661 108 660 54 661 76 l 661 335 b 636 419 661 357 661 397 b 590 432 621 432 606 432 z m 582 346 l 582 86 l 529 86 l 529 346 z "},"‰":{"ha":968,"x_min":0,"x_max":0,"o":"m 128 1086 b 68 1054 110 1086 85 1086 b 58 985 58 1035 58 1007 l 58 747 b 79 671 58 725 58 692 b 125 654 94 656 110 654 l 201 654 b 260 688 221 654 243 656 b 271 763 269 708 271 731 l 271 989 b 246 1074 271 1011 271 1051 b 200 1086 231 1086 215 1086 z m 192 1000 l 192 740 l 139 740 l 139 1000 z m 594 1063 b 589 1081 599 1072 597 1081 l 500 1081 b 486 1067 494 1081 489 1075 l 486 1068 b 115 18 365 717 236 371 b 119 0 113 10 114 0 l 211 0 b 224 13 217 0 221 6 z m 506 432 b 446 400 488 432 463 432 b 436 331 436 381 436 353 l 436 93 b 457 17 436 71 436 38 b 503 0 472 1 488 0 l 579 0 b 638 33 599 0 621 1 b 649 108 647 54 649 76 l 649 335 b 624 419 649 357 649 397 b 578 432 608 432 593 432 z m 569 346 l 569 86 l 517 86 l 517 346 z m 775 432 b 715 400 757 432 732 432 b 706 331 706 381 706 353 l 706 93 b 726 17 706 71 706 38 b 772 0 742 1 757 0 l 849 0 b 907 33 868 0 890 1 b 918 108 917 54 918 76 l 918 335 b 893 419 918 357 918 397 b 847 432 878 432 863 432 z m 839 346 l 839 86 l 786 86 l 786 346 z "},"ª":{"ha":386,"x_min":0,"x_max":0,"o":"m 201 822 l 201 751 l 129 751 l 129 822 z m 201 711 l 201 654 l 310 654 b 336 679 324 654 336 665 l 336 739 b 310 764 336 753 324 764 l 306 764 l 306 983 b 235 1081 306 1029 286 1081 l 110 1081 b 40 985 56 1081 40 1036 l 40 976 b 65 951 40 963 51 951 l 104 951 b 129 976 118 951 129 963 l 129 982 l 201 982 l 201 894 l 94 894 b 32 808 51 894 32 881 l 32 746 b 90 654 32 701 39 654 l 132 654 b 156 665 142 654 147 658 z "},"¼":{"ha":768,"x_min":0,"x_max":0,"o":"m 75 1000 b 83 978 78 993 81 985 b 118 972 89 964 108 961 l 132 992 l 132 740 l 118 740 b 99 721 107 740 99 732 l 99 674 b 118 654 99 663 107 654 l 221 654 b 240 674 232 654 240 663 l 240 721 b 221 740 240 732 232 740 l 213 740 l 213 1067 b 192 1086 213 1078 203 1086 l 140 1086 b 125 1079 133 1086 129 1083 b 78 1021 119 1072 78 1021 b 75 1000 72 1014 72 1007 z m 594 1063 b 589 1081 599 1072 597 1081 l 500 1081 b 486 1067 494 1081 489 1075 l 486 1068 b 115 18 365 717 236 371 b 119 0 113 10 114 0 l 211 0 b 224 13 217 0 221 6 z m 556 217 l 493 217 l 543 318 l 543 318 l 550 336 l 553 347 l 558 346 b 556 307 557 339 556 308 l 556 217 z m 540 422 l 439 232 l 439 157 b 458 138 439 146 447 138 l 556 138 l 556 86 l 542 86 b 521 67 531 86 521 78 l 521 19 b 542 0 521 8 531 0 l 643 0 b 663 19 654 0 663 8 l 663 67 b 643 86 663 78 654 86 l 629 86 l 629 138 l 643 138 b 663 157 654 138 663 146 l 663 196 b 643 217 663 207 654 217 l 629 217 l 629 413 b 610 433 629 424 621 433 l 557 433 b 540 422 550 433 543 429 z "},"½":{"ha":768,"x_min":0,"x_max":0,"o":"m 75 1000 b 83 978 78 993 81 985 b 118 972 89 964 108 961 l 132 992 l 132 740 l 118 740 b 99 721 107 740 99 732 l 99 674 b 118 654 99 663 107 654 l 221 654 b 240 674 232 654 240 663 l 240 721 b 221 740 240 732 232 740 l 213 740 l 213 1067 b 192 1086 213 1078 203 1086 l 140 1086 b 125 1079 133 1086 129 1083 b 78 1021 119 1072 78 1021 b 75 1000 72 1014 72 1007 z m 594 1063 b 589 1081 599 1072 597 1081 l 500 1081 b 486 1067 494 1081 489 1075 l 486 1068 b 115 18 365 717 236 371 b 119 0 113 10 114 0 l 211 0 b 224 13 217 0 221 6 z m 656 331 b 585 432 656 382 639 432 l 513 432 b 446 336 457 431 447 385 l 446 285 b 465 265 446 274 454 265 l 501 265 b 521 285 513 265 521 274 l 521 347 l 576 347 l 576 233 l 456 64 b 451 53 453 61 451 57 l 451 19 b 471 0 451 8 460 0 l 646 0 b 665 19 657 0 665 8 l 665 67 b 646 86 665 78 657 86 l 564 86 l 656 211 l 656 331 z "},"¾":{"ha":763,"x_min":0,"x_max":0,"o":"m 82 968 l 107 968 b 128 988 118 968 128 976 l 128 1004 l 189 1004 l 133 899 l 133 867 b 154 847 133 856 143 847 l 185 847 l 185 740 l 128 740 l 128 763 b 108 782 128 774 119 782 l 75 782 b 54 763 64 782 54 774 l 54 742 b 74 672 56 719 56 692 b 119 654 89 657 104 656 l 189 654 b 263 751 240 654 263 697 l 263 854 b 250 906 263 869 263 890 b 219 918 240 915 231 917 l 269 1008 l 269 1067 b 249 1086 269 1078 260 1086 l 82 1086 b 61 1067 71 1086 61 1078 b 61 988 61 1050 61 988 b 82 968 61 976 71 968 z m 594 1063 b 589 1081 599 1072 597 1081 l 500 1081 b 486 1067 494 1081 489 1075 l 486 1068 b 115 18 365 717 236 371 b 119 0 113 10 114 0 l 211 0 b 224 13 217 0 221 6 z m 556 217 l 493 217 l 543 318 l 543 318 l 550 336 l 553 347 l 558 346 b 556 307 557 339 556 308 l 556 217 z m 540 422 l 439 232 l 439 157 b 458 138 439 146 447 138 l 556 138 l 556 86 l 542 86 b 521 67 531 86 521 78 l 521 19 b 542 0 521 8 531 0 l 643 0 b 663 19 654 0 663 8 l 663 67 b 643 86 663 78 654 86 l 629 86 l 629 138 l 643 138 b 663 157 654 138 663 146 l 663 196 b 643 217 663 207 654 217 l 629 217 l 629 413 b 610 433 629 424 621 433 l 557 433 b 540 422 550 433 543 429 z "},"Ș":{"ha":625,"x_min":0,"x_max":0,"o":"m 214 1081 b 42 858 85 1081 42 957 l 42 678 b 83 503 42 617 46 556 b 213 447 122 449 169 447 l 379 447 l 379 217 l 244 217 l 244 246 b 194 296 244 274 222 296 l 103 296 b 53 246 75 296 53 274 l 53 50 b 103 0 53 22 75 0 l 401 0 b 581 247 554 0 581 121 l 581 422 b 526 617 581 485 576 568 b 396 653 488 649 436 653 l 244 653 l 244 864 l 379 864 l 379 847 b 429 797 379 819 401 797 l 507 797 b 557 847 535 797 557 819 l 557 1031 b 507 1081 557 1058 535 1081 z m 406 -154 b 301 -24 406 -81 364 -24 b 207 -126 246 -24 207 -75 b 283 -215 207 -187 243 -215 b 299 -211 290 -215 294 -211 b 306 -235 304 -211 306 -218 b 219 -361 306 -306 268 -329 b 226 -383 215 -362 221 -378 b 247 -397 232 -390 243 -399 b 406 -154 343 -343 406 -261 z "},"!":{"ha":347,"x_min":0,"x_max":0,"o":"m 90 104 b 199 -4 90 44 139 -4 b 307 104 258 -4 307 44 b 199 213 307 164 258 213 b 90 104 139 213 90 164 z m 161 268 l 233 268 l 311 847 b 318 944 315 872 318 918 b 197 1082 318 1025 268 1082 b 75 944 125 1082 75 1025 b 83 847 75 919 79 875 z "},"\"":{"ha":440,"x_min":0,"x_max":0,"o":"m 149 657 l 196 1156 l 39 1156 l 85 657 z m 354 657 l 400 1156 l 243 1156 l 290 657 z "}}}
